<?xml version="1.0" encoding="UTF-8"?>
<svg id="Layer_2" data-name="Layer 2" xmlns="http://www.w3.org/2000/svg" xmlns:xlink="http://www.w3.org/1999/xlink" viewBox="0 0 397.36 283.67">
  <defs>
    <style>
      .cls-1, .cls-2, .cls-3 {
        fill: none;
      }

      .cls-2 {
        opacity: .57;
      }

      .cls-4 {
        fill: url(#linear-gradient);
      }

      .cls-5 {
        fill: #010101;
      }

      .cls-6 {
        fill: #fff;
      }

      .cls-7 {
        fill: #9a1c20;
      }

      .cls-8 {
        fill: #849ed1;
      }

      .cls-9 {
        fill: #7998cf;
      }

      .cls-3 {
        stroke: #9a1c20;
        stroke-linecap: round;
        stroke-miterlimit: 10;
      }

      .cls-10 {
        fill: url(#radial-gradient-10);
      }

      .cls-11 {
        fill: url(#radial-gradient-6);
      }

      .cls-12 {
        fill: url(#radial-gradient-5);
      }

      .cls-13 {
        fill: url(#radial-gradient-3);
      }

      .cls-14 {
        fill: url(#radial-gradient-4);
      }

      .cls-15 {
        fill: url(#radial-gradient-9);
      }

      .cls-16 {
        fill: url(#radial-gradient-8);
      }

      .cls-17 {
        fill: url(#radial-gradient-7);
      }

      .cls-18 {
        fill: url(#radial-gradient-2);
      }

      .cls-19 {
        fill: url(#linear-gradient-8);
      }

      .cls-20 {
        fill: url(#linear-gradient-9);
      }

      .cls-21 {
        fill: url(#linear-gradient-3);
      }

      .cls-22 {
        fill: url(#linear-gradient-4);
      }

      .cls-23 {
        fill: url(#linear-gradient-2);
      }

      .cls-24 {
        fill: url(#linear-gradient-6);
      }

      .cls-25 {
        fill: url(#linear-gradient-7);
      }

      .cls-26 {
        fill: url(#linear-gradient-5);
      }

      .cls-27 {
        fill: url(#radial-gradient);
      }

      .cls-28 {
        fill: url(#linear-gradient-13);
      }

      .cls-29 {
        fill: url(#linear-gradient-12);
      }

      .cls-30 {
        fill: url(#linear-gradient-10);
      }

      .cls-31 {
        fill: url(#linear-gradient-11);
      }

      .cls-32 {
        fill: url(#radial-gradient-12);
      }

      .cls-32, .cls-33, .cls-34, .cls-35, .cls-36, .cls-37, .cls-38 {
        isolation: isolate;
        opacity: .74;
      }

      .cls-33 {
        fill: url(#radial-gradient-14);
      }

      .cls-34 {
        fill: url(#radial-gradient-13);
      }

      .cls-35 {
        fill: url(#radial-gradient-15);
      }

      .cls-36 {
        fill: url(#radial-gradient-16);
      }

      .cls-37 {
        fill: url(#radial-gradient-11);
      }

      .cls-38 {
        fill: url(#radial-gradient-17);
      }
    </style>
    <radialGradient id="radial-gradient" cx="266.07" cy="137.75" fx="266.07" fy="137.75" r=".02" gradientUnits="userSpaceOnUse">
      <stop offset=".06" stop-color="#c7cee9"/>
      <stop offset=".18" stop-color="#8a96cb"/>
      <stop offset=".28" stop-color="#8d99cd"/>
      <stop offset=".36" stop-color="#9ba5d4"/>
      <stop offset=".43" stop-color="#a9b2db"/>
      <stop offset=".51" stop-color="#c0c7e6"/>
      <stop offset=".52" stop-color="#c7cee9"/>
      <stop offset=".76" stop-color="#c7cee9"/>
      <stop offset="1" stop-color="#8a96cb"/>
    </radialGradient>
    <radialGradient id="radial-gradient-2" cx="266.44" cy="137.91" fx="266.44" fy="137.91" r=".16" xlink:href="#radial-gradient"/>
    <radialGradient id="radial-gradient-3" cx="270.23" cy="138.79" fx="270.23" fy="138.79" r="0" xlink:href="#radial-gradient"/>
    <radialGradient id="radial-gradient-4" cx="270.43" cy="138.88" fx="270.43" fy="138.88" r=".02" xlink:href="#radial-gradient"/>
    <radialGradient id="radial-gradient-5" cx="270.64" cy="138.98" fx="270.64" fy="138.98" r="0" xlink:href="#radial-gradient"/>
    <radialGradient id="radial-gradient-6" cx="274.53" cy="126.36" fx="274.53" fy="126.36" r="11.94" xlink:href="#radial-gradient"/>
    <radialGradient id="radial-gradient-7" cx="285.4" cy="119.01" fx="285.4" fy="119.01" r=".01" xlink:href="#radial-gradient"/>
    <linearGradient id="linear-gradient" x1="264.4" y1="138.06" x2="294.01" y2="122.38" gradientUnits="userSpaceOnUse">
      <stop offset=".06" stop-color="#c7cee9"/>
      <stop offset=".08" stop-color="#b2bbdf"/>
      <stop offset=".12" stop-color="#9fa8d5"/>
      <stop offset=".15" stop-color="#8e9ace"/>
      <stop offset=".18" stop-color="#8a96cb"/>
      <stop offset=".52" stop-color="#c7cee9"/>
      <stop offset=".76" stop-color="#c7cee9"/>
      <stop offset=".84" stop-color="#b5bde0"/>
      <stop offset="1" stop-color="#8a96cb"/>
    </linearGradient>
    <radialGradient id="radial-gradient-8" cx="295.34" cy="132.72" fx="295.34" fy="132.72" r="0" xlink:href="#radial-gradient"/>
    <radialGradient id="radial-gradient-9" cx="292.89" cy="129.46" fx="292.89" fy="129.46" r="5.61" gradientUnits="userSpaceOnUse">
      <stop offset=".18" stop-color="#8a96cb"/>
      <stop offset=".28" stop-color="#8d99cd"/>
      <stop offset=".36" stop-color="#9ba5d4"/>
      <stop offset=".44" stop-color="#a9b2da"/>
      <stop offset="1" stop-color="#8a96cb"/>
    </radialGradient>
    <radialGradient id="radial-gradient-10" cx="295.25" cy="129.71" fx="295.25" fy="129.71" r="4.75" gradientUnits="userSpaceOnUse">
      <stop offset=".18" stop-color="#8a96cb"/>
      <stop offset=".28" stop-color="#8d99cd"/>
      <stop offset=".36" stop-color="#9ba5d4"/>
      <stop offset="1" stop-color="#8a96cb"/>
    </radialGradient>
    <radialGradient id="radial-gradient-11" cx="270.39" cy="138.86" fx="270.39" fy="138.86" r=".02" xlink:href="#radial-gradient"/>
    <radialGradient id="radial-gradient-12" cx="270.43" cy="138.88" fx="270.43" fy="138.88" r=".02" xlink:href="#radial-gradient"/>
    <radialGradient id="radial-gradient-13" cx="293.09" cy="125.31" fx="293.09" fy="125.31" r=".41" xlink:href="#radial-gradient"/>
    <radialGradient id="radial-gradient-14" cx="293.37" cy="125.93" fx="293.37" fy="125.93" r=".02" xlink:href="#radial-gradient"/>
    <radialGradient id="radial-gradient-15" cx="295.33" cy="132.71" fx="295.33" fy="132.71" r="0" xlink:href="#radial-gradient"/>
    <radialGradient id="radial-gradient-16" cx="295.34" cy="132.72" fx="295.34" fy="132.72" r="0" xlink:href="#radial-gradient"/>
    <radialGradient id="radial-gradient-17" cx="280.03" cy="126.63" fx="280.03" fy="126.63" r="15.25" xlink:href="#radial-gradient"/>
    <linearGradient id="linear-gradient-2" x1="295.7" y1="136.31" x2="296.4" y2="135.94" xlink:href="#linear-gradient"/>
    <linearGradient id="linear-gradient-3" x1="265.75" y1="137.73" x2="266.09" y2="137.55" xlink:href="#linear-gradient"/>
    <linearGradient id="linear-gradient-4" x1="266.1" y1="137.81" x2="266.23" y2="137.74" xlink:href="#linear-gradient"/>
    <linearGradient id="linear-gradient-5" x1="270.36" y1="138.87" x2="270.42" y2="138.84" xlink:href="#linear-gradient"/>
    <linearGradient id="linear-gradient-6" x1="270.56" y1="138.95" x2="270.6" y2="138.93" xlink:href="#linear-gradient"/>
    <linearGradient id="linear-gradient-7" x1="270.23" y1="138.8" x2="270.27" y2="138.78" xlink:href="#linear-gradient"/>
    <linearGradient id="linear-gradient-8" x1="285.39" y1="119.01" x2="285.42" y2="119" xlink:href="#linear-gradient"/>
    <linearGradient id="linear-gradient-9" x1="293.34" y1="125.86" x2="293.35" y2="125.86" xlink:href="#linear-gradient"/>
    <linearGradient id="linear-gradient-10" x1="295.33" y1="132.72" x2="295.34" y2="132.72" xlink:href="#linear-gradient"/>
    <linearGradient id="linear-gradient-11" x1="293.18" y1="131.56" x2="296.93" y2="129.57" xlink:href="#linear-gradient"/>
    <linearGradient id="linear-gradient-12" x1="291.34" y1="126.95" x2="297.54" y2="123.66" xlink:href="#linear-gradient"/>
    <linearGradient id="linear-gradient-13" x1="257.52" y1="141.72" x2="312.97" y2="112.35" xlink:href="#linear-gradient"/>
  </defs>
  <g id="Layer_1-2" data-name="Layer 1">
    <path class="cls-5" d="m0,13.46v72.48h33.2l.11-45.44h107.93L56.15,125.61l16.04,21.75c16.22-5.45,30.4-6.82,41.51-3.89,0-.22-.01-.44-.02-.65v-.98c0-9.68,1-19.36,2.94-28.77-4.2.59-8.49,1.58-12.86,3l16.19-16c1.57-5.1,3.42-10.12,5.55-14.99,10.48-23.97,27.27-44.43,48.69-59.44v-12.18H0Zm135.11,203.34c-.47-.75-.92-1.52-1.37-2.28-8.73,19.7-27.09,29.58-52.24,29.58-29.21,0-46.93-16.44-46.93-16.44l-.27-46.79-34.27-.09v60.58c21.36,18.75,51.42,28.85,82.92,28.85,29.32,0,57.14-7.58,76.93-23.68-9.57-8.74-17.89-18.69-24.77-29.73Z"/>
    <g>
      <path class="cls-7" d="m264.45,167.9c-3.4-.1-6.81.01-10.21-.04-.01-7.95-.07-17.51.02-25.45-1.87-.33-7.32-3.89-8.18-4.71-.01,11.85-.06,25.74.04,37.58,6.12,0,12.25.09,18.36-.03.05-.43.04-7.05-.02-7.34h-.01Z"/>
      <path class="cls-7" d="m312.9,175.92c-.09-.17-.28-.32-.46-.48-.31-.27-.67-.57-.71-1.07-.1-.51.23-1.05.54-1.56.13-.22.26-.43.34-.62h-1.29l.77-1.31c-.17-.1-.36-.2-.56-.33-1.21-.75-2.86-2.09-3.82-4.24-.47-1.06-.78-2.3-.78-3.78,0-1.58.3-2.78.78-3.7.32-.61.32-.62,0-.01,1.48-2.9,4.66-2.96,5.33-2.96.25,0,.82,0,1.52.14,1.84.36,4.55,1.7,4.55,6.52,0,2.49-.85,4.35-1.9,5.69-1.07,1.35-2.33,2.19-3.2,2.65l.68,1.31h-1.44c-.1.32-.3.63-.47.92-.26.42-.52.86-.46,1.17.03.28.26.47.52.7.19.17.39.33.54.57.02.02.04.04.05.07.04.07.08.15.1.23.01.03.02.06.02.09,1.13,0,3.58-.22,5.81-1.9.96-.73,1.88-1.75,2.61-3.17,2.08-4.02,1.82-8.1,1.82-8.89-.02-4.27-1.4-9.26-5.57-11.48-.81-.44-2.03-.92-3.74-.97-.7-.04-2.16-.01-3.77.65-2.32.95-3.02,2.3-3.02,2.4.02-3.59.02-7.13.05-10.72h-8.18l.06,33.49h4.09l1.5-3.37c.06-.14.26-.25.36-.12.59.7,1.28,2.02,3.08,3.13,1.72.92,3.21.98,4.26.98"/>
      <path class="cls-7" d="m286.29,159.67c.1-1.73.12-3.95-1.77-4.72-2.7-1.13-6.71-.13-7.02,3.22-2.46-.13-5.05-.34-7.51-.65,1.08-8.53,14.46-9.18,20.69-6.41,3.43,1.59,3.94,4.75,3.84,8.18.2,5.35-.48,10.8.45,16.08-.27.07-7.48.08-7.9.02-.37-1.24-.26-2.51-.43-3.78-1.75,2.16-4.01,3.94-6.87,4.22-3.46.47-7.63-.23-9.68-3.36-1.85-3-.94-7.24,1.8-9.39,4.1-3.04,9.54-2.88,14.4-3.4h0Zm0,3.7c-2.59.28-5.45.6-7.49,2.35-1.53,1.36-1.34,4.08.47,5.11,2.39,1.35,5.49-.17,6.52-2.58.71-1.53.54-3.24.51-4.88Z"/>
      <path class="cls-5" d="m323.53,141.85c-2.64.14-5.69.28-8.18.14-.07-2.74,0-8.46,0-13.17-.14-5.82-.14-8.6-3.47-8.6-4.3,0-4.16,5.41-4.16,10.4v11.23h-8.18c-.14-8.88,0-19.55,0-27.45,2.49-.14,5.41-.14,7.63,0v4.58c2.08-3.6,4.02-5.27,7.49-5.27,3.01,0,4.99.65,6.3,1.88.43.4,1.69,1.32,2.43,4.64.28,1.8.14,7.14.14,8.6v13.03h0Z"/>
      <path class="cls-5" d="m211.42,142.03h-9.39c-.76-2.54-1.53-5.07-2.29-7.61h-12.04c-.77,2.53-1.53,5.05-2.31,7.61-2.56.07-5.11,0-7.68.03,3.92-12.44,7.9-24.86,11.88-37.28h10.15c3.88,12.42,7.85,24.82,11.68,37.26h0Zm-21.57-14.54c2.6-.05,5.21.09,7.79-.06-1.32-4.28-2.51-8.59-3.89-12.82-1.39,4.23-2.71,8.57-3.91,12.87h0Z"/>
      <path class="cls-5" d="m213.94,114.4h7.95c.04,6.16-.01,12.31.02,18.47-.03,1.31.68,2.77,2.05,3.1,4.23.91,5.33-3.13,5.41-6.69.12-4.96-.02-9.92.02-14.88,2.72.03,5.47-.06,8.12.03.07,9.14.04,18.33,0,27.47-9.35-.17-7.21,1.76-7.58-4.46-1.58,4.15-6.25,5.74-10.37,4.88-4.22-.55-5.65-5.01-5.56-8.72-.14-6.4-.01-12.8-.06-19.2h0Z"/>
      <path class="cls-5" d="m246.05,120.83c.03,5.64.03,11.28.03,16.93,0,1.74,1.79,3.23,2.78,3.68,1.53.7,3.05,1.11,5.41,1.11,2.09.06,4.18-.22,6.23-.59-.06-2,.1-4.07-.08-6.02-1.81-.02-4.12.59-5.61-.7-.67-.91-.56-2.1-.63-3.17-.02-3.75,0-7.5,0-11.25,2-.01,3.9,0,5.9,0,.05-2.13.07-4.26,0-6.39-1.96-.07-3.96.13-5.88-.07,0-3.26.01-6.54-.04-9.79h-8.12c.05,3.29.04,6.57,0,9.86-1.44.01-2.86-.02-4.3.02,0,2.1-.15,4.31.05,6.37,1.42.02,2.85-.04,4.27.02h0Z"/>
      <g>
        <g>
          <path class="cls-7" d="m313.23,175.94h.3c.18.75-.26,1.28-.66,1.74-.31.36-.6.71-.57,1.11.01.16-.1.3-.28.31h-.02c-.15,0-.28-.12-.3-.28-.05-.65.35-1.13.71-1.55.41-.49.67-.77.53-1.23-.01-.03-.03-.09-.05-.12"/>
          <path class="cls-7" d="m312.91,175.95s0-.02-.01-.02"/>
        </g>
        <path class="cls-1" d="m312.9,175.92c-.09-.17-.28-.32-.46-.48-.31-.27-.67-.57-.71-1.07-.1-.51.23-1.05.54-1.56.13-.22.26-.43.34-.62h.64c-.1.32-.3.63-.47.92-.26.42-.52.86-.46,1.17.03.28.26.47.52.7.19.17.39.33.54.57.02.02.04.04.05.07.04.07.08.15.1.23.01.03.02.06.02.09h-.3"/>
        <path class="cls-3" d="m314.62,158c.21,0,.48.1.75.28.68.46,1.38,1.46,1.38,2.93"/>
      </g>
      <g id="Layer_9" data-name="Layer 9">
        <g id="Layer_8" data-name="Layer 8">
          <g id="Layer_7" data-name="Layer 7">
            <g id="Layer_14" data-name="Layer 14">
              <g>
                <g id="Shape_6" data-name="Shape 6">
                  <path class="cls-8" d="m284.52,118.99c-.13-.04-.26-.08-.38-.11l-2.17,6.38-.42,1.24-.32.94.25-.56.12-.28h0s.22-.49.22-.49l1.02-2.29v-.04s2.07-4.65,2.07-4.65c-.13-.05-.26-.09-.38-.13Zm-2.88,8.85l.21-.14.03-.03.09-.12-.33.3Zm-.12-.16l.32-.34.12-.24-.44.58Zm-.14-.14l.32-.48h0s.11-.33.11-.33l-.43.81Zm.1,2.9v.02l.2.56-.2-.58Zm-.36-12.02l-.18,6.08h0s-.05,1.72-.05,1.72h0s-.03,1.1-.03,1.1l.08-.69v-.02l.04-.39v-.02l.4-3.5v-.06l.16-4.21c-.14-.01-.29-.01-.43-.01Zm1.5.12l-1.08,6.06v.06s-.3,1.59-.3,1.59h0s-.2,1.1-.2,1.1l.18-.65v-.02l.1-.36h0s.82-3.07.82-3.07v-.06s.88-4.59.88-4.59c-.13-.02-.27-.04-.4-.06Zm-1.97,8.16v-.39s-.02-.03-.02-.03l-.11-3.51v-.05s-.47-4.29-.47-4.29c-.13.01-.28.02-.42.04l.74,6.26h0s.02.19.02.19l.16,1.41v.02s.12.98.12.98l-.02-.62Zm-.27.08h-.01s-.06-.34-.06-.34v-.07s-.01-.01-.01-.01l-.61-3.28v-.05s-1.16-4.42-1.16-4.42c-.13.02-.27.04-.4.07l1.7,6.26v.03s.41,1.47.41,1.47v.03s.25.89.25.89l-.1-.58Zm-.18.31h-.01s-.09-.3-.09-.3l-.02-.03-1.08-3.13h0s-2.03-4.67-2.03-4.67c-.12.03-.26.07-.38.11l3.02,6.77.02.04.45,1.02h.01s.23.53.23.53l-.11-.34Zm-.15.26v-.02s-.08-.07-.08-.07l.19.29-.1-.2Zm1.16.08l.25-.56.07-.38-.32.94Zm.59-1.33l1.02-2.29v-.04s-1.02,2.33-1.02,2.33Zm-.76,1.25l.18-.65v-.02l.02-.42-.2,1.09Zm.18.08l.25-.56.07-.38-.32.94Zm.33-9.01c-.14-.01-.29-.01-.43-.01l-.18,6.08h0s-.05,1.72-.05,1.72h0s-.03,1.1-.03,1.1l.08-.69v-.02l.04-.39v-.02l.4-3.5v-.06l.47-4.18c-.1-.01-.21-.01-.31-.02Zm.26,7.68l1.02-2.29v-.04s-1.02,2.33-1.02,2.33Zm-1.6.99h-.01s-.09-.3-.09-.3l-.02-.03-1.08-3.13h0s-1.65-4.77-1.65-4.77c-.12.03-.26.06-.38.1-.12.03-.26.07-.38.11l3.02,6.77.02.04.45,1.02h.01s.23.53.23.53l-.11-.34Zm.18-.31h-.01s-.06-.34-.06-.34v-.07s-.01-.01-.01-.01l-.61-3.28v-.05s-.83-4.47-.83-4.47c-.11.01-.23.03-.33.05-.13.02-.27.04-.4.07l1.7,6.26v.03s.41,1.47.41,1.47v.03s.25.89.25.89l-.1-.58Zm.26-.47v-.03s.01.36.01.36v-.33Zm.01.39l-.09-.36.11.98-.02-.62Zm.24-.47l-.03,1.09.08-.69v-.02l-.05-.38Zm.15,1.12l.18-.65v-.02l.02-.42-.2,1.09Zm.18.08l.25-.56.07-.38-.32.94Zm.59-1.33l1.02-2.29v-.04s-1.02,2.33-1.02,2.33Zm8.62,2.15c0-.2-.01-.4-.03-.61-.01-.11-.02-.24-.03-.35-.01-.08-.02-.17-.02-.24-.02-.18-.05-.35-.08-.52,0-.07-.02-.13-.03-.21-.05-.32-.12-.63-.21-.94-.04-.15-.08-.32-.12-.46-.02-.08-.05-.15-.07-.23-.02-.08-.04-.15-.07-.23h-.01c-.1-.3-.21-.6-.33-.89-.01-.03-.02-.05-.04-.08h0s-.02-.06-.03-.08c-.1-.24-.21-.46-.33-.69-.01-.03-.02-.06-.04-.09-.14-.29-.3-.56-.46-.82-.16-.28-.35-.55-.54-.79-.19-.26-.4-.51-.61-.74h0c-.11-.07-.24-.14-.36-.22-.07-.04-.15-.08-.23-.11-.24-.13-.49-.26-.75-.38-.11-.04-.24-.09-.35-.15l-3.32,6.28-.02.03-.53.98h0s-.43.82-.43.82l.32-.48h0s.11-.19.11-.19h.01s1.58-2.41,1.58-2.41h.01s3.02-4.63,3.02-4.63c.09.08.18.16.27.26.12.12.24.25.36.37l-4.61,6.02h-.01s-.46.61-.46.61v.02s-.45.58-.45.58l.32-.34.07-.07.03-.04,1.68-1.79.02-.03,3.99-4.27c.06.09.13.19.2.28.11.15.23.3.33.46l-5.98,5.47-.02.03-.09.07-.08.08h-.01s-.33.31-.33.31l.21-.14.03-.03,1.74-1.29.02-.02,4.99-3.69c.04.08.09.18.13.26.1.19.2.38.29.58l-7.32,4.53,1.73-.82,5.93-2.82c.03.08.06.15.08.24.08.23.14.45.21.68l-7.89,2.95,1.32-.33,6.77-1.69.03.19c.05.25.08.52.11.77l-8.19,1.27.81-.03,7.45-.28v.12c.02.29.02.57.01.86l-8.29-.45,2.39.4.54.09,5.3.91h-.02v.05c-.03.31-.07.61-.13.92l-1.03-.27-.65-.18-5.71-1.52h-.03s-.69-.2-.69-.2l7.91,3.07c-.08.31-.16.6-.27.89,0,.01-.01.02-.01.03l-6.61-3.25h-.01s-1.07-.54-1.07-.54l7.34,4.66c-.11.26-.24.51-.36.75-.02.02-.03.05-.04.07l-5.61-4.23h-.02s-1.4-1.06-1.4-1.06l6.57,6.08c-.14.22-.3.43-.44.64-.03.03-.05.06-.07.09l-4.72-5.09-1.23-1.32h0s-.02-.03-.02-.03l-.2-.21.27.35.11.15h.01s5.19,6.82,5.19,6.82c-.16.18-.33.35-.51.52-.03.03-.07.07-.11.1l-3.68-5.62v-.03s-.79-1.19-.79-1.19l-.36-.55h0s-.06-.1-.06-.1l-.22-.33.29.54h0s.22.4.22.4l.03.06,3.92,7.37c-.16.12-.33.24-.49.35-.02.01-.04.03-.06.04-.05.03-.1.06-.15.09l-2.67-5.99v-.03s-.94-2.06-.94-2.06v-.02l-.08-.18-.21-.46.26.73v.02l.2.56.03.08h0s2.68,7.75,2.68,7.75c-.19.09-.38.18-.58.25-.06.02-.12.05-.2.07l-1.69-6.19v-.05s-.67-2.39-.67-2.39h0s-.06-.23-.06-.23h0s-.14-.54-.14-.54l.15.82h0s.15.82.15.82v.05s1.47,7.94,1.47,7.94c-.2.05-.39.09-.59.12h-.01c-.07.01-.13.02-.21.03l-.76-6.44-.3-2.5h0s-.03-.28-.03-.28l-.06-.53.03.81v.02l.03.89v.03l.28,8.08c-.14,0-.28.01-.41.01-.06.01-.12,0-.18,0-.07-.01-.15-.01-.23-.01l.19-6.45v-.04l.08-2.57h0s.01-.28.01-.28h0s.01-.49.01-.49l-.08.73-.09.81v.05s-.93,8.11-.93,8.11v.03c-.27-.04-.54-.1-.8-.18l1.14-6.37h0s.45-2.56.45-2.56h0s.05-.28.05-.28l.07-.4-.15.58v.02s-.22.8-.22.8l-.02.05-1.57,5.86-.53,1.95-.02.08c-.27-.1-.52-.22-.77-.34l2.12-6.22.79-2.32v-.02s.08-.23.08-.23h.01s.09-.3.09-.3l-.18.4h-.01s-.29.67-.29.67h0s-3.3,7.45-3.3,7.45l-.06.13c-.25-.15-.48-.32-.71-.49l3.09-5.85.03-.04,1.07-2.03.09-.18h.01s.08-.18.08-.18l-.14.23h-.01s-.28.44-.28.44l-.02.02-4.48,6.86-.1.16c-.22-.2-.42-.4-.63-.63l4.11-5.38h.01s1.31-1.72,1.31-1.72l.02-.02.07-.1-.18.2-.05.04-5.71,6.12-.16.18c-.19-.24-.36-.48-.53-.74l5.18-4.75h.01s1.31-1.21,1.31-1.21l-6.75,5-.23.16c-.14-.27-.28-.55-.41-.83l6.18-3.83h.02s1.09-.69,1.09-.69l-7.36,3.51-.29.13c-.1-.3-.2-.61-.27-.92l7.15-2.67h.02s.68-.27.68-.27l-7.74,1.93-.32.08c-.06-.31-.1-.63-.14-.96l.33-.05.29-.04.82-.13.32-.04,6.33-.98h.08s-1.3.04-1.3.04h-.55s-6.39.25-6.39.25h-.01c-.02-.32-.02-.64,0-.96h.01l.33.02,7.91.41-.09-.02h-.04l-8.03-1.37h-.02c.04-.33.08-.64.14-.95h.01l.33.09,7.73,2.04-.68-.27h-.05s-7.12-2.78-7.12-2.78h-.01c.03-.12.07-.26.11-.38.05-.18.1-.35.16-.53l.3.14,7.35,3.61-1.21-.76-.04-.02-6.05-3.83c.12-.29.26-.57.4-.83l.25.19,6.74,5.08-1.6-1.48-.03-.02-4.9-4.55c.16-.25.34-.49.53-.73l.2.22,5.59,6.03.06.06.28.31-.1-.13-1.63-2.14h-.01s-3.8-5.01-3.8-5.01c.2-.22.4-.42.62-.62l.13.21,4.29,6.58.03.04.42.65h.01s.19.3.19.3l-.1-.2v-.02s-.11-.19-.11-.19l-.02-.03-1.39-2.64-2.72-5.12c-.27.09-.53.2-.78.32-.14.05-.28.11-.41.18-.1.05-.2.09-.3.15-.25.26-.48.54-.7.82-.11.14-.22.3-.32.44-.22.31-.41.62-.59.95-.08.14-.15.29-.24.43-.11.23-.22.46-.32.7-.12.3-.25.61-.35.93-.16.48-.3.99-.4,1.52-.04.16-.07.34-.09.51-.16,1.02-.22,2.1-.13,3.2.02.22.04.42.06.63.04.29.08.57.13.85.11.6.26,1.17.44,1.73.1.31.23.62.35.92.33.78.73,1.53,1.21,2.19.08.12.18.25.27.37,1.6,2.12,3.83,3.54,6.31,3.81.14.01.29.03.43.04h.24s.03.01.05.01h.21c.26,0,.53-.02.78-.04.26-.02.52-.06.76-.11.45-.08.9-.21,1.32-.37.23-.08.44-.18.65-.27.22-.1.42-.22.63-.33.21-.11.4-.25.6-.37.39-.26.77-.56,1.12-.9.35-.33.69-.68,1-1.06.15-.2.31-.39.45-.6,0,0,.01-.01.02-.02.12-.2.26-.39.39-.61.13-.23.27-.45.38-.69.1-.19.2-.38.28-.59.02-.04.04-.08.06-.12.05-.11.09-.23.13-.35.07-.18.13-.35.2-.53.02-.03.03-.07.04-.1.05-.14.1-.29.15-.43v-.02c.05-.14.1-.3.14-.45.03-.11.07-.24.09-.35.05-.2.09-.39.12-.59,0-.03.01-.05.01-.08.02-.11.04-.24.06-.36,0,0,0-.01,0-.02.05-.28.08-.57.11-.85v-.04c.01-.19.02-.36.03-.55h0c.01-.33.01-.65,0-.97Zm-8.62-2.15l1.02-2.29v-.04s-1.02,2.33-1.02,2.33Zm-.59,1.33l.25-.56.07-.38-.32.94Zm-.18-.08l.18-.65v-.02l.02-.42-.2,1.09Zm-.15-1.12l-.03,1.09.08-.69v-.02l-.05-.38Zm-.24.47l-.09-.36.11.98-.02-.62Zm-.01-.39v-.03s.01.36.01.36v-.33Zm-.26.47h-.01s-.12-.31-.12-.31l.24.89-.1-.58Zm-.18.31h-.01s-.09-.3-.09-.3l-.02-.03-1.08-3.13h0s-2.03-4.67-2.03-4.67c-.12.03-.26.07-.38.11l3.02,6.77.02.04.45,1.02h.01s.23.53.23.53l-.11-.34Zm1.6-.99l1.02-2.29v-.04s-1.02,2.33-1.02,2.33Zm-.59,1.33l.25-.56.07-.38-.32.94Zm-.18-.08l.18-.65v-.02l.02-.42-.2,1.09Zm-.15-1.12l-.03,1.09.08-.69v-.02l-.05-.38Zm-.24.47v-.39s-.02-.03-.02-.03l-.11-3.51v-.05s-.15-4.3-.15-4.3c-.1,0-.21.01-.32.01-.13.01-.28.02-.42.04l.74,6.26h0s.02.19.02.19l.16,1.41v.02s.12.98.12.98l-.02-.62Zm2.47-8.08s-.07-.01-.1-.02c-.13-.02-.27-.04-.4-.06l-1.08,6.06v.06s-.3,1.59-.3,1.59h0s-.2,1.1-.2,1.1l.18-.65v-.02l.1-.36h0s.82-3.07.82-3.07v-.06s1.23-4.5,1.23-4.5c-.08-.03-.16-.05-.25-.06Zm-1.32,7.48l1.02-2.29v-.04s-1.02,2.33-1.02,2.33Zm-.59,1.33l.25-.56.07-.38-.32.94Zm3.3-8.44c-.13-.04-.26-.08-.38-.11l-2.17,6.38-.42,1.24-.32.94.25-.56.12-.28h0s.22-.49.22-.49l1.02-2.29v-.04s2.07-4.65,2.07-4.65c-.13-.05-.26-.09-.38-.13Z"/>
                </g>
                <g id="Shape_6_copy" data-name="Shape 6 copy">
                  <path class="cls-9" d="m285.68,119.42l-3.32,6.28-.02.03-.53.98h0s-.43.82-.43.82l.32-.48h0s.11-.19.11-.19h.01s1.58-2.41,1.58-2.41h.01s2.62-4.88,2.62-4.88c-.11-.04-.24-.09-.35-.15Zm-4.15,8.26l.32-.34.12-.24-.44.58Zm.12.16l.21-.14.03-.03.09-.12-.33.3Zm2.49-8.97l-2.17,6.38-.42,1.24-.32.94.25-.56.12-.28h0s.22-.49.22-.49l1.03-2.33,1.68-4.78c-.13-.04-.26-.08-.38-.11Zm-2.26,11.65l-.23-.51h0s-.06-.1-.06-.1l-.22-.33.29.54h0s.22.4.22.4Zm-.14-.83h0s-.02-.03-.02-.03l-.2-.21.27.35.11.15-.16-.27Zm-.23.67v-.02l-.08-.18-.21-.46.26.73.2.58.03.08-.2-.73Zm-.39-11.95l-.18,6.08h0s-.05,1.72-.05,1.72h0s-.03,1.1-.03,1.1l.08-.69v-.02l.04-.39v-.02l.4-3.5v-.06l.16-4.21c-.14-.01-.29-.01-.43-.01Zm1.5.12l-1.08,6.06v.06s-.3,1.59-.3,1.59h0s-.2,1.1-.2,1.1l.18-.65v-.02l.1-.36h0s.82-3.07.82-3.07v-.06s.88-4.59.88-4.59c-.13-.02-.27-.04-.4-.06Zm-1.27,12.87l-.1-.89h0s-.06-.23-.06-.23h0s-.14-.54-.14-.54l.15.82h0s.15.82.15.82Zm-.42-1.08l-.06-.53.03.81v.02l.03.89.03-.92h0s-.03-.28-.03-.28Zm-.33.21l-.09.81.15-.77h0s.01-.28.01-.28h0s.01-.49.01-.49l-.08.73Zm.05-3.83v-.06l-.02-.36-.11-3.51v-.05s-.47-4.29-.47-4.29c-.13.01-.28.02-.42.04l.74,6.26h0s.02.19.02.19l.18,1.43.11.98-.02-.62Zm-.31,3.64v.02s-.22.8-.22.8l.25-.72h0s.05-.28.05-.28l.07-.4-.15.58Zm.04-3.56l-.07-.34v-.07s-.01-.01-.01-.01l-.61-3.28v-.05s-1.16-4.42-1.16-4.42c-.13.02-.27.04-.4.07l1.7,6.26v.03s.41,1.47.41,1.47v.03s.25.89.25.89l-.1-.58Zm-.18.31h-.01s-.11-.33-.11-.33l-1.08-3.13h0s-2.03-4.67-2.03-4.67c-.12.03-.26.07-.38.11l3.02,6.77.02.04.45,1.02h.01s.23.53.23.53l-.11-.34Zm-.06,3h-.01s-.29.67-.29.67l.29-.53v-.02s.08-.23.08-.23h.01s.09-.3.09-.3l-.18.4Zm-.09-2.74v-.02s-.08-.07-.08-.07l.19.29-.1-.2Zm-.04,2.45h-.01s-.28.44-.28.44l.25-.32.09-.18h.01s.08-.18.08-.18l-.14.23Zm-.18-.16l.08-.07.02-.02.07-.1-.18.2Zm1.38-2.21l.25-.56.07-.38-.32.94Zm-.18-.08l.18-.65v-.02l.02-.42-.2,1.09Zm.18.08l.25-.56.07-.38-.32.94Zm.33-9.01c-.14-.01-.29-.01-.43-.01l-.18,6.08h0s-.05,1.72-.05,1.72h0s-.03,1.1-.03,1.1l.08-.69v-.02l.04-.39v-.02l.4-3.5.47-4.25c-.1-.01-.21-.01-.31-.02Zm-1.34,8.67h-.01s-.11-.33-.11-.33l-1.08-3.13h0s-1.65-4.77-1.65-4.77c-.12.03-.26.06-.38.1-.12.03-.26.07-.38.11l3.02,6.77.02.04.45,1.02h.01s.23.53.23.53l-.11-.34Zm.18-.31l-.07-.34v-.07s-.01-.01-.01-.01l-.61-3.28v-.05s-.83-4.47-.83-4.47c-.11.01-.23.03-.33.05-.13.02-.27.04-.4.07l1.7,6.26v.03s.41,1.47.41,1.47v.03s.25.89.25.89l-.1-.58Zm.27-.08l-.09-.36.11.98-.02-.62Zm.24-.47l-.03,1.09.08-.69v-.02l-.05-.38Zm.15,1.12l.18-.65v-.02l.02-.42-.2,1.09Zm.18.08l.25-.56.07-.38-.32.94Zm9.2.82c0-.2-.01-.4-.03-.61-.01-.11-.02-.24-.03-.35-.01-.08-.02-.17-.02-.24-.02-.18-.05-.35-.08-.52,0-.07-.02-.13-.03-.21-.05-.32-.12-.63-.21-.94-.04-.15-.08-.32-.12-.46-.02-.08-.05-.15-.07-.23-.02-.08-.04-.15-.07-.23h-.01c-.1-.3-.21-.6-.33-.89-.01-.03-.02-.05-.04-.08h0s-.02-.06-.03-.08c-.1-.24-.21-.46-.33-.69-.01-.03-.02-.06-.04-.09-.14-.29-.3-.56-.46-.82-.16-.28-.35-.55-.54-.79-.2-.26-.39-.51-.61-.74-.11-.07-.24-.14-.36-.22-.07-.04-.15-.09-.23-.12-.24-.13-.49-.25-.75-.37-.11-.04-.24-.09-.35-.15l-3.32,6.28-.02.03-.53.98h0s-.43.82-.43.82l.32-.48h0s.11-.19.11-.19h.01s1.58-2.41,1.58-2.41h.01s3.02-4.63,3.02-4.63c.09.08.18.16.27.26.12.12.24.25.36.37l-4.61,6.02h-.01s-.46.61-.46.61v.02s-.45.58-.45.58l.32-.34.07-.07.03-.04,1.68-1.79.02-.03,3.99-4.27c.06.09.13.19.2.28.11.15.23.3.33.46l-5.98,5.47-.11.1-.08.08h-.01s-.33.31-.33.31l.21-.14.03-.03,1.74-1.29.02-.02,4.99-3.69c.04.08.09.18.13.26.1.19.2.38.29.58l-7.32,4.53,1.73-.82,5.93-2.82c.03.08.06.15.08.24.08.23.14.45.21.68l-7.89,2.95,1.32-.33,6.77-1.69.03.19c.05.25.08.52.11.77l-8.19,1.27.81-.03,7.45-.28v.12c.02.29.02.57.01.86l-8.29-.45,2.39.4.54.09,5.3.91h-.02v.05c-.03.31-.07.61-.13.92l-1.03-.27-.65-.18-5.71-1.52h-.03s-.69-.2-.69-.2l7.91,3.07c-.08.31-.16.6-.27.89,0,.01-.01.02-.01.03l-6.61-3.25h-.01s-1.07-.54-1.07-.54l7.34,4.66c-.11.26-.24.51-.36.75-.02.02-.03.05-.04.07l-5.61-4.23h-.02s-1.4-1.06-1.4-1.06l6.57,6.08c-.14.22-.3.43-.44.64-.03.03-.05.06-.07.09l-4.72-5.09-1.23-1.32h0s-.02-.03-.02-.03l-.2-.21.27.35.11.15h.01s5.19,6.82,5.19,6.82c-.16.18-.33.35-.51.52-.03.03-.07.07-.11.1l-3.68-5.62-.79-1.22-.36-.55h0s-.06-.1-.06-.1l-.22-.33.29.54h0s.22.4.22.4l.03.06,3.92,7.37c-.16.12-.33.24-.49.35-.02.01-.04.03-.06.04-.05.03-.1.06-.15.09l-2.67-5.99v-.03s-.94-2.08-.94-2.08l-.08-.18-.21-.46.26.73.2.58.03.08h0s2.68,7.75,2.68,7.75c-.19.09-.38.18-.58.25-.06.02-.12.05-.2.07l-1.69-6.19v-.05s-.67-2.39-.67-2.39h0s-.06-.23-.06-.23h0s-.14-.54-.14-.54l.15.82h0s.15.82.15.82v.05s1.47,7.94,1.47,7.94c-.2.05-.39.09-.59.12h-.01c-.07.01-.13.02-.21.03l-.76-6.44-.3-2.5h0s-.03-.28-.03-.28l-.06-.53.03.81v.02l.03.89v.03l.28,8.08c-.14,0-.28.01-.41.01-.06.01-.12,0-.18,0-.07-.01-.15-.01-.23-.01l.19-6.45v-.04l.08-2.57h0s.01-.28.01-.28h0s.01-.49.01-.49l-.08.73-.09.81v.05s-.93,8.11-.93,8.11v.03c-.27-.04-.54-.1-.8-.18l1.14-6.37h0s.45-2.56.45-2.56h0s.05-.28.05-.28l.07-.4-.15.58v.02s-.22.8-.22.8l-1.59,5.92-.53,1.95-.02.08c-.27-.1-.52-.22-.77-.34l2.12-6.22.79-2.32v-.02s.08-.23.08-.23h.01s.09-.3.09-.3l-.18.4h-.01s-.29.67-.29.67h0s-3.3,7.45-3.3,7.45l-.06.13c-.25-.15-.48-.32-.71-.49l3.09-5.85,1.1-2.07.09-.18h.01s.08-.18.08-.18l-.14.23h-.01s-.28.44-.28.44l-.02.02-4.48,6.86-.1.16c-.22-.2-.42-.4-.63-.63l4.11-5.38h.01s1.31-1.72,1.31-1.72l.02-.02.07-.1-.18.2-5.76,6.16-.16.18c-.19-.24-.36-.48-.53-.74l5.18-4.75h.01s1.31-1.21,1.31-1.21l-6.75,5-.23.16c-.14-.27-.28-.55-.41-.83l6.18-3.83h.02s1.09-.69,1.09-.69l-7.36,3.51-.29.13c-.1-.3-.2-.61-.27-.92l7.15-2.67h.02s.68-.27.68-.27l-7.74,1.93-.32.08c-.06-.31-.1-.63-.14-.96l.33-.05.29-.04,1.14-.18,6.33-.98h.08s-1.3.04-1.3.04l-6.94.25h-.01c-.02-.32-.02-.64,0-.96h.01l.33.02,7.91.41-.09-.02-8.07-1.37h-.02c.04-.33.08-.64.14-.95h.01l.33.09,7.73,2.04-.73-.28-7.12-2.77h-.01c.03-.12.07-.26.11-.38.05-.18.1-.35.16-.53l.3.14,7.35,3.61-1.21-.76-.04-.02-6.05-3.83c.12-.29.26-.57.4-.83l.25.19,6.74,5.08-1.6-1.48-.03-.02-4.9-4.55c.16-.25.34-.49.53-.73l.2.22,5.59,6.03.06.06.28.31-.1-.13-1.63-2.14h-.01s-3.8-5.01-3.8-5.01c.2-.22.4-.42.62-.62l.13.21,4.29,6.58.03.04.42.65h.01s.19.3.19.3l-.1-.2v-.02s-.11-.19-.11-.19l-.02-.03-1.39-2.64-2.72-5.12c-.27.09-.53.2-.78.32-.14.05-.28.11-.41.18-.1.05-.2.09-.3.15-.25.26-.48.54-.7.82-.11.14-.22.3-.32.44-.22.31-.41.62-.59.95-.08.14-.15.29-.24.43-.11.23-.22.46-.32.7-.12.3-.25.61-.35.93-.16.48-.3.99-.4,1.52-.04.16-.07.34-.09.51-.16,1.02-.22,2.1-.13,3.2.02.22.04.42.06.63.04.29.08.57.13.85.11.6.26,1.17.44,1.73.1.31.23.62.35.92.33.78.73,1.53,1.21,2.19.08.12.18.25.27.37,1.6,2.12,3.83,3.54,6.31,3.81.14.01.29.03.43.04h.09c.06.01.13.01.2.01h.21c.26,0,.53-.02.78-.04.26-.02.52-.06.76-.11.45-.09.9-.22,1.32-.37.23-.08.44-.18.65-.27.22-.1.42-.22.63-.33.21-.11.4-.25.6-.37.4-.27.77-.57,1.12-.9.35-.33.69-.68,1-1.06.15-.2.31-.39.45-.6,0,0,.01-.01.02-.02.12-.2.26-.39.39-.61.13-.23.27-.45.38-.69.1-.19.2-.38.28-.59.07-.15.13-.32.2-.47.07-.18.13-.35.2-.53.02-.03.03-.07.04-.1.05-.14.1-.29.15-.43v-.02c.05-.14.1-.3.14-.45.03-.11.07-.24.09-.35.05-.2.09-.39.12-.59,0-.03.01-.05.01-.08.02-.11.04-.24.06-.36,0,0,0-.01,0-.02.02-.11.03-.22.04-.34.01-.05.02-.09.02-.14.02-.12.03-.25.05-.37v-.04c.01-.19.02-.36.03-.55h0c.01-.33.01-.65,0-.97Zm-9.2-.82l.25-.56.07-.38-.32.94Zm-.18-.08l.18-.65v-.02l.02-.42-.2,1.09Zm-.15-1.12l-.03,1.09.08-.69v-.02l-.05-.38Zm-.24.47l-.09-.36.11.98-.02-.62Zm-.16.66l-.1-.58-.07-.34.06.33-.12-.3.24.89Zm-.28-.27h-.01s-.11-.33-.11-.33l-1.08-3.13h0s-2.03-4.67-2.03-4.67c-.12.03-.26.07-.38.11l3.02,6.77.02.04.45,1.02h.01s.23.53.23.53l-.11-.34Zm1.01.34l.25-.56.07-.38-.32.94Zm-.18-.08l.18-.65v-.02l.02-.42-.2,1.09Zm-.15-1.12l-.03,1.09.08-.69v-.02l-.05-.38Zm-.24.47v-.06l-.02-.36-.11-3.51-.15-4.35c-.1,0-.21.01-.32.01-.13.01-.28.02-.42.04l.74,6.26h0s.02.19.02.19l.18,1.43.11.98-.02-.62Zm2.47-8.08s-.07-.01-.1-.02c-.13-.02-.27-.04-.4-.06l-1.08,6.06v.06s-.3,1.59-.3,1.59h0s-.2,1.1-.2,1.1l.18-.65v-.02l.1-.36h0s.82-3.07.82-3.07v-.06s1.23-4.5,1.23-4.5c-.08-.03-.16-.05-.25-.06Zm-1.91,8.81l.25-.56.07-.38-.32.94Zm3.3-8.44c-.13-.04-.26-.08-.38-.11l-2.17,6.38-.42,1.24-.32.94.25-.56.12-.28h0s.22-.49.22-.49l1.03-2.33,2.06-4.65c-.13-.05-.26-.09-.38-.13Zm-4.68,10.65l.08-.07.02-.02.07-.1-.18.2Zm.18.16h-.01s-.28.44-.28.44l.25-.32.09-.18h.01s.08-.18.08-.18l-.14.23Zm.04-2.45v-.02s-.08-.07-.08-.07l.19.29-.1-.2Zm.09,2.74h-.01s-.29.67-.29.67l.29-.53v-.02s.08-.23.08-.23h.01s.09-.3.09-.3l-.18.4Zm.06-3h-.01s-.11-.33-.11-.33l-1.08-3.13h0s-2.03-4.67-2.03-4.67c-.12.03-.26.07-.38.11l3.02,6.77.02.04.45,1.02h.01s.23.53.23.53l-.11-.34Zm.18-.31l-.07-.34v-.07s-.01-.01-.01-.01l-.61-3.28v-.05s-1.16-4.42-1.16-4.42c-.13.02-.27.04-.4.07l1.7,6.26v.03s.41,1.47.41,1.47v.03s.25.89.25.89l-.1-.58Zm-.04,3.56v.02s-.22.8-.22.8l.25-.72h0s.05-.28.05-.28l.07-.4-.15.58Zm.31-3.64v-.06l-.02-.36-.11-3.51v-.05s-.47-4.29-.47-4.29c-.13.01-.28.02-.42.04l.74,6.26h0s.02.19.02.19l.18,1.43.11.98-.02-.62Zm-.05,3.83l-.09.81.15-.77h0s.01-.28.01-.28h0s.01-.49.01-.49l-.08.73Zm.33-.21l-.06-.53.03.81v.02l.03.89.03-.92h0s-.03-.28-.03-.28Zm.42,1.08l-.1-.89h0s-.06-.23-.06-.23h0s-.14-.54-.14-.54l.15.82h0s.15.82.15.82Zm1.27-12.87l-1.08,6.06v.06s-.3,1.59-.3,1.59h0s-.2,1.1-.2,1.1l.18-.65v-.02l.1-.36h0s.82-3.07.82-3.07v-.06s.88-4.59.88-4.59c-.13-.02-.27-.04-.4-.06Zm-1.5-.12l-.18,6.08h0s-.05,1.72-.05,1.72h0s-.03,1.1-.03,1.1l.08-.69v-.02l.04-.39v-.02l.4-3.5v-.06l.16-4.21c-.14-.01-.29-.01-.43-.01Zm.39,11.95v-.02l-.08-.18-.21-.46.26.73.2.58.03.08-.2-.73Zm.23-.67h0s-.02-.03-.02-.03l-.2-.21.27.35.11.15-.16-.27Zm.14.83l-.23-.51h0s-.06-.1-.06-.1l-.22-.33.29.54h0s.22.4.22.4Zm2.26-11.65l-2.17,6.38-.42,1.24-.32.94.25-.56.12-.28h0s.22-.49.22-.49l1.03-2.33,1.68-4.78c-.13-.04-.26-.08-.38-.11Zm-2.49,8.97l.21-.14.03-.03.09-.12-.33.3Zm-.12-.16l.32-.34.12-.24-.44.58Zm4.15-8.26l-3.32,6.28-.02.03-.53.98h0s-.43.82-.43.82l.32-.48h0s.11-.19.11-.19h.01s1.58-2.41,1.58-2.41h.01s2.62-4.88,2.62-4.88c-.11-.04-.24-.09-.35-.15Zm-5.83,10.21l.08-.07.02-.02.07-.1-.18.2Zm.18.16h-.01s-.28.44-.28.44l.25-.32.09-.18h.01s.08-.18.08-.18l-.14.23Zm.04-2.45v-.02s-.08-.07-.08-.07l.19.29-.1-.2Zm.09,2.74h-.01s-.29.67-.29.67l.29-.53v-.02s.08-.23.08-.23h.01s.09-.3.09-.3l-.18.4Zm.06-3h-.01s-.11-.33-.11-.33l-1.08-3.13h0s-2.03-4.67-2.03-4.67c-.12.03-.26.07-.38.11l3.02,6.77.02.04.45,1.02h.01s.23.53.23.53l-.11-.34Zm.18-.31l-.07-.34v-.07s-.01-.01-.01-.01l-.61-3.28v-.05s-1.16-4.42-1.16-4.42c-.13.02-.27.04-.4.07l1.7,6.26v.03s.41,1.47.41,1.47v.03s.25.89.25.89l-.1-.58Zm-.04,3.56v.02s-.22.8-.22.8l.25-.72h0s.05-.28.05-.28l.07-.4-.15.58Zm.31-3.64v-.06l-.02-.36-.11-3.51v-.05s-.47-4.29-.47-4.29c-.13.01-.28.02-.42.04l.74,6.26h0s.02.19.02.19l.18,1.43.11.98-.02-.62Zm-.05,3.83l-.09.81.15-.77h0s.01-.28.01-.28h0s.01-.49.01-.49l-.08.73Zm.33-.21l-.06-.53.03.81v.02l.03.89.03-.92h0s-.03-.28-.03-.28Zm.42,1.08l-.1-.89h0s-.06-.23-.06-.23h0s-.14-.54-.14-.54l.15.82h0s.15.82.15.82Zm1.27-12.87l-1.08,6.06v.06s-.3,1.59-.3,1.59h0s-.2,1.1-.2,1.1l.18-.65v-.02l.1-.36h0s.82-3.07.82-3.07v-.06s.88-4.59.88-4.59c-.13-.02-.27-.04-.4-.06Zm-1.5-.12l-.18,6.08h0s-.05,1.72-.05,1.72h0s-.03,1.1-.03,1.1l.08-.69v-.02l.04-.39v-.02l.4-3.5v-.06l.16-4.21c-.14-.01-.29-.01-.43-.01Zm.39,11.95v-.02l-.08-.18-.21-.46.26.73.2.58.03.08-.2-.73Zm.37.16l-.23-.51h0s-.06-.1-.06-.1l-.22-.33.29.54h0s.22.4.22.4Zm-.14-.83h0s-.02-.03-.02-.03l-.2-.21.27.35.11.15-.16-.27Zm2.4-10.81l-2.17,6.38-.42,1.24-.32.94.25-.56.12-.28h0s.22-.49.22-.49l1.03-2.33,1.68-4.78c-.13-.04-.26-.08-.38-.11Zm-2.49,8.97l.21-.14.03-.03.09-.12-.33.3Zm-.12-.16l.32-.34.12-.24-.44.58Zm4.15-8.26l-3.32,6.28-.02.03-.53.98h0s-.43.82-.43.82l.32-.48h0s.11-.19.11-.19h.01s1.58-2.41,1.58-2.41h.01s2.62-4.88,2.62-4.88c-.11-.04-.24-.09-.35-.15Z"/>
                </g>
                <path class="cls-27" d="m266.09,137.76s-.04-.02-.06-.03c0,0,0,0,0,0,.02,0,.03.02.05.02Z"/>
                <path class="cls-18" d="m266.65,138c-.15-.06-.29-.12-.43-.18.12.05.23.1.35.15.03.01.05.02.08.04Z"/>
                <polygon class="cls-13" points="270.23 138.79 270.23 138.79 270.22 138.79 270.23 138.79"/>
                <path class="cls-14" d="m270.41,138.87s.03.01.04.02h-.03s0-.02-.01-.02Z"/>
                <polygon class="cls-12" points="270.65 138.98 270.64 138.98 270.64 138.98 270.65 138.98"/>
                <path class="cls-11" d="m286.67,116.28s-.03-.01-.04-.01c-1.23-.47-2.58-.79-4.05-.96-5.89-.64-11.97,2.57-16.06,6.65-2.76,2.74-5.27,6.65-4.59,10.73.3,1.8,1.29,3.35,2.82,4.35.2.12.4.26.63.38.11.06.22.11.34.17-.44-.22-.84-.44-1.18-.66-.59-.39-1.1-.85-1.52-1.38-.67-.85-1.12-1.87-1.3-2.98-.67-4.08,1.84-7.98,4.61-10.72.33-.33.67-.65,1.02-.96,4.05-3.6,9.64-6.26,15.05-5.66,1.56.17,2.98.53,4.26,1.05Z"/>
                <path class="cls-17" d="m285.42,119.02s-.02,0-.03-.01h0s.02,0,.03.01Z"/>
                <path class="cls-4" d="m297.76,136.63c0-.27.01-.55.01-.83-.61-2.72-1.41-5.95-2.87-8.61,0,0-.71-1.55-1.15-2.07.05.14-.51-.69-1.18-1.49,0,0,.01.02.02.02.02.02.04.05.06.07.02.01.04.03.05.05.23.24.44.48.66.74,1.5,1.86,2.61,4.06,3.28,6.35.28.93.51,1.88.71,2.82.1.46.27,1.01.4,1.55v.02s0,0,0,.01c-.18-6.06-2.82-15.69-11.09-19-.01,0-.03-.01-.04-.01-1.23-.47-2.58-.79-4.05-.96-5.89-.64-11.97,2.57-16.06,6.65-2.76,2.74-5.27,6.65-4.59,10.73.3,1.8,1.29,3.35,2.82,4.35.2.12.4.26.63.38.11.06.22.11.34.17.1.05.2.1.31.15,0,0,0,0,0,0,.02,0,.03.02.05.02.04.02.08.04.12.05,0,0,0,0,0,0,.12.05.23.1.35.15.03.01.05.02.08.04,0,0,0,0,0,0,.03.01.06.03.08.04.15.07.32.14.48.22.11.04.24.08.36.12.12.04.25.08.37.11.02,0,.04.01.06.02.7.23,1.46.41,2.2.5h.01s.65.07.65.07c-.07-.03-.14-.06-.22-.09,0,0,0,0,0,0,0,0,0,0,0,0,0,0,0,0,0,0-.01,0-.03-.01-.04-.02l.17.07c-.06-.03-.12-.05-.18-.08,0,0-.02,0-.03-.01-.06-.02-.11-.05-.17-.07,0,0,0,0,.01,0,.01,0,.03.01.04.02h-.03s0-.02-.01-.02c-.02,0-.03-.01-.05-.02.01,0,.02.01.04.02-.02-.01-.04-.02-.07-.03-.02-.01-.04-.02-.07-.03-.01,0-.02-.01-.04-.02h0s0,0,0,0c-.02-.01-.04-.02-.06-.03-.24-.11-.47-.23-.7-.33-1.39-.68-2.74-1.43-3.89-2.45-4.85-4.37.58-10.35,4.2-13.49.03-.02.05-.05.08-.07.01,0,.01-.01.02-.01.03-.02.05-.05.08-.07.2-.16.39-.33.59-.48l.02-.02c.14-.11.3-.23.44-.33.06-.05.12-.09.19-.14l.59-.4s.07-.05.1-.07c.1-.07.22-.14.33-.21.28-.18.56-.34.83-.49.11-.06.24-.13.36-.2.08-.04.15-.08.24-.12.02-.01.03-.02.05-.03.27-.12.55-.26.81-.37.23-.1.46-.2.69-.29.24-.09.46-.18.7-.25.15-.05.32-.1.48-.15,0,0,.04-.01.04-.01,0,0,.39-.11.58-.15.08-.02.16-.04.25-.06.13-.04.27-.06.39-.09.13-.03.27-.05.4-.07.13-.03.27-.05.4-.07.12-.02.24-.03.36-.04.14-.02.28-.04.42-.05.11-.01.24-.02.36-.02.13-.02.28-.03.42-.03.11-.01.23-.01.34-.01.14,0,.29,0,.43.01.11,0,.23,0,.34.01.13,0,.27.01.4.02h.03c.11.01.22.02.32.04.14.01.28.02.42.05.09,0,.19.02.28.04.02,0,.05.01.07.01.12.02.25.04.37.07.01,0,.03.01.04.01.12.01.24.04.36.07.13.03.27.06.39.1.13.03.26.07.38.11.03,0,.05.01.08.02.1.03.21.06.3.1.13.03.27.08.39.13.04.01.08.02.12.04.07.03.15.06.24.1.05.02.1.04.16.07h.01c.05.03.11.05.18.08.01.01.02.01.03.01.01.01.02.02.03.02.11.05.23.11.34.16.04.02.08.04.11.06.14.07.29.14.43.23.08.05.15.09.24.14.11.06.22.13.32.21.11.07.23.14.34.22.24.16.46.34.69.52l.07.06s.02.02.02.02c.01.01.03.03.04.04.39.31.78.68,1.15,1.06.09.09.17.18.26.26,0,0,0,0,0,0,.24.24.46.47.69.73.02.03.05.05.07.08,0,0,0,0,0,0,.03.05.07.09.1.14,1.06,1.47,1.98,3.29,2.79,4.92.54,1.09,1.66,4.29,2.21,6.55-.08-.66-.18-1.31-.3-1.97,0,0,0-.01,0-.01,0,0,0,0,0,0,0,0,0,0,0,0,0,0,0,0,0,0,0,0,0,.01,0,.02,0,0,0,.02,0,.03.14.54.28,1.08.37,1.63.01.01.01.02.01.03,0,.01,0,.02,0,.04-.32-2.35-.85-4.67-1.71-6.88-.21-.55-.42-1.09-.64-1.61,0-.02-.02-.04-.03-.06,0-.02-.02-.05-.03-.07-.01-.03-.03-.06-.04-.09l-.19-.4c-.09-.18-.17-.36-.26-.53,0,0,0,0,0,0,0-.01-.01-.03-.02-.04-.04-.09-.08-.19-.12-.28-.2-.41-.47-.79-.63-1.22h0s0-.02,0-.02c1.18,1.17,2,2.59,2.75,4.04,1.52,2.94,2.29,6.13,2.95,9.35Zm-12.37-17.63h0s.02,0,.03.01c-.01,0-.02,0-.03-.01Z"/>
                <path class="cls-16" d="m295.34,132.73s0-.01,0-.01c0,0,0,0,0,0,0,0,0,.01,0,.02Z"/>
                <path class="cls-15" d="m295.83,136.65c-.15-1.91-1.72-6.8-2.4-8.21-.88-1.84-1.74-3.49-2.48-4.61-.08-.12-.16-.23-.23-.35-.2-.28-.4-.55-.61-.81-.11-.14-.22-.27-.34-.4,0,0,0,0,0,0,.24.24.46.47.69.73.02.03.05.05.07.08,0,0,0,0,0,0,.03.05.07.09.1.14,1.06,1.47,1.98,3.29,2.79,4.92.54,1.09,1.66,4.29,2.21,6.55.08.65.14,1.3.19,1.95Z"/>
                <path class="cls-10" d="m294.9,127.19s-.71-1.55-1.15-2.07c.05.14-.51-.69-1.18-1.49,0,0,.01.02.02.02.02.02.04.05.06.07.02.01.04.03.05.05.23.24.44.48.66.74,1.5,1.86,2.61,4.06,3.28,6.35.28.93.51,1.88.71,2.82.1.46.27,1.01.4,1.55v.02s0,0,0,.01c0,.18,0,.35,0,.52-.61-2.72-1.41-5.95-2.87-8.61Z"/>
              </g>
            </g>
          </g>
          <g id="Layer_16" data-name="Layer 16">
            <g id="Shape_6-2" data-name="Shape 6-2" class="cls-2">
              <path class="cls-8" d="m286.03,119.57l-2.62,4.86h-.01s-1.42,2.64-1.42,2.64v.02s-.13.24-.13.24l-.12.23.2-.3.03-.04.49-.74h.01s4.25-6.4,4.25-6.4l.08-.12c-.24-.13-.49-.26-.75-.38Zm-1.12-.45l-2.06,4.65v.04s-1.03,2.9-1.03,2.9h0s-.11.33-.11.33h0s-.14.41-.14.41l.26-.59h.01s.52-1.13.52-1.13l.02-.03,2.92-6.44c-.12-.04-.25-.09-.37-.13Zm-1.53-.44l-1.22,4.5v.06s-.62,3.25-.62,3.25l-.07.38-.09.49.22-.77h0s.37-1.34.37-1.34l1.8-6.48c-.13-.04-.26-.07-.39-.09Zm-1.52-.24l-.47,4.18v.06l-.14,3.56h0s-.02.43-.02.43v.02l-.02.63.12-1.01h0s.21-1.66.21-1.66v-.06s.75-6.1.75-6.1c-.14-.02-.28-.04-.42-.05Zm.21,9.01l-.08.08h-.01s-.09.13-.09.13l.28-.29.02-.03-.11.1Zm-.54,2.28l.06.19.06.09-.12-.28Zm-.16.07l.06.36.08.18-.14-.54Zm-.11.71l-.07-.68v.45s.01.01.01.01l.06.22Zm-.32-.19l.03.27.03-.76-.06.49Zm.08-3l-.03-1.11v-.02l-.04-1.69h0s-.15-6.1-.15-6.1c-.14,0-.28,0-.42.01l.14,4.3v.05s.38,3.45.38,3.45h0s.05.39.05.39v.02l.07.7Zm-.34,2.96h0s-.01.28-.01.28l.14-.77-.13.49Zm-.03-3.98v-.03s-.28-1.55-.28-1.55h0s-1.08-6.23-1.08-6.23c-.14.01-.29.02-.42.05l.82,4.47v.05s.87,3.24.87,3.24v.02s.1.36.1.36l.18.67-.19-1.06Zm-.22,3.85l-.05.27.26-.72-.21.45Zm-.32-3.37l-.02-.03.11.32h.01s.29.46.29.46l-.39-.75Zm.12,3.19h-.01s-.07.24-.07.24l.33-.62-.25.38Zm.07-3.61h0s-.46-1.4-.46-1.4v-.03s-2.08-6.17-2.08-6.17c-.13.02-.27.06-.4.09l1.65,4.76h0s1.24,2.82,1.24,2.82v.03s.13.3.13.3h.01s.28.66.28.66l-.36-1.06Zm-.23,3.37h-.01s-.09.19-.09.19l.36-.46-.26.28Zm-.16-2.2l-.18-.18.28.31.22.16-.32-.3Zm.1,1.9l-.07.1.28-.26-.21.15Zm-.07-2.3l-.02-.03-.38-.52.42.65h.01s.07.08.07.08v.02s.31.33.31.33l-.41-.54Zm6.08-7.57l-2.62,4.86h-.01s-1.42,2.64-1.42,2.64v.02s-.13.24-.13.24l-.12.23.2-.3.03-.04.49-.74h.01s4.25-6.4,4.25-6.4l.08-.12c-.24-.13-.49-.26-.75-.38Zm0,0l-2.62,4.86h-.01s-1.42,2.64-1.42,2.64v.02s-.13.24-.13.24l-.12.23.2-.3.03-.04.49-.74h.01s4.25-6.4,4.25-6.4l.08-.12c-.24-.13-.49-.26-.75-.38Zm-4.33,7.46h0s-.14.41-.14.41l.26-.59-.11.18Zm4.33-7.46l-2.62,4.86h-.01s-1.42,2.64-1.42,2.64v.02s-.13.24-.13.24l-.12.23.2-.3.03-.04.49-.74h.01s4.25-6.4,4.25-6.4l.08-.12c-.24-.13-.49-.26-.75-.38Zm-4.56,7.3l-.09.49.22-.77-.12.28Zm.23.17h0s-.14.41-.14.41l.26-.59-.11.18Zm.16-8.6c-.1-.01-.21-.01-.31-.02l-.16,4.21v.06l-.14,3.56h0s-.02.43-.02.43v.02l-.02.63.12-1.01h0s.21-1.66.21-1.66v-.06s.75-6.1.75-6.1c-.14-.02-.28-.04-.42-.05Zm4.16,1.13l-2.62,4.86h-.01s-1.42,2.64-1.42,2.64v.02s-.13.24-.13.24l-.12.23.2-.3.03-.04.49-.74h.01s4.25-6.4,4.25-6.4l.08-.12c-.24-.13-.49-.26-.75-.38Zm-5.72,6.79h0s-.46-1.4-.46-1.4v-.03s-2.08-6.17-2.08-6.17c-.13.02-.27.06-.4.09-.12.03-.26.06-.38.1l2.03,4.66h0s1.24,2.82,1.24,2.82v.03s.13.3.13.3h.01s.28.66.28.66l-.36-1.06Zm.34-.06v-.03s-.28-1.55-.28-1.55h0s-1.08-6.23-1.08-6.23c-.14.01-.29.02-.42.05-.11.01-.23.03-.33.05l1.15,4.42v.05s.87,3.24.87,3.24v.02s.1.36.1.36l.18.67-.19-1.06Zm.34-.09l-.04.39v.02l.07.7-.03-1.11Zm.24.46v.02l-.02.63.12-1.01-.1.36Zm.25.2l-.09.49.22-.77-.12.28Zm.23.17h0s-.14.41-.14.41l.26-.59-.11.18Zm4.33-7.46l-2.62,4.86h-.01s-1.42,2.64-1.42,2.64v.02s-.13.24-.13.24l-.12.23.2-.3.03-.04.49-.74h.01s4.25-6.4,4.25-6.4l.08-.12c-.24-.13-.49-.26-.75-.38Zm-5.72,6.79v.07s.07.33.07.33h.01s.28.66.28.66l-.36-1.06Zm.53,1l-.19-1.06v-.03s.01.36.01.36v.06l.18.67Zm.15-1.15l-.04.39v.02l.07.7-.03-1.11Zm.24.46v.02l-.02.63.12-1.01-.1.36Zm.25.2l-.09.49.22-.77-.12.28Zm.23.17h0s-.14.41-.14.41l.26-.59-.11.18Zm4.33-7.46l-2.62,4.86h-.01s-1.42,2.64-1.42,2.64v.02s-.13.24-.13.24l-.12.23.2-.3.03-.04.49-.74h.01s4.25-6.4,4.25-6.4l.08-.12c-.24-.13-.49-.26-.75-.38Zm-5.72,6.79v.07s.07.33.07.33h.01s.28.66.28.66l-.36-1.06Zm.53,1l-.19-1.06v-.03s.01.36.01.36v.06l.18.67Zm.15-1.15l-.04.39v.02l.07.7-.03-1.11Zm.24.46v.02l-.02.63.12-1.01-.1.36Zm.25.2l-.09.49.22-.77-.12.28Zm.23.17h0s-.14.41-.14.41l.26-.59-.11.18Zm.14.3l-.12.23.2-.3-.07.07Zm4.59-7.51l-3.02,4.62h-.01s-1.42,2.64-1.42,2.64l.46-.6h.01s4.25-6.4,4.25-6.4c-.09-.09-.18-.18-.27-.26Zm-6.12,6.55v.07s.07.33.07.33h.01s.28.66.28.66l-.36-1.06Zm.53,1l-.19-1.06v-.03s.01.36.01.36v.06l.18.67Zm.15-1.15l-.04.39v.02l.07.7-.03-1.11Zm.24.46v.02l-.02.63.12-1.01-.1.36Zm.25.2l-.09.49.22-.77-.12.28Zm.23.17h0s-.14.41-.14.41l.26-.59-.11.18Zm.14.3l-.12.23.2-.3-.07.07Zm4.59-7.51l-3.02,4.62h-.01s-1.42,2.64-1.42,2.64l.46-.6h.01s4.25-6.4,4.25-6.4c-.09-.09-.18-.18-.27-.26Zm-6.12,6.55v.07s.07.33.07.33h.01s.28.66.28.66l-.36-1.06Zm.53,1l-.19-1.06v-.03s.01.36.01.36v.06l.18.67Zm.15-1.15l-.04.39v.02l.07.7-.03-1.11Zm.24.46v.02l-.02.63.12-1.01-.1.36Zm.25.2l-.09.49.22-.77-.12.28Zm.23.17h0s-.14.41-.14.41l.26-.59-.11.18Zm.14.3l-.12.23.2-.3-.07.07Zm4.59-7.51l-3.02,4.62h-.01s-1.42,2.64-1.42,2.64l.46-.6h.01s4.25-6.4,4.25-6.4c-.09-.09-.18-.18-.27-.26Zm-6.12,6.55v.07s.07.33.07.33h.01s.28.66.28.66l-.36-1.06Zm.53,1l-.19-1.06v-.03s.01.36.01.36v.06l.18.67Zm.15-1.15l-.04.39v.02l.07.7-.03-1.11Zm.24.46v.02l-.02.63.12-1.01-.1.36Zm.25.2l-.09.49.22-.77-.12.28Zm.23.17h0s-.14.41-.14.41l.26-.59-.11.18Zm.14.3l-.12.23.2-.3-.07.07Zm4.59-7.51l-3.02,4.62h-.01s-1.42,2.64-1.42,2.64l.46-.6h.01s4.25-6.4,4.25-6.4c-.09-.09-.18-.18-.27-.26Zm-6.12,6.55v.07s.07.33.07.33h.01s.28.66.28.66l-.36-1.06Zm.53,1l-.19-1.06v-.03s.01.36.01.36v.06l.18.67Zm.15-1.15l-.04.39v.02l.07.7-.03-1.11Zm.24.46v.02l-.02.63.12-1.01-.1.36Zm.25.2l-.09.49.22-.77-.12.28Zm.23.17h0s-.14.41-.14.41l.26-.59-.11.18Zm.14.3l-.12.23.2-.3-.07.07Zm4.59-7.51l-3.02,4.62h-.01s-1.42,2.64-1.42,2.64l.46-.6h.01s4.25-6.4,4.25-6.4c-.09-.09-.18-.18-.27-.26Zm-6.12,6.55v.07s.07.33.07.33h.01s.28.66.28.66l-.36-1.06Zm.53,1l-.19-1.06v-.03s.01.36.01.36v.06l.18.67Zm.15-1.15l-.04.39v.02l.07.7-.03-1.11Zm.24.46v.02l-.02.63.12-1.01-.1.36Zm.25.2l-.09.49.22-.77-.12.28Zm.23.17h0s-.14.41-.14.41l.26-.59-.11.18Zm.14.3l-.12.23.2-.3-.07.07Zm4.59-7.51l-3.02,4.62h-.01s-1.42,2.64-1.42,2.64l.46-.6h.01s4.25-6.4,4.25-6.4c-.09-.09-.18-.18-.27-.26Zm-6.12,6.55v.07s.07.33.07.33h.01s.28.66.28.66l-.36-1.06Zm.53,1l-.19-1.06v-.03s.01.36.01.36v.06l.18.67Zm.15-1.15l-.04.39v.02l.07.7-.03-1.11Zm.24.46v.02l-.02.63.12-1.01-.1.36Zm.25.2l-.09.49.22-.77-.12.28Zm.23.17h0s-.14.41-.14.41l.26-.59-.11.18Zm.14.3l-.12.23.2-.3-.07.07Zm4.59-7.51l-3.02,4.62h-.01s-1.42,2.64-1.42,2.64l.46-.6h.01s4.25-6.4,4.25-6.4c-.09-.09-.18-.18-.27-.26Zm-6.12,6.55v.07s.07.33.07.33h.01s.28.66.28.66l-.36-1.06Zm.53,1l-.19-1.06v-.03s.01.36.01.36v.06l.18.67Zm.15-1.15l-.04.39v.02l.07.7-.03-1.11Zm.24.46v.02l-.02.63.12-1.01-.1.36Zm.25.2l-.09.49.22-.77-.12.28Zm.23.17h0s-.14.41-.14.41l.26-.59-.11.18Zm.14.3l-.12.23.2-.3-.07.07Zm4.59-7.51l-3.02,4.62h-.01s-1.42,2.64-1.42,2.64l.46-.6h.01s4.25-6.4,4.25-6.4c-.09-.09-.18-.18-.27-.26Zm4.31,7.94h-.01c-.19-2.71-1.16-4.99-2.62-6.83,0,0-.47-.44-.73-.63h-.01c-.11-.08-.24-.16-.36-.23.15.15.31.3.44.45l-3.8,4.88-.02.03-1.64,2.1h-.01s-.09.13-.09.13l.28-.29.02-.03,5.65-5.94.19-.2c.19.24.36.48.53.74l-4.9,4.4-.02.02-1.66,1.49,6.8-4.95.24-.18c.11.23.23.44.34.68.01.02.02.05.03.07h0s.02.06.03.09l-5.94,3.61-1.41.86,7.42-3.44.27-.12c.02.07.05.14.08.22.02.07.05.14.07.23.04.14.08.31.12.46l-6.91,2.52-.99.36,7.79-1.87.31-.07c.01.07.03.13.03.21.03.16.06.34.08.52,0,.07.01.15.02.24l-7.71,1.12-.49.07,7.95-.23h.32s.01-.01.01-.01c.01.33.01.66,0,.98h-.01v-.02l-8.29-.52,2.08.37.54.09,5.28.96.31.06c0,.05-.01.09-.02.14,0,.12-.02.23-.04.34,0,0,0,.01,0,.02-.02.12-.04.25-.06.36,0,.03-.01.05-.01.08l-1.34-.36-.65-.18-6.11-1.68.37.15h.03s7.18,2.89,7.18,2.89l.3.11c-.04.15-.09.31-.14.45-.06.14-.11.3-.16.45l-.26-.13-7.38-3.71.75.48h.01s6.53,4.23,6.53,4.23c-.12.29-.27.57-.41.83l-.23-.18-6.75-5.18,1.08,1.02h.02s5.4,5.13,5.4,5.13c-.16.25-.34.49-.53.73l-.18-.2-5.93-6.51,1.13,1.52,4.39,5.86c-.21.22-.41.42-.63.62l-.12-.2-4.69-7.33h-.01s-.16-.28-.16-.28l.05.11,1.01,1.95v.03s3.26,6.26,3.26,6.26c-.23.18-.46.33-.71.47l-.07-.16-3.36-7.76-.03-.06-.23-.51h0s-.12-.29-.12-.29l.06.19.07.21h0s.77,2.3.77,2.3v.03s2.17,6.45,2.17,6.45c-.25.12-.51.23-.77.32l-.03-.13-2.1-7.99h0s-.2-.74-.2-.74v-.02l-.14-.54.06.36.05.27v.02l.43,2.46v.05s1.13,6.48,1.13,6.48c-.26.07-.53.11-.8.15v-.08s-.88-8.06-.88-8.06v-.05s-.11-.89-.11-.89h0s-.07-.69-.07-.69v.45s.01.01.01.01v.29s.01.01.01.01l.06,2.51.16,6.56c-.21,0-.42,0-.63-.02-.06.01-.12,0-.18,0l.31-8.09v-.03l.03-.92h0s.03-.77.03-.77l-.06.49-.03.29v.02l-.32,2.5v.04l-.77,6.37c-.07-.01-.15-.03-.23-.04-.2-.04-.39-.08-.59-.13l1.5-7.98v-.05s.16-.77.16-.77h0s.14-.78.14-.78l-.13.49h0s-.07.25-.07.25l-.68,2.45h0s-1.7,6.12-1.7,6.12c-.07-.03-.14-.05-.21-.08-.2-.08-.37-.16-.56-.27l2.65-7.54.02-.05.25-.72h0s.26-.73.26-.73l-.21.45-.08.18v.02s-1,2.2-1,2.2l-2.62,5.78c-.06-.04-.11-.08-.18-.12-.18-.11-.35-.25-.53-.38l3.82-7.06h0s.29-.54.29-.54v-.02s.34-.62.34-.62l-.25.38h-.01s-.07.11-.07.11h-.01s-1.24,1.87-1.24,1.87l-.03.04-3.5,5.27c-.05-.04-.09-.09-.14-.13-.16-.15-.32-.33-.47-.49l4.96-6.37.02-.02.25-.32.36-.46-.26.28h-.01s-.06.07-.06.07l-1.39,1.46h-.01s-4.42,4.67-4.42,4.67c-.03-.05-.07-.09-.1-.14-.14-.2-.29-.4-.42-.61l6.13-5.51.05-.04.08-.07.02-.02.28-.26-.21.15-1.43,1.03h-.01s-5.37,3.92-5.37,3.92c-.02-.04-.04-.07-.06-.11-.12-.23-.24-.47-.34-.73l7.34-4.45-1.43.67h-.02s-6.23,2.91-6.23,2.91c-.01-.02-.02-.05-.02-.07-.09-.28-.18-.56-.25-.85l7.88-2.87-1.02.25h-.02s-7.04,1.69-7.04,1.69v-.02c-.06-.31-.1-.62-.13-.93h0s1.11-.18,1.11-.18l.32-.04,6.75-.99h-.4s-.02.01-.02.01l-1.22.04h-.55s-6.07.19-6.07.19c0-.29,0-.6.01-.88v-.08l7.77.47h.04l.42.03-8.16-1.46c.03-.27.07-.54.13-.79,0-.05.01-.1.02-.15l6.98,1.92h.05s1.02.29,1.02.29l-7.84-3.13c.06-.24.13-.46.22-.69.02-.07.05-.14.07-.22l6.03,3.04.04.02,1.55.77-7.27-4.69c.08-.21.19-.4.28-.59.05-.08.09-.17.13-.25l4.98,3.82.03.02,1.72,1.32.22.16-.32-.3-.18-.18-.06-.06-5.92-5.57c.1-.16.22-.32.33-.46.06-.09.13-.18.2-.27l3.99,4.38h.01s1.68,1.86,1.68,1.86h.01s.07.08.07.08v.02s.31.33.31.33l-.41-.54-.02-.03-.38-.52-.03-.04-4.65-6.22.36-.36c.09-.08.19-.16.27-.25l3.04,4.74,1.56,2.43h.01s.1.18.1.18h.01s.29.46.29.46l-.39-.75-.02-.03-.45-.88-.02-.04-3.44-6.63c-.12.04-.25.08-.36.13-.27.09-.53.2-.78.32-1.27,1.21-2.27,2.79-2.88,4.61-.06.18-.11.35-.16.53-.04.13-.07.26-.1.38-.08.3-.14.61-.21.92-.05.31-.1.63-.13.95-.04.32-.06.63-.07.96-.01.31-.01.63,0,.96,0,.15.01.31.02.46.01.17.03.33.04.49.04.33.08.65.14.96.05.32.12.63.21.93.07.31.16.62.27.92,1.36,4.11,4.65,7.03,8.46,7.3.02.01.03.01.05.01h.21c.33.02.67.01,1.02-.02,5.3-.46,9.27-5.96,8.84-12.26Zm-8.29-1.29l4.25-6.39c-.09-.09-.18-.18-.27-.26l-3.02,4.62h-.01s-1.42,2.64-1.42,2.64l.46-.6h.01Zm-.54.79l-.07.07-.12.23.2-.3Zm-.1-.4l-.11.18h0s-.14.41-.14.41l.26-.59Zm-.34.01l-.09.49.22-.77-.12.28Zm-.25-.2v.02l-.02.63.12-1.01-.1.36Zm-.24-.46l-.04.39v.02l.07.7-.03-1.11Zm-.33.48l.18.67-.19-1.06v-.03s.01.36.01.36v.06Zm-.28.07h.01s.28.66.28.66l-.36-1.06v.07s.07.33.07.33Zm6.05-6.95l-3.02,4.62h-.01s-1.42,2.64-1.42,2.64l.46-.6h.01s4.25-6.4,4.25-6.4c-.09-.09-.18-.18-.27-.26Zm-4.59,7.51l-.12.23.2-.3-.07.07Zm-.14-.3h0s-.14.41-.14.41l.26-.59-.11.18Zm-.23-.17l-.09.49.22-.77-.12.28Zm-.25-.2v.02l-.02.63.12-1.01-.1.36Zm-.24-.46l-.04.39v.02l.07.7-.03-1.11Zm-.15,1.15l-.19-1.06v-.03s.01.36.01.36v.06l.18.67Zm-.53-1v.07s.07.33.07.33h.01s.28.66.28.66l-.36-1.06Zm6.12-6.55l-3.02,4.62h-.01s-1.42,2.64-1.42,2.64l.46-.6h.01s4.25-6.4,4.25-6.4c-.09-.09-.18-.18-.27-.26Zm-4.59,7.51l-.12.23.2-.3-.07.07Zm-.14-.3h0s-.14.41-.14.41l.26-.59-.11.18Zm-.23-.17l-.09.49.22-.77-.12.28Zm-.25-.2v.02l-.02.63.12-1.01-.1.36Zm-.24-.46l-.04.39v.02l.07.7-.03-1.11Zm-.15,1.15l-.19-1.06v-.03s.01.36.01.36v.06l.18.67Zm-.53-1v.07s.07.33.07.33h.01s.28.66.28.66l-.36-1.06Zm6.12-6.55l-3.02,4.62h-.01s-1.42,2.64-1.42,2.64l.46-.6h.01s4.25-6.4,4.25-6.4c-.09-.09-.18-.18-.27-.26Zm-4.59,7.51l-.12.23.2-.3-.07.07Zm-.14-.3h0s-.14.41-.14.41l.26-.59-.11.18Zm-.23-.17l-.09.49.22-.77-.12.28Zm-.25-.2v.02l-.02.63.12-1.01-.1.36Zm-.24-.46l-.04.39v.02l.07.7-.03-1.11Zm-.15,1.15l-.19-1.06v-.03s.01.36.01.36v.06l.18.67Zm-.53-1v.07s.07.33.07.33h.01s.28.66.28.66l-.36-1.06Zm6.12-6.55l-3.02,4.62h-.01s-1.42,2.64-1.42,2.64l.46-.6h.01s4.25-6.4,4.25-6.4c-.09-.09-.18-.18-.27-.26Zm-4.59,7.51l-.12.23.2-.3-.07.07Zm-.14-.3h0s-.14.41-.14.41l.26-.59-.11.18Zm-.23-.17l-.09.49.22-.77-.12.28Zm-.25-.2v.02l-.02.63.12-1.01-.1.36Zm-.24-.46l-.04.39v.02l.07.7-.03-1.11Zm-.15,1.15l-.19-1.06v-.03s.01.36.01.36v.06l.18.67Zm-.53-1v.07s.07.33.07.33h.01s.28.66.28.66l-.36-1.06Zm6.12-6.55l-3.02,4.62h-.01s-1.42,2.64-1.42,2.64l.46-.6h.01s4.25-6.4,4.25-6.4c-.09-.09-.18-.18-.27-.26Zm-4.59,7.51l-.12.23.2-.3-.07.07Zm-.14-.3h0s-.14.41-.14.41l.26-.59-.11.18Zm-.23-.17l-.09.49.22-.77-.12.28Zm-.25-.2v.02l-.02.63.12-1.01-.1.36Zm-.24-.46l-.04.39v.02l.07.7-.03-1.11Zm-.15,1.15l-.19-1.06v-.03s.01.36.01.36v.06l.18.67Zm-.53-1v.07s.07.33.07.33h.01s.28.66.28.66l-.36-1.06Zm6.12-6.55l-3.02,4.62h-.01s-1.42,2.64-1.42,2.64l.46-.6h.01s4.25-6.4,4.25-6.4c-.09-.09-.18-.18-.27-.26Zm-4.59,7.51l-.12.23.2-.3-.07.07Zm-.14-.3h0s-.14.41-.14.41l.26-.59-.11.18Zm-.23-.17l-.09.49.22-.77-.12.28Zm-.25-.2v.02l-.02.63.12-1.01-.1.36Zm-.24-.46l-.04.39v.02l.07.7-.03-1.11Zm-.15,1.15l-.19-1.06v-.03s.01.36.01.36v.06l.18.67Zm-.53-1v.07s.07.33.07.33h.01s.28.66.28.66l-.36-1.06Zm6.12-6.55l-3.02,4.62h-.01s-1.42,2.64-1.42,2.64l.46-.6h.01s4.25-6.4,4.25-6.4c-.09-.09-.18-.18-.27-.26Zm-4.59,7.51l-.12.23.2-.3-.07.07Zm-.14-.3h0s-.14.41-.14.41l.26-.59-.11.18Zm-.23-.17l-.09.49.22-.77-.12.28Zm-.25-.2v.02l-.02.63.12-1.01-.1.36Zm-.24-.46l-.04.39v.02l.07.7-.03-1.11Zm-.15,1.15l-.19-1.06v-.03s.01.36.01.36v.06l.18.67Zm-.53-1v.07s.07.33.07.33h.01s.28.66.28.66l-.36-1.06Zm5.72-6.79l-2.62,4.86h-.01s-1.42,2.64-1.42,2.64v.02s-.13.24-.13.24l-.12.23.2-.3.03-.04.49-.74h.01s4.25-6.4,4.25-6.4l.08-.12c-.24-.13-.49-.26-.75-.38Zm-4.33,7.46h0s-.14.41-.14.41l.26-.59-.11.18Zm-.23-.17l-.09.49.22-.77-.12.28Zm-.25-.2v.02l-.02.63.12-1.01-.1.36Zm-.24-.46l-.04.39v.02l.07.7-.03-1.11Zm-.15,1.15l-.19-1.06v-.03s.01.36.01.36v.06l.18.67Zm-.53-1v.07s.07.33.07.33h.01s.28.66.28.66l-.36-1.06Zm5.72-6.79l-2.62,4.86h-.01s-1.42,2.64-1.42,2.64v.02s-.13.24-.13.24l-.12.23.2-.3.03-.04.49-.74h.01s4.25-6.4,4.25-6.4l.08-.12c-.24-.13-.49-.26-.75-.38Zm-4.33,7.46h0s-.14.41-.14.41l.26-.59-.11.18Zm-.23-.17l-.09.49.22-.77-.12.28Zm-.25-.2v.02l-.02.63.12-1.01-.1.36Zm-.24-.46l-.04.39v.02l.07.7-.03-1.11Zm-.15,1.15l-.19-1.06v-.03s.01.36.01.36v.06l.18.67Zm-.53-1v.07s.07.33.07.33h.01s.28.66.28.66l-.36-1.06Zm5.72-6.79l-2.62,4.86h-.01s-1.42,2.64-1.42,2.64v.02s-.13.24-.13.24l-.12.23.2-.3.03-.04.49-.74h.01s4.25-6.4,4.25-6.4l.08-.12c-.24-.13-.49-.26-.75-.38Zm-4.33,7.46h0s-.14.41-.14.41l.26-.59-.11.18Zm-.23-.17l-.09.49.22-.77-.12.28Zm-.25-.2v.02l-.02.63.12-1.01-.1.36Zm-.21.65l-.03-1.11v-.02l-.04-1.69h0s-.15-6.1-.15-6.1c-.14,0-.28,0-.42.01-.1,0-.21.01-.32.01l.46,4.29v.05s.38,3.45.38,3.45h0s.05.39.05.39v.02l.07.7Zm5.01-7.75l-2.62,4.86h-.01s-1.42,2.64-1.42,2.64v.02s-.13.24-.13.24l-.12.23.2-.3.03-.04.49-.74h.01s4.25-6.4,4.25-6.4l.08-.12c-.24-.13-.49-.26-.75-.38Zm-2.65-.9c-.08-.03-.16-.05-.25-.06-.03-.01-.07-.01-.1-.02l-.87,4.59v.06s-.62,3.25-.62,3.25l-.07.38-.09.49.22-.77h0s.37-1.34.37-1.34l1.8-6.48c-.13-.04-.26-.07-.39-.09Zm-1.68,8.36h0s-.14.41-.14.41l.26-.59-.11.18Zm4.33-7.46l-2.62,4.86h-.01s-1.42,2.64-1.42,2.64v.02s-.13.24-.13.24l-.12.23.2-.3.03-.04.49-.74h.01s4.25-6.4,4.25-6.4l.08-.12c-.24-.13-.49-.26-.75-.38Zm-1.12-.45c-.13-.05-.26-.09-.38-.13l-1.68,4.78v.04s-1.03,2.9-1.03,2.9h0s-.11.33-.11.33h0s-.14.41-.14.41l.26-.59h.01s.52-1.13.52-1.13l.02-.03,2.92-6.44c-.12-.04-.25-.09-.37-.13Zm1.12.45l-2.62,4.86h-.01s-1.42,2.64-1.42,2.64v.02s-.13.24-.13.24l-.12.23.2-.3.03-.04.49-.74h.01s4.25-6.4,4.25-6.4l.08-.12c-.24-.13-.49-.26-.75-.38Zm0,0l-2.62,4.86h-.01s-1.42,2.64-1.42,2.64v.02s-.13.24-.13.24l-.12.23.2-.3.03-.04.49-.74h.01s4.25-6.4,4.25-6.4l.08-.12c-.24-.13-.49-.26-.75-.38Zm-6.08,7.57l-.02-.03-.38-.52.42.65h.01s.07.08.07.08v.02s.31.33.31.33l-.41-.54Zm.07,2.3l-.07.1.28-.26-.21.15Zm-.1-1.9l-.18-.18.28.31.22.16-.32-.3Zm.16,2.2h-.01s-.09.19-.09.19l.36-.46-.26.28Zm.23-3.37h0s-.46-1.4-.46-1.4v-.03s-2.08-6.17-2.08-6.17c-.13.02-.27.06-.4.09l1.65,4.76h0s1.24,2.82,1.24,2.82v.03s.13.3.13.3h.01s.28.66.28.66l-.36-1.06Zm-.07,3.61h-.01s-.07.24-.07.24l.33-.62-.25.38Zm-.12-3.19l-.02-.03.11.32h.01s.29.46.29.46l-.39-.75Zm.32,3.37l-.05.27.26-.72-.21.45Zm.22-3.85v-.03s-.28-1.55-.28-1.55h0s-1.08-6.23-1.08-6.23c-.14.01-.29.02-.42.05l.82,4.47v.05s.87,3.24.87,3.24v.02s.1.36.1.36l.18.67-.19-1.06Zm.03,3.98h0s-.01.28-.01.28l.14-.77-.13.49Zm.34-2.96l-.03-1.11v-.02l-.04-1.69h0s-.15-6.1-.15-6.1c-.14,0-.28,0-.42.01l.14,4.3v.05s.38,3.45.38,3.45h0s.05.39.05.39v.02l.07.7Zm-.08,3l.03.27.03-.76-.06.49Zm.32.19l-.07-.68v.45s.01.01.01.01l.06.22Zm.11-.71l.06.36.08.18-.14-.54Zm.16-.07l.06.19.06.09-.12-.28Zm.54-2.28l-.08.08h-.01s-.09.13-.09.13l.28-.29.02-.03-.11.1Zm-.21-9.01l-.47,4.18v.06l-.14,3.56h0s-.02.43-.02.43v.02l-.02.63.12-1.01h0s.21-1.66.21-1.66v-.06s.75-6.1.75-6.1c-.14-.02-.28-.04-.42-.05Zm1.52.24l-1.22,4.5v.06s-.62,3.25-.62,3.25l-.07.38-.09.49.22-.77h0s.37-1.34.37-1.34l1.8-6.48c-.13-.04-.26-.07-.39-.09Zm1.53.44l-2.06,4.65v.04s-1.03,2.9-1.03,2.9h0s-.11.33-.11.33h0s-.14.41-.14.41l.26-.59h.01s.52-1.13.52-1.13l.02-.03,2.92-6.44c-.12-.04-.25-.09-.37-.13Zm1.12.45l-2.62,4.86h-.01s-1.42,2.64-1.42,2.64v.02s-.13.24-.13.24l-.12.23.2-.3.03-.04.49-.74h.01s4.25-6.4,4.25-6.4l.08-.12c-.24-.13-.49-.26-.75-.38Z"/>
            </g>
            <path class="cls-37" d="m270.4,138.86s0,0,.01,0c-.02,0-.03-.01-.05-.02.01,0,.02.01.04.02Z"/>
            <path class="cls-32" d="m270.45,138.89h-.03s0-.02-.01-.02c.01,0,.03.01.04.02Z"/>
            <path class="cls-34" d="m293.33,125.83s-.03-.06-.04-.09l-.19-.4c-.09-.18-.17-.36-.26-.53.18.34.34.68.49,1.02Z"/>
            <path class="cls-33" d="m293.38,125.96s-.02-.04-.03-.06c0,.02.02.04.03.06Z"/>
            <path class="cls-35" d="m295.33,132.71s0,0,0,0c0,0,0,0,0,0Z"/>
            <path class="cls-36" d="m295.34,132.73s0-.01,0-.01c0,0,0,0,0,0,0,0,0,.01,0,.02Z"/>
            <path class="cls-8" d="m295.94,136.34c-.04-.42-.15-.99-.31-1.64-.08-.66-.18-1.31-.3-1.97,0,0,0,.02,0,.03.14.54.28,1.08.37,1.63.01.01.01.02.01.03,0,.01,0,.02,0,.04.08.63.15,1.26.21,1.89Z"/>
            <path class="cls-38" d="m297.88,136.28c-.04-.16-.07-.32-.11-.49-.61-2.72-1.41-5.95-2.87-8.61,0,0-.71-1.55-1.15-2.07.05.14-.51-.69-1.18-1.49,0,0,.01.02.02.02.02.02.04.05.06.07.02.01.04.03.05.05.23.24.44.48.66.74,1.5,1.86,2.61,4.06,3.28,6.35.28.93.51,1.88.71,2.82.1.46.27,1.01.4,1.55v.02s0,0,0,.01c-.18-6.06-2.82-15.69-11.09-19-.01,0-.03-.01-.04-.01-1.23-.47-2.58-.79-4.05-.96-5.89-.64-11.97,2.57-16.06,6.65-2.76,2.74-5.27,6.65-4.59,10.73.3,1.8,1.29,3.35,2.82,4.35.2.12.4.26.63.38.11.06.22.11.34.17.1.05.2.1.31.15,0,0,0,0,0,0,.02,0,.03.02.05.02.04.02.08.04.12.05,0,0,0,0,0,0,.12.05.23.1.35.15.03.01.05.02.08.04,0,0,0,0,0,0,.03.01.06.03.08.04.15.07.32.14.48.22.11.04.24.08.36.12.12.04.25.08.37.11.02,0,.04.01.06.02-1.23-.35-2.49-.92-3.32-1.45-.65-.41-1.2-.92-1.65-1.51-.62-.81-1.04-1.77-1.23-2.82-.72-4.07,1.73-8.01,4.46-10.79.35-.36.72-.72,1.11-1.06,3.99-3.61,9.5-6.3,14.87-5.78,4.67.45,8.06,2.6,10.46,5.46.07.08.14.16.2.25.09.11.17.21.25.32,3.51,4.55,4.73,10.65,4.73,14.69,0,.16,0,.31,0,.46Z"/>
            <path class="cls-6" d="m271.01,121.49c-.15.11-.31.22-.44.33.01-.01,0,0,0,0,.14-.11.3-.23.44-.33Z"/>
            <path class="cls-6" d="m285.42,119.02s-.02,0-.03-.01h0s.02,0,.03.01Z"/>
            <path class="cls-23" d="m296.04,136.72c-.03-.38-.08-.75-.12-1.13.05.38.09.75.12,1.13Z"/>
            <path class="cls-21" d="m266.04,137.73c-.08-.03-.16-.07-.24-.11-.02-.01-.04-.02-.07-.03.1.05.2.1.31.15Z"/>
            <path class="cls-22" d="m266.21,137.81s-.08-.04-.12-.05c.04.02.08.04.12.05Z"/>
            <path class="cls-26" d="m270.4,138.86s0,0,.01,0c-.02,0-.03-.01-.05-.02.01,0,.02.01.04.02Z"/>
            <path class="cls-24" d="m270.59,138.95s-.02,0-.03-.01c0,0,.02,0,.03.01Z"/>
            <path class="cls-25" d="m270.26,138.8s-.02-.01-.04-.02c.02,0,.02,0,.04.02Z"/>
            <path class="cls-19" d="m285.42,119.02s-.02,0-.03-.01h0s.02,0,.03.01Z"/>
            <path class="cls-20" d="m293.36,125.89s-.02-.05-.03-.07c0,.01.01.02.02.04,0,.01,0,.02.01.03Z"/>
            <path class="cls-30" d="m295.34,132.73s0-.01,0-.01c0,0,0,0,0,0,0,0,0,.01,0,.02Z"/>
            <path class="cls-31" d="m295.91,135.6c-.04-.38-.1-.75-.18-1.12,0,0,0-.02,0-.03-.32-2.35-.85-4.67-1.71-6.88-.21-.55-.42-1.09-.64-1.61.01.03.03.06.04.09.02.04.04.09.06.14.26.58.51,1.15.73,1.73.92,2.46,1.42,5.06,1.69,7.68Z"/>
            <path class="cls-29" d="m297.96,136.58c0-.24-.03-.5-.08-.76,0,0,0,0,0-.01-.03-.17-.07-.35-.12-.53-.18-6.06-2.82-15.69-11.09-19,0,0,0,0,0,0,.32.12.63.26.93.4,1.77.81,3.27,1.95,4.52,3.26.14.14.28.3.41.45.05.06.1.12.15.18.07.08.14.16.2.25.07.09.15.19.22.28.01.01.02.03.03.04,3.78,4.77,4.94,11.33,4.81,15.45Z"/>
            <path class="cls-28" d="m297.97,136.57c0-.43-.09-.89-.21-1.32-1-4.46-2.22-9.03-5.76-12.18.02.06.04.12.07.18,2.16,4.07,3.43,7.72,3.84,12.35-.05-.41-.11-.82-.2-1.22-.79-4.03-2.62-7.87-5.07-11.15-.25-.35-.57-.65-.87-.96-.46-.46-1.46-1.37-1.48-1.39,0,0-.18-.15-.29-.24,0,0-.01,0-.01-.01-.42-.32-.91-.62-1.36-.9-.3-.17-.61-.31-.92-.47-.01,0-.02,0-.03-.01-.06-.03-.12-.05-.18-.08-.14-.05-.28-.12-.41-.18-.17-.06-.34-.13-.52-.18-.12-.05-.25-.1-.38-.12-.85-.28-1.75-.42-2.64-.52-.77-.05-1.56-.05-2.33.02-.94.09-1.87.27-2.78.54h0c-2.14.61-4.13,1.72-5.89,3.08l-.02.02s-.45.37-.67.56c-.01,0-.01.01-.02.01-6.75,5.84-9.71,12.28.42,16.41h.01c.07.02.13.06.2.09t.02.01c.05.01.09.03.14.06.07.03.14.06.22.09l-.65-.06h-.01c-1.25-.18-2.5-.52-3.64-1.05-7.62-2.85-4.77-11.78-.04-16.01,15-14.39,31.7-3.96,31.44,14.63Z"/>
          </g>
        </g>
      </g>
    </g>
    <g>
      <path class="cls-1" d="m162.14,91.24l-7.38-3.58-1.05,2.17,4.14,2.01c.7.34.75.36.93.6.32.41.38.94.15,1.4-.27.57-.71.67-1.38.35l-4.82-2.34-1.03,2.11,4.82,2.34c1.08.52,1.54.63,2.16.54.67-.09,1.17-.52,1.56-1.31.54-1.11.41-2.04-.34-2.88l1.26.61.98-2.02Z"/>
      <path class="cls-1" d="m188.81,58.51l-2.76-3.61c-.45-.6-.59-.83-.65-1.16-.09-.39.08-.82.45-1.1.33-.25.7-.32.99-.19.28.12.46.3,1.04,1.05l2.75,3.61,1.92-1.46-2.76-3.61c-.41-.54-.61-.88-.66-1.17-.08-.38.11-.82.46-1.09.37-.28.74-.33,1.03-.16.23.14.35.26.95,1.05l2.76,3.61,1.92-1.46-3.24-4.23c-.83-1.1-1.24-1.41-1.92-1.5-.6-.08-1.31.14-1.89.59-.9.68-1.22,1.47-1.03,2.56-1.04-.48-1.8-.4-2.66.26-.92.7-1.25,1.58-.98,2.52l-.75-.99-1.81,1.39,4.98,6.51,1.86-1.42Z"/>
      <path class="cls-1" d="m179.51,65.62c1.12.11,2.04-.23,2.92-1.09,1.69-1.63,1.66-4-.08-5.81-1.81-1.86-4.12-1.99-5.84-.32-1.67,1.6-1.61,3.91.13,5.72.91.93,1.79,1.39,2.87,1.5Zm-1.86-6.13c.71-.68,1.51-.4,2.9,1.04,1.26,1.3,1.5,2.18.82,2.84-.71.68-1.58.35-3-1.12-1.21-1.25-1.42-2.07-.72-2.75Z"/>
      <path class="cls-1" d="m278.8,32.41c.18-.73.27-.98.49-1.24.25-.31.69-.44,1.14-.33.41.1.69.34.77.65.08.29.05.54-.17,1.46l-1.08,4.41,2.34.58,1.08-4.41c.16-.67.3-1.03.49-1.25.25-.3.71-.43,1.14-.32.46.11.72.36.77.7.04.26.02.43-.22,1.4l-1.08,4.41,2.35.57,1.26-5.17c.33-1.34.32-1.85-.04-2.44-.31-.52-.93-.93-1.64-1.1-1.1-.27-1.92-.03-2.65.81-.28-1.12-.81-1.66-1.86-1.91-1.13-.28-2.03.01-2.58.82l.29-1.21-2.21-.54-1.95,7.96,2.28.56,1.08-4.41Z"/>
      <path class="cls-1" d="m145.47,101.67l9.2,7.14.78-2.14-1.9-1.44,1.23-3.36,2.38.15.96-2.63-11.62-.55-1.03,2.83Zm7.18.06l-.81,2.22-3.25-2.45,4.06.23Z"/>
      <path class="cls-1" d="m156.04,85.17l1.62.96.66-1.12,3.29,1.94c1.69,1,2.69.72,3.71-1.01.2-.35.23-.43.63-1.43l-1.55-.91c-.16.33-.24.47-.36.68-.48.81-.72.88-1.52.41l-2.98-1.76.9-1.51-1.62-.96-.9,1.52-2.23-1.32-.92,1.88,1.99,1.4-.72,1.23Z"/>
      <path class="cls-1" d="m163.55,80.58c1.06.75,2.02,1.03,3.1.94,1.12-.11,1.96-.62,2.67-1.62,1.34-1.92.87-4.25-1.19-5.69-2.12-1.5-4.42-1.18-5.79.78-1.33,1.89-.84,4.15,1.21,5.59Zm.12-4.74c.56-.8,1.41-.67,3.04.47,1.48,1.04,1.89,1.86,1.34,2.63-.56.8-1.49.64-3.16-.53-1.43-1-1.79-1.77-1.22-2.57Z"/>
      <path class="cls-1" d="m174.68,72.58l-3.51-3c-.92-.79-1.13-1.56-.59-2.19.27-.32.63-.43.98-.32.3.08.46.2,1.12.76l3.5,2.99,1.57-1.83-4-3.42c-.88-.75-1.49-1.06-2.11-1.08-.66-.02-1.33.33-1.87.96-.75.87-.84,1.51-.38,2.82l-1.05-.89-1.46,1.7,6.23,5.33,1.57-1.83Z"/>
      <path class="cls-1" d="m241.73,36.51c-.4.05-.65.06-1.18.04l.21,1.85c.54,0,.79-.01,1.16-.05,1.08-.13,1.71-.48,2.11-1.2.34-.57.39-.8.72-2.34l1.64-8.11-1.75.2-.94,5.03-2.11-4.68-2.57.3,3.92,7.8c-.14.82-.4,1.07-1.21,1.16Z"/>
      <path class="cls-1" d="m252.39,33.25c-1.01.04-1.61-.31-1.83-1.04l-2.04.35c.19.68.4,1.02.85,1.42.73.66,1.61.93,2.94.89,2.28-.07,3.65-1.22,3.6-2.96-.03-.92-.44-1.65-1.11-2.01-.51-.29-1.1-.4-2.52-.55-1.08-.1-1.39-.26-1.4-.72-.02-.45.44-.75,1.19-.77.86-.03,1.37.3,1.63,1.06l1.74-.54c-.64-1.51-1.59-2.1-3.32-2.04-2.11.07-3.44,1.16-3.39,2.81.03.93.54,1.71,1.35,2.08.4.17,1.59.42,2.79.53.66.08.93.25.94.63.02.48-.55.84-1.42.86Z"/>
      <path class="cls-1" d="m259.16,32.11c-.09,1.96.63,2.71,2.64,2.8.4.02.48,0,1.55-.12l.08-1.79c-.37.02-.53.01-.76,0-.95-.04-1.13-.22-1.09-1.15l.15-3.45,1.77.07.08-1.87-1.76-.08.11-2.59-2.08.07-.31,2.42-1.43-.06-.08,1.87,1.29.06-.16,3.82Z"/>
      <path class="cls-1" d="m269.22,35.63c1.19.14,2.11-.09,2.91-.77.51-.42.77-.77,1.15-1.6l-2.16-.41c-.26.8-.81,1.18-1.61,1.09-.94-.12-1.48-.89-1.35-1.95.01-.06.03-.24.07-.37l5.23.64c.16-1.43.08-2.13-.3-3-.48-1.13-1.62-1.94-2.97-2.11-2.33-.29-4.15,1.28-4.47,3.82-.3,2.49,1.09,4.36,3.5,4.66Zm.89-6.9c.87.11,1.21.65,1.16,1.84l-2.87-.36c.26-1.12.8-1.59,1.71-1.48Z"/>
      <path class="cls-1" d="m198.74,50.04c1.07.35,2.04.24,3.1-.39,2.02-1.2,2.53-3.52,1.25-5.68-1.33-2.23-3.56-2.88-5.62-1.65-1.98,1.18-2.46,3.44-1.17,5.59.66,1.12,1.42,1.77,2.44,2.13Zm-.4-6.4c.84-.5,1.56-.04,2.58,1.67.93,1.56.96,2.46.15,2.95-.84.5-1.62-.02-2.67-1.78-.89-1.5-.91-2.34-.07-2.84Z"/>
      <path class="cls-1" d="m230.34,32.32c.69.25,1.43.33,2.69.32,1.51,0,2.01.2,2.14.85.15.7-.43,1.28-1.5,1.5-1.21.25-1.99-.08-2.51-1.06l-2.24,1.03c.53.99.94,1.42,1.74,1.81.94.45,2.03.55,3.3.28,1.14-.23,2.12-.69,2.72-1.29.85-.84,1.23-2.09,1-3.23-.22-1.04-.9-1.85-1.94-2.28-.63-.26-1.34-.34-3.04-.34-1.22.02-1.67-.18-1.8-.82-.13-.6.34-1.07,1.28-1.26,1.03-.22,1.56-.01,2.16.89l2-1.16c-.53-.81-.91-1.17-1.57-1.48-.85-.4-1.85-.48-3.02-.24-1.22.26-2.06.74-2.65,1.54-.6.8-.8,1.73-.59,2.74.22,1.07.88,1.87,1.83,2.2Z"/>
      <path class="cls-1" d="m207.59,45.42c.59.34,1.25.33,2.04-.05,1.12-.53,1.6-1.33,1.54-2.46l.6,1.27,2.03-.96-3.5-7.42-2.18,1.03,1.97,4.17c.33.71.35.75.35,1.05-.02.52-.3.97-.77,1.19-.57.27-.97.07-1.29-.6l-2.29-4.85-2.12,1.01,2.29,4.84c.51,1.08.8,1.46,1.33,1.78Z"/>
      <path class="cls-1" d="m216.17,38.43c.43.04,1.64-.1,2.82-.37.64-.13.95-.05,1.08.31.17.45-.26.96-1.07,1.26-.96.35-1.63.2-2.07-.41l-1.82.97c.39.58.7.84,1.24,1.08.91.39,1.83.38,3.07-.08,2.14-.78,3.09-2.3,2.49-3.94-.31-.86-.93-1.43-1.68-1.56-.58-.11-1.17-.04-2.56.26-1.06.25-1.4.2-1.56-.24-.16-.42.18-.85.89-1.1.81-.3,1.4-.15,1.88.49l1.49-1.06c-1.09-1.23-2.18-1.49-3.8-.89-1.98.73-2.9,2.18-2.34,3.72.32.88,1.05,1.46,1.94,1.56Z"/>
      <path class="cls-1" d="m355.67,93.9c2.3-1.18,3.09-3.36,2-5.49-1.05-2.06-3.28-2.68-5.51-1.53-1.16.59-1.86,1.3-2.28,2.3-.42,1.04-.36,2.02.2,3.12,1.07,2.09,3.35,2.75,5.59,1.6Zm-4.16-2.28c-.45-.87.13-1.61,1.95-2.55,1.55-.8,2.39-.76,2.84.11s-.06,1.56-1.83,2.47c-1.61.83-2.52.81-2.95-.04Z"/>
      <path class="cls-1" d="m347.41,82.26c-1.67,1.03-1.89,2.05-.83,3.76.21.34.27.4.97,1.22l1.53-.95c-.22-.29-.31-.43-.43-.63-.5-.81-.46-1.05.34-1.54l2.94-1.82.92,1.5,1.6-.99-.92-1.5,2.2-1.36-1.23-1.68-2.17,1.1-.75-1.21-1.6.99.68,1.1-3.25,2.01Z"/>
      <path class="cls-1" d="m330.02,65.08c1.68,1.64,4.05,1.55,5.81-.25,1.82-1.85,1.88-4.17.17-5.84-1.65-1.62-3.95-1.51-5.71.29-.91.92-1.35,1.82-1.43,2.9-.08,1.12.28,2.03,1.16,2.9Zm2.19-4.13c1.22-1.25,2.03-1.48,2.73-.79.7.69.44,1.5-.96,2.93-1.27,1.29-2.14,1.56-2.82.9-.7-.69-.39-1.57,1.04-3.03Z"/>
      <path class="cls-1" d="m336.27,71.47l2.52-2.19c1.32-1.15,2.39-1.26,3.2-.33.02.02.09.1.14.18l1.81-1.57c-.1-.13-.2-.27-.26-.34-.57-.66-1.35-.73-2.46-.23l1.15-1-1.45-1.67-6.19,5.38,1.54,1.77Z"/>
      <path class="cls-1" d="m344.95,73.26c.69-.38,1.32-.23,1.79.42.49.65.4,1.21-.24,1.68l-.37.28c-1.22-1.4-1.78-1.94-2.35-2.32-1.06-.69-2.15-.69-3.08,0-1.13.82-1.25,2.17-.32,3.43.7.95,1.38,1.26,2.72,1.26-.09.05-.17.11-.18.12-.35.25-.42.32-.79.72l1.39,1.89q.35-.45,1.14-1.03l2.99-2.2c.98-.72,1.27-1.05,1.42-1.6.21-.81-.13-1.91-.91-2.98-.71-.97-1.54-1.62-2.41-1.87-.63-.18-1.14-.11-1.94.28l1.14,1.92Zm-.39,3.53c-.83.61-1.86.56-2.37-.13-.37-.5-.26-1.09.23-1.45.48-.36,1.03-.31,1.65.13.37.25.58.46,1.1,1.01l-.6.44Z"/>
      <path class="cls-1" d="m353.95,100.43l3.09-1.28c1.61-.67,2.66-.44,3.13.7.02.03.06.12.08.22l2.21-.91c-.05-.16-.09-.32-.13-.42-.33-.79-1.06-1.11-2.27-.98l1.42-.59-.85-2.04-7.58,3.14.9,2.16Z"/>
      <path class="cls-1" d="m364.98,106.89l-5.12.08,4.16-3-.8-2.45-6.86,5.39c-.84.02-1.13-.18-1.38-.95-.13-.38-.19-.62-.27-1.16l-1.77.58c.1.53.16.77.28,1.14.33,1.02.81,1.57,1.59,1.82.63.21.86.23,2.44.24h8.27s-.54-1.69-.54-1.69Z"/>
      <path class="cls-1" d="m320.92,56.83c.06-.03.16-.1.35-.22.44-.29.52-.33.86-.43-.15,1.3.06,1.9.94,2.61,1.62,1.31,3.58.85,5.29-1.26,1.63-2.01,1.74-4.02.28-5.21-.74-.59-1.37-.68-2.33-.34l2.47-3.05-1.87-1.52-6.99,8.61,1,.81Zm2.92-1.8l1-1.23c.74-.92,1.59-1.19,2.21-.69.4.33.54.89.36,1.38-.16.38-.48.88-.99,1.51-.48.59-.89.99-1.28,1.21-.47.29-1.03.26-1.41-.05-.59-.48-.56-1.29.12-2.13Z"/>
      <polygon class="cls-1" points="310.47 47.09 306.58 45.01 310.79 37.16 308.47 35.92 303.23 45.7 309.43 49.02 310.47 47.09"/>
      <path class="cls-1" d="m313.21,51.63c.98.65,1.73.71,2.99.25-.07.07-.12.16-.13.17-.24.36-.28.45-.5.95l1.96,1.3q.18-.54.72-1.36l2.05-3.09c.67-1.01.83-1.42.79-1.99-.09-.84-.78-1.75-1.88-2.49-1-.66-2-.99-2.9-.93-.65.05-1.11.29-1.74.93l1.74,1.41c.52-.59,1.16-.66,1.83-.22.68.45.79,1,.35,1.67l-.26.38c-1.62-.89-2.33-1.2-3-1.37-1.24-.28-2.25.08-2.9,1.05-.77,1.17-.42,2.48.88,3.34Zm1.39-2.15c.33-.5.87-.64,1.59-.44.43.11.71.23,1.38.57l-.41.62c-.57.86-1.55,1.17-2.27.69-.51-.34-.62-.93-.28-1.44Z"/>
      <path class="cls-1" d="m292.21,41.2c2.14.78,3.85.24,4.45-1.4.31-.86.21-1.69-.28-2.28-.36-.45-.86-.78-2.12-1.45-.97-.5-1.2-.76-1.03-1.2.15-.42.69-.52,1.39-.27.81.3,1.16.8,1.11,1.6l1.82.16c-.03-1.65-.69-2.54-2.32-3.14-1.98-.73-3.62-.22-4.19,1.33-.32.87-.14,1.79.47,2.44.31.31,1.32.98,2.39,1.53.58.32.77.58.63.94-.16.46-.82.57-1.64.27-.95-.35-1.37-.89-1.3-1.65l-2.02-.44c-.08.7-.01,1.09.25,1.63.44.89,1.15,1.47,2.39,1.93Z"/>
      <path class="cls-1" d="m255.94,47.58c-45.36,0-83.26,31.96-92.4,74.59-1.28,5.93-2,12.08-2.1,18.37,0,.51,0,1.03,0,1.55,0,.94,0,1.88.04,2.82.68,23.3,9.8,44.49,24.41,60.61,2.68,2.96,5.55,5.74,8.58,8.34,16.52,14.17,38,22.73,61.48,22.73,27.78,0,52.76-11.99,70.05-31.07,15.19-16.77,24.45-39.01,24.45-63.43,0-52.2-42.31-94.51-94.5-94.51Z"/>
      <path class="cls-5" d="m270.11,28.73c-.91-.11-1.45.36-1.71,1.48l2.87.36c.05-1.18-.29-1.73-1.16-1.84Z"/>
      <path class="cls-5" d="m164.89,78.41c1.67,1.18,2.6,1.34,3.16.53.54-.78.14-1.59-1.34-2.63-1.63-1.15-2.48-1.27-3.04-.47-.56.8-.2,1.56,1.22,2.57Z"/>
      <path class="cls-5" d="m201.08,48.26c.81-.49.78-1.39-.15-2.95-1.02-1.71-1.74-2.18-2.58-1.67-.84.5-.83,1.34.07,2.84,1.05,1.76,1.82,2.28,2.67,1.78Z"/>
      <path class="cls-5" d="m181.38,63.36c.68-.66.44-1.53-.82-2.84-1.39-1.43-2.19-1.72-2.9-1.04-.71.68-.5,1.5.72,2.75,1.42,1.47,2.3,1.8,3,1.12Z"/>
      <polygon class="cls-5" points="152.66 101.73 148.6 101.5 151.85 103.95 152.66 101.73"/>
      <path class="cls-5" d="m344.07,75.34c-.61-.44-1.16-.49-1.65-.13-.5.36-.6.96-.23,1.45.51.7,1.54.75,2.37.13l.6-.44c-.51-.55-.73-.76-1.1-1.01Z"/>
      <path class="cls-5" d="m314.88,50.92c.72.48,1.7.17,2.27-.69l.41-.62c-.67-.35-.95-.47-1.38-.57-.72-.2-1.26-.06-1.59.44-.34.51-.23,1.1.28,1.44Z"/>
      <path class="cls-5" d="m275.87,248.81c-1.16.22-1.85,1.22-1.63,2.37.21,1.12,1.22,1.79,2.37,1.57,1.16-.22,1.91-1.26,1.7-2.35-.22-1.15-1.23-1.82-2.44-1.59Z"/>
      <path class="cls-5" d="m285.8,246.45c-1.14.33-1.73,1.39-1.4,2.51.32,1.09,1.38,1.66,2.51,1.34,1.14-.33,1.78-1.44,1.47-2.5-.33-1.12-1.39-1.69-2.58-1.35Z"/>
      <path class="cls-5" d="m255.52,13.46c-26.02,0-50.22,7.74-70.45,21.04-20.69,13.61-37.21,33.05-47.24,55.98-3.35,7.67-5.98,15.74-7.79,24.12-1.9,8.78-2.89,17.89-2.89,27.24v.89c.16,24.58,7.23,47.51,19.36,66.96,7.79,12.49,17.68,23.54,29.15,32.67,1.72,1.37,3.48,2.7,5.27,3.97,21.02,15.04,46.77,23.88,74.58,23.88s54.6-9.21,75.85-24.8c31.85-23.35,52.53-61.04,52.53-103.57,0-70.89-57.48-128.38-128.37-128.38Zm105.96,83.71l-1.42.59c1.21-.13,1.94.19,2.27.98.04.1.08.26.13.42l-2.21.91c-.02-.1-.06-.19-.08-.22-.47-1.14-1.52-1.37-3.13-.7l-3.09,1.28-.9-2.16,7.58-3.14.85,2.04Zm-9.9-19.01l.75,1.21,2.17-1.1,1.23,1.68-2.2,1.36.92,1.5-1.6.99-.92-1.5-2.94,1.82c-.8.49-.84.73-.34,1.54.12.2.21.34.43.63l-1.53.95c-.7-.82-.76-.88-.97-1.22-1.06-1.71-.84-2.73.83-3.76l3.25-2.01-.68-1.1,1.6-.99Zm-5.83-7.1c.87.25,1.7.9,2.41,1.87.78,1.07,1.12,2.17.91,2.98-.15.55-.44.88-1.42,1.6l-2.99,2.2q-.79.58-1.14,1.03l-1.39-1.89c.37-.4.44-.47.79-.72.01-.01.09-.07.18-.12-1.34,0-2.02-.31-2.72-1.26-.93-1.26-.81-2.61.32-3.43.93-.69,2.02-.69,3.08,0,.57.38,1.13.92,2.35,2.32l.37-.28c.64-.47.73-1.03.24-1.68-.47-.65-1.1-.8-1.79-.42l-1.14-1.92c.8-.39,1.31-.46,1.94-.28Zm-3.38-5.07l-1.15,1c1.11-.5,1.89-.43,2.46.23.06.07.16.21.26.34l-1.81,1.57c-.05-.08-.12-.16-.14-.18-.81-.93-1.88-.82-3.2.33l-2.52,2.19-1.54-1.77,6.19-5.38,1.45,1.67Zm-6.37-7c1.71,1.67,1.65,3.99-.17,5.84-1.76,1.8-4.13,1.89-5.81.25-.88-.87-1.24-1.78-1.16-2.9.08-1.08.52-1.98,1.43-2.9,1.76-1.8,4.06-1.91,5.71-.29Zm-7.22-10.06l-2.47,3.05c.96-.34,1.59-.25,2.33.34,1.46,1.19,1.35,3.2-.28,5.21-1.71,2.11-3.67,2.57-5.29,1.26-.88-.71-1.09-1.31-.94-2.61-.34.1-.42.14-.86.43-.19.12-.29.19-.35.22l-1-.81,6.99-8.61,1.87,1.52Zm-16.45-.64c.65-.97,1.66-1.33,2.9-1.05.67.17,1.38.48,3,1.37l.26-.38c.44-.67.33-1.22-.35-1.67-.67-.44-1.31-.37-1.83.22l-1.74-1.41c.63-.64,1.09-.88,1.74-.93.9-.06,1.9.27,2.9.93,1.1.74,1.79,1.65,1.88,2.49.04.57-.12.98-.79,1.99l-2.05,3.09q-.54.82-.72,1.36l-1.96-1.3c.22-.5.26-.59.5-.95.01-.01.06-.1.13-.17-1.26.46-2.01.4-2.99-.25-1.3-.86-1.65-2.17-.88-3.34Zm-3.86-12.37l2.32,1.24-4.21,7.85,3.89,2.08-1.04,1.93-6.2-3.32,5.24-9.78Zm-18.9,1.72l2.02.44c-.07.76.35,1.3,1.3,1.65.82.3,1.48.19,1.64-.27.14-.36-.05-.62-.63-.94-1.07-.55-2.08-1.22-2.39-1.53-.61-.65-.79-1.57-.47-2.44.57-1.55,2.21-2.06,4.19-1.33,1.63.6,2.29,1.49,2.32,3.14l-1.82-.16c.05-.8-.3-1.3-1.11-1.6-.7-.25-1.24-.15-1.39.27-.17.44.06.7,1.03,1.2,1.26.67,1.76,1,2.12,1.45.49.59.59,1.42.28,2.28-.6,1.64-2.31,2.18-4.45,1.4-1.24-.46-1.95-1.04-2.39-1.93-.26-.54-.33-.93-.25-1.63Zm-12.18-9.34l2.21.54-.29,1.21c.55-.81,1.45-1.1,2.58-.82,1.05.25,1.58.79,1.86,1.91.73-.84,1.55-1.08,2.65-.81.71.17,1.33.58,1.64,1.1.36.59.37,1.1.04,2.44l-1.26,5.17-2.35-.57,1.08-4.41c.24-.97.26-1.14.22-1.4-.05-.34-.31-.59-.77-.7-.43-.11-.89.02-1.14.32-.19.22-.33.58-.49,1.25l-1.08,4.41-2.34-.58,1.08-4.41c.22-.92.25-1.17.17-1.46-.08-.31-.36-.55-.77-.65-.45-.11-.89.02-1.14.33-.22.26-.31.51-.49,1.24l-1.08,4.41-2.28-.56,1.95-7.96Zm-11.67,2.67c.32-2.54,2.14-4.11,4.47-3.82,1.35.17,2.49.98,2.97,2.11.38.87.46,1.57.3,3l-5.23-.64c-.04.13-.06.31-.07.37-.13,1.06.41,1.83,1.35,1.95.8.09,1.35-.29,1.61-1.09l2.16.41c-.38.83-.64,1.18-1.15,1.6-.8.68-1.72.91-2.91.77-2.41-.3-3.8-2.17-3.5-4.66Zm-7.61-4.61l1.43.06.31-2.42,2.08-.07-.11,2.59,1.76.08-.08,1.87-1.77-.07-.15,3.45c-.04.93.14,1.11,1.09,1.15.23.01.39.02.76,0l-.08,1.79c-1.07.12-1.15.14-1.55.12-2.01-.09-2.73-.84-2.64-2.8l.16-3.82-1.29-.06.08-1.87Zm-5.24,5.4c-1.2-.11-2.39-.36-2.79-.53-.81-.37-1.32-1.15-1.35-2.08-.05-1.65,1.28-2.74,3.39-2.81,1.73-.06,2.68.53,3.32,2.04l-1.74.54c-.26-.76-.77-1.09-1.63-1.06-.75.02-1.21.32-1.19.77.01.46.32.62,1.4.72,1.42.15,2.01.26,2.52.55.67.36,1.08,1.09,1.11,2.01.05,1.74-1.32,2.89-3.6,2.96-1.33.04-2.21-.23-2.94-.89-.45-.4-.66-.74-.85-1.42l2.04-.35c.22.73.82,1.08,1.83,1.04.87-.02,1.44-.38,1.42-.86-.01-.38-.28-.55-.94-.63Zm-11.28-4.51l2.11,4.68.94-5.03,1.75-.2-1.64,8.11c-.33,1.54-.38,1.77-.72,2.34-.4.72-1.03,1.07-2.11,1.2-.37.04-.62.05-1.16.05l-.21-1.85c.53.02.78.01,1.18-.04.81-.09,1.07-.34,1.21-1.16l-3.92-7.8,2.57-.3Zm-12.49.13c.59-.8,1.43-1.28,2.65-1.54,1.17-.24,2.17-.16,3.02.24.66.31,1.04.67,1.57,1.48l-2,1.16c-.6-.9-1.13-1.11-2.16-.89-.94.19-1.41.66-1.28,1.26.13.64.58.84,1.8.82,1.7,0,2.41.08,3.04.34,1.04.43,1.72,1.24,1.94,2.28.23,1.14-.15,2.39-1,3.23-.6.6-1.58,1.06-2.72,1.29-1.27.27-2.36.17-3.3-.28-.8-.39-1.21-.82-1.74-1.81l2.24-1.03c.52.98,1.3,1.31,2.51,1.06,1.07-.22,1.65-.8,1.5-1.5-.13-.65-.63-.85-2.14-.85-1.26.01-2-.07-2.69-.32-.95-.33-1.61-1.13-1.83-2.2-.21-1.01-.01-1.94.59-2.74Zm-12.53,5.77c1.62-.6,2.71-.34,3.8.89l-1.49,1.06c-.48-.64-1.07-.79-1.88-.49-.71.25-1.05.68-.89,1.1.16.44.5.49,1.56.24,1.39-.3,1.98-.37,2.56-.26.75.13,1.37.7,1.68,1.56.6,1.64-.35,3.16-2.49,3.94-1.24.46-2.16.47-3.07.08-.54-.24-.85-.5-1.24-1.08l1.82-.97c.44.61,1.11.76,2.07.41.81-.3,1.24-.81,1.07-1.26-.13-.36-.44-.44-1.08-.31-1.18.27-2.39.41-2.82.37-.89-.1-1.62-.68-1.94-1.56-.56-1.54.36-2.99,2.34-3.72Zm-10.48,4.64l2.29,4.85c.32.67.72.87,1.29.6.47-.22.75-.67.77-1.19,0-.3-.02-.34-.35-1.05l-1.97-4.17,2.18-1.03,3.5,7.42-2.03.96-.6-1.27c.06,1.13-.42,1.93-1.54,2.46-.79.38-1.45.39-2.04.05-.53-.32-.82-.7-1.33-1.78l-2.29-4.84,2.12-1.01Zm-8.62,4.53c2.06-1.23,4.29-.58,5.62,1.65,1.28,2.16.77,4.48-1.25,5.68-1.06.63-2.03.74-3.1.39-1.02-.36-1.78-1.01-2.44-2.13-1.29-2.15-.81-4.41,1.17-5.59Zm-13.69,9.71l.75.99c-.27-.94.06-1.82.98-2.52.86-.66,1.62-.74,2.66-.26-.19-1.09.13-1.88,1.03-2.56.58-.45,1.29-.67,1.89-.59.68.09,1.09.4,1.92,1.5l3.24,4.23-1.92,1.46-2.76-3.61c-.6-.79-.72-.91-.95-1.05-.29-.17-.66-.12-1.03.16-.35.27-.54.71-.46,1.09.05.29.25.63.66,1.17l2.76,3.61-1.92,1.46-2.75-3.61c-.58-.75-.76-.93-1.04-1.05-.29-.13-.66-.06-.99.19-.37.28-.54.71-.45,1.1.06.33.2.56.65,1.16l2.76,3.61-1.86,1.42-4.98-6.51,1.81-1.39Zm-7.27,6.37c1.72-1.67,4.03-1.54,5.84.32,1.74,1.81,1.77,4.18.08,5.81-.88.86-1.8,1.2-2.92,1.09-1.08-.11-1.96-.57-2.87-1.5-1.74-1.81-1.8-4.12-.13-5.72Zm-8.17,8.98l1.05.89c-.46-1.31-.37-1.95.38-2.82.54-.63,1.21-.98,1.87-.96.62.02,1.23.33,2.11,1.08l4,3.42-1.57,1.83-3.5-2.99c-.66-.56-.82-.68-1.12-.76-.35-.11-.71,0-.98.32-.54.63-.33,1.4.59,2.19l3.51,3-1.57,1.83-6.23-5.33,1.46-1.7Zm-6,7.61c1.37-1.96,3.67-2.28,5.79-.78,2.06,1.44,2.53,3.77,1.19,5.69-.71,1-1.55,1.51-2.67,1.62-1.08.09-2.04-.19-3.1-.94-2.05-1.44-2.54-3.7-1.21-5.59Zm-6.65,5.67l2.23,1.32.9-1.52,1.62.96-.9,1.51,2.98,1.76c.8.47,1.04.4,1.52-.41.12-.21.2-.35.36-.68l1.55.91c-.4,1-.43,1.08-.63,1.43-1.02,1.73-2.02,2.01-3.71,1.01l-3.29-1.94-.66,1.12-1.62-.96.72-1.23-1.99-1.4.92-1.88Zm1.47,21.36l-2.38-.15-1.23,3.36,1.9,1.44-.78,2.14-9.2-7.14,1.03-2.83,11.62.55-.96,2.63Zm3.08-6.49c-.39.79-.89,1.22-1.56,1.31-.62.09-1.08-.02-2.16-.54l-4.82-2.34,1.03-2.11,4.82,2.34c.67.32,1.11.22,1.38-.35.23-.46.17-.99-.15-1.4-.18-.24-.23-.26-.93-.6l-4.14-2.01,1.05-2.17,7.38,3.58-.98,2.02-1.26-.61c.75.84.88,1.77.34,2.88Zm58.17,149.66l-1.86-.26c.03-.86-.42-1.46-1.42-1.85-1.03-.41-1.88-.2-2.18.55-.23.58.06,1.14.9,1.75l1.53,1.09c.96.71,1.46,1.32,1.61,2.05.13.58.08,1.18-.16,1.79-.75,1.89-2.79,2.49-5.19,1.54-1.23-.49-2.14-1.21-2.67-2.15-.33-.6-.42-1.1-.36-2l1.87.31c-.05.56,0,.84.19,1.18.28.51.88.95,1.65,1.26,1.2.48,2.17.25,2.52-.62.24-.59-.01-1.14-.75-1.69l-1.71-1.25c-.9-.67-1.3-1.14-1.47-1.75-.19-.64-.15-1.3.1-1.94.7-1.77,2.57-2.4,4.68-1.56,1.07.42,1.9,1.1,2.39,1.95.29.53.39.93.32,1.61Zm2.23,9.67l-1.83-.58,3.23-10.17,1.83.58-3.23,10.17Zm11.65,3.01l-1.71-.4-2.49-7.59c-.03-.09-.07-.31-.15-.63-.01-.09-.08-.35-.15-.63l-1.82,7.76-1.51-.35,2.44-10.39,2.07.49,2.19,6.98s.1.35.18.65c.07.28.12.49.19.75l1.73-7.37,1.48.35-2.44,10.39Zm8.09-.22c1.09.15,2.05-.65,2.39-1.96l1.73.44c-.33,1.12-.64,1.66-1.35,2.26-.87.74-1.86,1.01-3.13.84-1.28-.17-2.19-.73-2.77-1.71-.7-1.16-.96-2.64-.73-4.31.44-3.3,2.4-5.21,5.02-4.87,2.16.29,3.36,1.79,3.43,4.26l-1.78-.04c-.09-.9-.18-1.28-.43-1.74-.27-.5-.8-.87-1.41-.95-1.44-.19-2.44,1.1-2.76,3.55-.33,2.47.34,4.01,1.8,4.21Zm14.27-6.6l-4.94-.21-.12,2.89,3.97.17-.06,1.55-3.97-.17-.13,2.99,5.01.21-.07,1.65-6.92-.29.45-10.67,6.86.29-.07,1.58Zm8.55,8.84l-.15-1.56,3.2-.3-.64-6.72c-.98,1.06-1.86,1.77-2.72,2.2l-.18-1.93c1.31-.64,1.61-.83,2.18-1.41.64-.67.93-1.04,1.13-1.47l1.27-.12.88,9.27,3-.28.15,1.56-8.12.77Zm17.29-4.05c-.56,1.31-1.52,2.08-2.97,2.36-1.62.31-2.97-.21-3.71-1.42l1.5-.74c.31.33.45.45.63.56.37.21.88.27,1.35.18,1.56-.3,2.17-1.96,1.67-4.64-.25.73-.43,1.06-.73,1.36-.4.4-1.01.7-1.68.83-2.01.38-3.72-.74-4.1-2.7-.4-2.08.87-3.82,3.08-4.24,1.24-.24,2.33-.02,3.25.66,1.03.77,1.66,1.93,1.98,3.63.31,1.62.21,2.97-.28,4.16Zm10.57-2.83c-.44,1.36-1.32,2.22-2.74,2.63-1.58.46-2.98.07-3.83-1.07l1.43-.88c.34.3.49.41.68.5.38.17.9.19,1.37.05,1.52-.44,1.97-2.16,1.23-4.77-.18.75-.33,1.1-.6,1.42-.36.44-.94.79-1.6.98-1.97.57-3.78-.38-4.34-2.3-.59-2.03.5-3.88,2.67-4.51,1.21-.35,2.31-.24,3.3.36,1.09.67,1.83,1.77,2.31,3.43.46,1.58.49,2.94.11,4.17Zm7.96-1.01c-1.25.5-2.36.51-3.46.04-.68-.28-1.08-.59-1.48-1.13l1.52-1.08c.78.97,1.73,1.23,2.86.78,1.13-.45,1.68-1.41,1.32-2.31-.2-.51-.73-.93-1.27-1.03-.33-.06-.78.02-1.2.18l-1.22.48-.56-1.41.91-.36c1.18-.46,1.68-1.32,1.33-2.21-.35-.88-1.18-1.17-2.21-.76-1.01.4-1.42,1.06-1.42,2.25l-1.75.35c-.22-1.74.83-3.3,2.67-4.03,1.98-.78,3.81-.24,4.43,1.33.48,1.22.09,2.41-.96,2.98,1.47-.29,2.6.28,3.11,1.54.68,1.73-.38,3.52-2.61,4.41Zm26.98-46.48c-17.29,19.08-42.27,31.07-70.05,31.07-23.48,0-44.96-8.56-61.48-22.73-3.03-2.6-5.9-5.38-8.58-8.34-14.61-16.12-23.73-37.31-24.41-60.61-.03-.94-.04-1.88-.04-2.82,0-.52,0-1.04,0-1.55.1-6.29.82-12.44,2.1-18.37,9.14-42.63,47.04-74.59,92.4-74.59,52.19,0,94.5,42.31,94.5,94.51,0,24.42-9.26,46.66-24.45,63.43Zm24.09-113.22c-.56-1.1-.62-2.08-.2-3.12.42-1,1.12-1.71,2.28-2.3,2.23-1.15,4.46-.53,5.51,1.53,1.09,2.13.3,4.31-2,5.49-2.24,1.15-4.52.49-5.59-1.6Zm4.73,16.04c-.78-.25-1.26-.8-1.59-1.82-.12-.37-.18-.61-.28-1.14l1.77-.58c.08.54.14.78.27,1.16.25.77.54.97,1.38.95l6.86-5.39.8,2.45-4.16,3,5.12-.08.54,1.68h-8.27c-1.58,0-1.81-.02-2.44-.23Z"/>
      <path class="cls-5" d="m325.13,57.21c.39-.22.8-.62,1.28-1.21.51-.63.83-1.13.99-1.51.19-.49.04-1.06-.36-1.38-.62-.5-1.47-.23-2.21.69l-1,1.23c-.68.84-.71,1.65-.12,2.13.39.31.95.34,1.41.05Z"/>
      <path class="cls-5" d="m333.98,63.09c1.4-1.42,1.66-2.24.96-2.93-.7-.69-1.51-.46-2.73.79-1.43,1.46-1.74,2.35-1.04,3.03.68.66,1.54.4,2.82-.9Z"/>
      <path class="cls-5" d="m356.3,89.19c-.45-.87-1.29-.91-2.84-.11-1.82.93-2.39,1.68-1.95,2.55.43.84,1.34.87,2.95.04,1.78-.91,2.28-1.6,1.83-2.47Z"/>
    </g>
  </g>
</svg>