<?xml version="1.0" encoding="UTF-8"?>
<svg id="Layer_2" data-name="Layer 2" xmlns="http://www.w3.org/2000/svg" xmlns:xlink="http://www.w3.org/1999/xlink" viewBox="0 0 605.73 546.1">
  <defs>
    <style>
      .cls-1 {
        stroke: #991b1e;
        stroke-linecap: round;
        stroke-linejoin: round;
      }

      .cls-1, .cls-2, .cls-3, .cls-4 {
        fill: #fff;
      }

      .cls-5 {
        fill: url(#linear-gradient);
      }

      .cls-6 {
        fill: #7d9fec;
      }

      .cls-7 {
        fill: #991b1e;
      }

      .cls-8 {
        fill: #6f9df7;
      }

      .cls-3 {
        font-size: 27px;
      }

      .cls-3, .cls-4 {
        font-family: FranklinGothicURW-Dem, 'FranklinGothic URW';
      }

      .cls-4 {
        font-size: 30px;
      }

      .cls-9 {
        opacity: .57;
      }

      .cls-10 {
        fill: url(#radial-gradient);
      }

      .cls-11 {
        fill: url(#radial-gradient-2);
        isolation: isolate;
        opacity: .74;
      }

      .cls-12 {
        font-family: Charter-Bold, Charter;
        font-size: 100px;
        font-weight: 700;
        letter-spacing: .03em;
      }
    </style>
    <radialGradient id="radial-gradient" cx="436.63" cy="585.46" fx="436.63" fy="585.46" r="24.1" gradientTransform="translate(1.15 770.84) rotate(-.13) scale(1 -1)" gradientUnits="userSpaceOnUse">
      <stop offset=".06" stop-color="#c4cffa"/>
      <stop offset=".18" stop-color="#879afb"/>
      <stop offset=".28" stop-color="#8a9dfb"/>
      <stop offset=".36" stop-color="#94a6fb"/>
      <stop offset=".43" stop-color="#a5b4fa"/>
      <stop offset=".51" stop-color="#bdc9fa"/>
      <stop offset=".52" stop-color="#c4cffa"/>
      <stop offset=".76" stop-color="#c4cffa"/>
      <stop offset="1" stop-color="#879afb"/>
    </radialGradient>
    <radialGradient id="radial-gradient-2" cx="432.93" cy="486.64" fx="432.93" fy="486.64" r="24.1" gradientTransform="translate(11.68 678.02) rotate(-.95) scale(1 -1)" xlink:href="#radial-gradient"/>
    <linearGradient id="linear-gradient" x1="400.96" y1="548.44" x2="488.17" y2="594.63" gradientTransform="translate(3.46 757.96) rotate(-.24) scale(1 -1)" gradientUnits="userSpaceOnUse">
      <stop offset=".06" stop-color="#c4cffa"/>
      <stop offset=".08" stop-color="#afbcfa"/>
      <stop offset=".12" stop-color="#99a9fb"/>
      <stop offset=".15" stop-color="#8b9efb"/>
      <stop offset=".18" stop-color="#879afb"/>
      <stop offset=".52" stop-color="#c4cffa"/>
      <stop offset=".76" stop-color="#c4cffa"/>
      <stop offset=".84" stop-color="#b2bffa"/>
      <stop offset="1" stop-color="#879afb"/>
    </linearGradient>
  </defs>
  <g id="Layer_31" data-name="Layer 31">
    <g>
      <path d="m206.27,125.03l76.69-75.23v-15.65c-33.6,22.1-60.42,53.66-76.69,90.88Zm81.32,84.14l-.21.69c-.49,1.64-1.99,2.78-3.7,2.83-1.6.05-3.21.07-4.79.07-.99,0-1.98-.01-2.95-.02-1.6,0-3.21,0-4.81,0h-.04c-1.26,0-2.46-.6-3.21-1.62-.76-1.03-.99-2.36-.6-3.58,1.61-5.09,3.22-10.19,4.85-15.3-3.14-2.72-6.45-5.27-9.92-7.62-1.38,7.85-2.11,15.94-2.11,24.19,0,39.4,16.52,74.94,43.02,100.07,2.58-11.05,3.95-23.01,3.95-35.88,0-25.06-7.12-46.65-19.48-63.83Zm-74.98,126.45c-15.51,26.04-43.41,39.07-80.25,39.07-47.45,0-76.24-26.71-76.24-26.71l-.44-75.42-55.68-.73v98.41c34.71,30.47,83.53,46.87,134.71,46.87,45.45,0,88.68-11.21,120.47-34.95-16.27-13.43-30.62-29.1-42.57-46.54Zm32.04-122.23c-.05-1.52-.07-3.05-.07-4.58,0-.84,0-1.68.02-2.51.16-10.22,1.33-20.19,3.4-29.83-15.99-7.67-34.45-11.93-54.38-12.29-3.08,14.26-4.7,29.05-4.7,44.23v1.44h0c22.9,11.31,37.55,34.15,37.55,67.25,0,15.71-2.1,29.53-6.11,41.45,12.65,20.28,28.69,38.22,47.32,53.04,13.21-12.63,23.68-28.01,30.5-46.27-31.74-27.21-52.23-67.16-53.54-111.93ZM11.17,0v117.75h53.95l.18-73.81h164.12L91.18,182.19l19.41,26.37c22.88-7.53,44.57-8.82,62.87-4.31.26-13.51,1.73-26.74,4.28-39.56-4.49.37-9.03.93-13.62,1.69l17.21-16.88c15.44-56.57,52.45-104.23,101.63-133.62V0H11.17Z"/>
      <g>
        <path d="m397.32,0C355.09,0,315.8,12.56,282.96,34.15c-33.6,22.1-60.42,53.66-76.69,90.88-5.45,12.46-9.71,25.56-12.65,39.15-3.08,14.26-4.7,29.05-4.7,44.23,0,.48,0,.96,0,1.44.27,39.9,11.75,77.13,31.44,108.7,12.65,20.28,28.69,38.22,47.32,53.04,35.59,28.31,80.64,45.22,129.63,45.22,115.1,0,208.41-93.31,208.41-208.4S512.42,0,397.32,0Zm.68,362.23c-38.11,0-72.98-13.9-99.81-36.91-31.74-27.21-52.23-67.16-53.54-111.93-.05-1.52-.07-3.05-.07-4.58,0-.84,0-1.68.02-2.51.16-10.22,1.33-20.19,3.4-29.83,14.84-69.2,76.36-121.08,150-121.08,84.73,0,153.42,68.69,153.42,153.42s-68.69,153.42-153.42,153.42Z"/>
        <path class="cls-6" d="m244.6,206.3c-.01.83-.02,1.67-.02,2.51v-2.51h.02Z"/>
        <path class="cls-6" d="m244.65,213.39h-.07v-4.58c0,1.53.02,3.06.07,4.58Z"/>
      </g>
    </g>
    <g>
      <path class="cls-7" d="m411.82,250.71c-5.52-.16-11.05.02-16.58-.07-.02-12.91-.11-28.42.04-41.32-3.04-.53-11.88-6.32-13.28-7.65-.02,19.24-.09,41.78.07,61.01,9.93,0,19.88.14,29.8-.05.08-.69.06-11.45-.03-11.91Z"/>
      <path class="cls-7" d="m490.46,263.74c-.15-.28-.45-.52-.75-.78-.5-.44-1.08-.93-1.16-1.74-.16-.83.37-1.71.87-2.54.21-.35.42-.69.56-1h-2.1l1.25-2.13c-.28-.16-.58-.33-.91-.53-1.97-1.21-4.65-3.4-6.2-6.88-.77-1.72-1.26-3.74-1.26-6.13,0-2.56.48-4.51,1.26-6t0-.02c2.41-4.7,7.56-4.8,8.65-4.8.4,0,1.33,0,2.46.23,2.99.59,7.39,2.76,7.39,10.59,0,4.04-1.38,7.06-3.09,9.24-1.73,2.19-3.79,3.56-5.19,4.3l1.1,2.13h-2.33c-.16.52-.48,1.03-.77,1.5-.42.68-.84,1.39-.75,1.9.05.46.42.77.84,1.14.31.27.64.54.87.92.03.03.06.07.08.11.07.12.13.24.16.37.02.05.03.1.04.15,1.83,0,5.81-.35,9.43-3.08,1.56-1.19,3.05-2.84,4.24-5.14,3.38-6.53,2.96-13.15,2.96-14.44-.03-6.94-2.28-15.04-9.04-18.64-1.32-.71-3.3-1.5-6.07-1.58-1.14-.07-3.51-.02-6.12,1.06-3.76,1.54-4.91,3.74-4.91,3.89.03-5.82.04-11.58.08-17.4h-13.28l.1,54.36h6.64l2.44-5.47c.1-.22.43-.4.58-.2.95,1.14,2.08,3.28,5,5.08,2.79,1.49,5.21,1.59,6.92,1.59"/>
      <path class="cls-7" d="m447.27,237.35c.17-2.81.19-6.41-2.88-7.66-4.38-1.84-10.89-.21-11.4,5.22-4-.21-8.2-.55-12.19-1.06,1.75-13.84,23.48-14.9,33.58-10.41,5.57,2.58,6.4,7.71,6.23,13.28.33,8.68-.78,17.53.73,26.1-.44.11-12.14.13-12.82.03-.6-2.01-.42-4.08-.7-6.13-2.84,3.51-6.51,6.39-11.16,6.85-5.62.76-12.39-.38-15.71-5.45-3-4.87-1.53-11.76,2.93-15.24,6.66-4.94,15.48-4.67,23.38-5.52Zm0,6.01c-4.2.45-8.85.98-12.16,3.82-2.48,2.2-2.18,6.62.76,8.29,3.88,2.19,8.92-.28,10.58-4.19,1.15-2.49.87-5.26.82-7.92Z"/>
      <path d="m507.73,208.43c-4.28.23-9.23.45-13.28.23-.11-4.45,0-13.73,0-21.38-.23-9.45-.23-13.96-5.63-13.96-6.98,0-6.75,8.78-6.75,16.88v18.23h-13.28c-.23-14.41,0-31.74,0-44.57,4.05-.23,8.78-.23,12.38,0v7.43c3.38-5.85,6.52-8.55,12.16-8.55,4.88,0,8.1,1.06,10.23,3.05.7.65,2.74,2.15,3.95,7.53.45,2.93.23,11.59.23,13.96,0,5.4,0,11.93,0,21.16Z"/>
      <path d="m325.72,208.71h-15.24c-1.24-4.12-2.48-8.23-3.72-12.36h-19.55c-1.25,4.11-2.49,8.2-3.75,12.35-4.16.12-8.3,0-12.46.05,6.37-20.19,12.83-40.36,19.28-60.52h16.48c6.3,20.17,12.75,40.3,18.96,60.49Zm-35.01-23.61c4.22-.08,8.46.15,12.65-.09-2.14-6.95-4.08-13.94-6.31-20.81-2.25,6.87-4.4,13.92-6.34,20.89Z"/>
      <path d="m329.81,163.86h12.9c.07,10-.02,19.99.04,29.99-.05,2.12,1.1,4.49,3.33,5.03,6.87,1.47,8.65-5.08,8.79-10.86.2-8.05-.03-16.11.03-24.16,4.42.05,8.88-.1,13.19.05.11,14.84.06,29.75,0,44.6-15.18-.28-11.71,2.85-12.31-7.24-2.57,6.74-10.14,9.32-16.84,7.92-6.85-.89-9.18-8.13-9.03-14.16-.23-10.39-.02-20.78-.09-31.17Z"/>
      <path d="m381.94,174.3c.05,9.16.05,18.32.05,27.48.01,2.82,2.9,5.24,4.51,5.97,2.48,1.13,4.95,1.8,8.79,1.8,3.4.1,6.78-.36,10.12-.96-.1-3.24.16-6.61-.13-9.77-2.94-.04-6.69.95-9.1-1.14-1.08-1.47-.91-3.41-1.02-5.14-.03-6.09-.01-12.17-.01-18.27,3.24-.02,6.33,0,9.57,0,.08-3.45.11-6.92-.01-10.37-3.18-.11-6.43.21-9.55-.12,0-5.3.02-10.61-.07-15.9h-13.18c.08,5.34.06,10.67.01,16.01-2.34.02-4.65-.04-6.98.03,0,3.41-.24,7,.08,10.34,2.31.03,4.62-.06,6.93.04Z"/>
      <g id="Layer_9" data-name="Layer 9">
        <g id="Layer_8" data-name="Layer 8">
          <g id="Layer_7" data-name="Layer 7">
            <g id="Layer_14" data-name="Layer 14">
              <g>
                <g id="Shape_6" data-name="Shape 6">
                  <path class="cls-6" d="m453.42,185.37c-.76-9.92-8.17-17.33-16.51-16.53-8.35.8-14.52,9.52-13.76,19.44s8.17,17.33,16.51,16.53,14.52-9.52,13.76-19.44Zm-.56,3.82c-.05.51-.12,1.01-.21,1.51l-12.78-3.38,12.45,4.84c-.13.49-.28.96-.44,1.43l-12.11-5.95,11.57,7.33c-.2.45-.41.89-.64,1.31l-11.07-8.34,10.34,9.58c-.26.4-.53.79-.82,1.16l-9.7-10.48,8.8,11.55c-.32.34-.64.67-.98.98l-8.04-12.31,7,13.18c-.36.27-.73.53-1.11.76l-6.14-13.77,4.98,14.41c-.39.19-.8.35-1.21.5l-4.04-14.8,2.8,15.17c-.42.11-.84.18-1.27.25l-1.82-15.36.54,15.48c-.43.02-.86.02-1.28,0l.45-15.48-1.73,15.34c-.43-.07-.85-.16-1.27-.27l2.71-15.13-3.95,14.72c-.41-.16-.81-.34-1.21-.54l4.88-14.3-6.04,13.64c-.38-.24-.75-.5-1.11-.78l6.9-13.03-7.94,12.15c-.34-.31-.67-.64-.99-.99l8.7-11.38-9.61,10.3c-.29-.38-.57-.77-.83-1.17l10.25-9.39-10.99,8.14c-.23-.43-.45-.87-.65-1.32l11.49-7.12-12.04,5.74c-.16-.47-.3-.95-.43-1.44l12.37-4.63-12.7,3.16c-.09-.49-.16-.99-.22-1.5l12.87-1.99-12.99.48c-.02-.51-.02-1.02,0-1.52l12.99.69-12.88-2.2c.06-.51.13-1,.22-1.49l12.71,3.36-12.38-4.81c.13-.48.27-.96.44-1.43l12.04,5.92-11.5-7.28c.2-.45.41-.89.64-1.31l11.01,8.3-10.28-9.53c.26-.4.54-.78.83-1.15l9.64,10.42-8.74-11.48c.31-.34.64-.66.98-.97l7.99,12.23-6.95-13.1c.36-.27.72-.53,1.1-.76l6.1,13.69-4.95-14.33c.39-.19.79-.37,1.2-.52l4.02,14.73-2.79-15.11c.41-.11.83-.19,1.26-.25l1.82,15.3-.54-15.43c.43-.02.86-.02,1.28,0l-.45,15.42,1.72-15.29c.43.07.85.15,1.27.26l-2.7,15.09,3.94-14.69c.41.16.81.34,1.21.54l-4.87,14.27,6.03-13.62c.38.24.75.5,1.11.77l-6.89,13.02,7.94-12.14c.34.31.67.64.99.99l-8.71,11.38,9.62-10.31c.29.38.57.76.84,1.17l-10.27,9.4,11.01-8.16c.23.43.46.87.66,1.32l-11.52,7.13,12.07-5.75c.17.47.31.95.44,1.44l-12.41,4.64,12.74-3.17c.1.49.17,1,.23,1.51l-12.91,2,13.03-.49c.02.51.03,1.02.01,1.53l-13.05-.7,12.95,2.2Z"/>
                </g>
                <g id="Shape_6_copy" data-name="Shape 6 copy">
                  <path class="cls-8" d="m453.42,185.37c-.76-9.92-8.17-17.33-16.51-16.53-8.35.8-14.52,9.52-13.76,19.44s8.17,17.33,16.51,16.53,14.52-9.52,13.76-19.44Zm-.56,3.82c-.05.51-.12,1.01-.21,1.51l-12.78-3.38,12.45,4.84c-.13.49-.28.96-.44,1.43l-12.11-5.95,11.57,7.33c-.2.45-.41.89-.64,1.31l-11.07-8.34,10.34,9.58c-.26.4-.53.79-.82,1.16l-9.7-10.48,8.8,11.55c-.32.34-.64.67-.98.98l-8.04-12.31,7,13.18c-.36.27-.73.53-1.11.76l-6.14-13.77,4.98,14.41c-.39.19-.8.35-1.21.5l-4.04-14.8,2.8,15.17c-.42.11-.84.18-1.27.25l-1.82-15.36.54,15.48c-.43.02-.86.02-1.28,0l.45-15.48-1.73,15.34c-.43-.07-.85-.16-1.27-.27l2.71-15.13-3.95,14.72c-.41-.16-.81-.34-1.21-.54l4.88-14.3-6.04,13.64c-.38-.24-.75-.5-1.11-.78l6.9-13.03-7.94,12.15c-.34-.31-.67-.64-.99-.99l8.7-11.38-9.61,10.3c-.29-.38-.57-.77-.83-1.17l10.25-9.39-10.99,8.14c-.23-.43-.45-.87-.65-1.32l11.49-7.12-12.04,5.74c-.16-.47-.3-.95-.43-1.44l12.37-4.63-12.7,3.16c-.09-.49-.16-.99-.22-1.5l12.87-1.99-12.99.48c-.02-.51-.02-1.02,0-1.52l12.99.69-12.88-2.2c.06-.51.13-1,.22-1.49l12.71,3.36-12.38-4.81c.13-.48.27-.96.44-1.43l12.04,5.92-11.5-7.28c.2-.45.41-.89.64-1.31l11.01,8.3-10.28-9.53c.26-.4.54-.78.83-1.15l9.64,10.42-8.74-11.48c.31-.34.64-.66.98-.97l7.99,12.23-6.95-13.1c.36-.27.72-.53,1.1-.76l6.1,13.69-4.95-14.33c.39-.19.79-.37,1.2-.52l4.02,14.73-2.79-15.11c.41-.11.83-.19,1.26-.25l1.82,15.3-.54-15.43c.43-.02.86-.02,1.28,0l-.45,15.42,1.72-15.29c.43.07.85.15,1.27.26l-2.7,15.09,3.94-14.69c.41.16.81.34,1.21.54l-4.87,14.27,6.03-13.62c.38.24.75.5,1.11.77l-6.89,13.02,7.94-12.14c.34.31.67.64.99.99l-8.71,11.38,9.62-10.31c.29.38.57.76.84,1.17l-10.27,9.4,11.01-8.16c.23.43.46.87.66,1.32l-11.52,7.13,12.07-5.75c.17.47.31.95.44,1.44l-12.41,4.64,12.74-3.17c.1.49.17,1,.23,1.51l-12.91,2,13.03-.49c.02.51.03,1.02.01,1.53l-13.05-.7,12.95,2.2Z"/>
                </g>
                <path class="cls-10" d="m421.49,202.87c-2.63.15-6.61-1.48-8.78-2.89-2.42-1.58-3.98-4.02-4.44-6.87-1.05-6.43,2.9-12.57,7.26-16.89,6.46-6.41,16.05-11.45,25.32-10.42,19.58,2.17,24.53,23.15,24.16,33.71-1.05-5.07-2.26-10.09-4.65-14.72-1.26-2.44-2.64-4.82-4.7-6.73.33,1.1,1.12,2.15,1.65,3.19.74,1.47,1.27,2.92,1.83,4.46,1.65,4.44,2.48,9.15,2.83,13.87-.22-2.98-2.71-10.74-3.78-12.97-1.38-2.9-2.74-5.5-3.9-7.26-.12-.19-.25-.37-.37-.55-.31-.44-.63-.87-.96-1.28-8.29-10.3-22.18-9.08-32.02-.69-5.7,4.87-14.72,14.48-6.94,21.48,2.41,2.16,5.39,3.56,8.31,4.9l-.81-.32Z"/>
              </g>
            </g>
          </g>
          <g id="Layer_16" data-name="Layer 16">
            <g id="Shape_6-2" data-name="Shape 6" class="cls-9">
              <path class="cls-6" d="m453.95,185.53c-.67-9.92-8.01-17.41-16.36-16.68-8.35.72-14.6,9.39-13.93,19.31.67,9.92,8.01,17.41,16.37,16.68,8.35-.73,14.6-9.39,13.93-19.31Zm-.48,2.3l-13.04-.81,12.92,2.33c-.06.51-.13,1.01-.22,1.5l-12.75-3.49,12.41,4.96c-.13.49-.29.96-.46,1.43l-12.06-6.06,11.5,7.43c-.2.45-.42.88-.65,1.31l-10.99-8.44,10.25,9.68c-.26.4-.54.78-.83,1.16l-9.61-10.57,8.7,11.63c-.32.34-.65.66-.99.97l-7.93-12.38,6.88,13.24c-.36.27-.73.52-1.12.75l-6.01-13.83,4.85,14.45c-.39.19-.8.35-1.21.49l-3.91-14.83,2.66,15.2c-.42.1-.84.18-1.27.23l-1.68-15.38.4,15.48c-.43.01-.86,0-1.28-.02l.59-15.47-1.87,15.32c-.43-.08-.85-.16-1.27-.28l2.85-15.1-4.08,14.68c-.41-.16-.81-.35-1.2-.55l5.01-14.25-6.16,13.58c-.38-.24-.75-.51-1.11-.79l7.02-12.97-8.05,12.08c-.34-.32-.66-.65-.98-1l8.81-11.3-9.7,10.21c-.29-.38-.56-.77-.82-1.18l10.34-9.3-11.06,8.04c-.23-.43-.44-.87-.64-1.33l11.56-7.02-12.09,5.63c-.16-.47-.3-.95-.42-1.44l12.42-4.51-12.73,3.04c-.09-.49-.16-1-.21-1.5l12.89-1.88-13,.37c-.01-.51-.01-1.02.01-1.52l12.98.81-12.86-2.32c.06-.5.14-1,.23-1.49l12.68,3.47-12.34-4.93c.13-.48.28-.96.45-1.42l11.99,6.03-11.44-7.39c.2-.45.42-.89.65-1.31l10.94,8.4-10.2-9.62c.26-.4.55-.78.84-1.15l9.55,10.51-8.64-11.56c.32-.34.65-.66.99-.96l7.88,12.3-6.83-13.16c.36-.27.73-.52,1.11-.75l5.98,13.74-4.82-14.37c.39-.19.79-.36,1.2-.51l3.89,14.77-2.65-15.13c.41-.1.84-.18,1.26-.24l1.68,15.31-.4-15.43c.43-.02.86-.01,1.28.01l-.59,15.42,1.86-15.28c.43.07.85.16,1.26.27l-2.84,15.07,4.07-14.65c.41.16.81.35,1.2.55l-5,14.23,6.15-13.56c.38.24.75.5,1.11.78l-7.01,12.96,8.05-12.07c.34.32.67.65.98.99l-8.81,11.3,9.71-10.22c.29.38.56.77.82,1.18l-10.35,9.31,11.08-8.06c.23.43.45.87.65,1.33l-11.58,7.03,12.12-5.64c.16.47.3.95.43,1.44l-12.45,4.53,12.77-3.05c.09.49.16,1,.21,1.51l-12.93,1.89,13.04-.37c.02.52.02,1.03,0,1.53Z"/>
            </g>
            <path class="cls-11" d="m421.74,202.95c-2.63.19-6.64-1.38-8.82-2.77-2.44-1.55-4.03-3.97-4.54-6.81-1.14-6.41,2.72-12.61,7.02-16.99,6.37-6.5,15.89-11.68,25.16-10.78,19.61,1.89,24.87,22.8,24.64,33.36-.99-4.43-2.26-9.88-4.69-14.32,0,0-1.12-2.44-1.81-3.26.12.31-1.69-2.4-3.16-3.73.35,1.09,1.15,2.13,1.69,3.16.77,1.46,1.31,2.9,1.9,4.43,1.71,4.42,2.61,9.12,3.02,13.83-.26-2.98-2.86-10.7-3.96-12.92-1.27-2.57-2.72-5.43-4.39-7.75-8.31-11.55-22.91-10.36-33-1.49-5.63,4.95-14.51,14.69-6.63,21.58,2.44,2.13,5.4,3.51,8.34,4.8l-.78-.34Z"/>
            <path class="cls-2" d="m416.25,176.61c5.5-5.29,13.19-9.58,20.97-10.14,1.5-.11,3.01-.08,4.51.11,4.53.57,7.84,3.88,9.83,7.75.24.47-.38,1.13-1.75.2-1.68-1.15-4.89-2.83-7.84-3.39-4.51-.86-9.27-.02-13.4,1.92-1.21.57-2.38,1.23-3.51,1.94-.58.36-1.15.74-1.71,1.12-.31.21-1.88,1.15-2.21,1.12,0,0-4.57-.44-4.57-.44l-.3-.19Z"/>
            <path class="cls-5" d="m421.9,203.35c-3.19-.41-6.4-1.69-8.57-3.1-2.42-1.58-3.99-4.02-4.46-6.86-1.06-6.42,2.88-12.58,7.23-16.9,6.45-6.42,16.03-11.48,25.29-10.47,19.58,2.13,24.58,23.1,24.23,33.66.05-1.45-.66-3.28-.97-4.69-.32-1.5-.68-2.99-1.11-4.46-1.06-3.6-2.79-7.08-5.17-9.99-.66-.81-1.38-1.57-2.15-2.28.24.78.74,1.47,1.1,2.21.84,1.78,1.71,3.58,2.4,5.42,1.65,4.44,2.49,9.15,2.85,13.86-.57-7.54-3.8-14.63-8.09-20.77-.67-.95-1.43-1.62-2.18-2.41-8.4-8.83-21.43-7.52-30.8.5-5.7,4.88-14.69,14.51-6.89,21.5,2.4,2.15,5.37,3.54,8.32,4.88l-1.02-.09Z"/>
          </g>
        </g>
      </g>
      <g>
        <g>
          <path class="cls-7" d="m491.01,263.77h.49c.3,1.21-.43,2.07-1.07,2.83-.5.59-.98,1.15-.93,1.81.02.26-.17.49-.45.51h-.04c-.24,0-.46-.19-.48-.45-.08-1.06.57-1.83,1.15-2.51.67-.8,1.08-1.25.86-1.99-.02-.05-.05-.14-.08-.2"/>
          <path class="cls-7" d="m490.48,263.78s-.01-.03-.02-.04"/>
        </g>
        <path class="cls-2" d="m490.46,263.74c-.15-.28-.45-.52-.75-.78-.5-.44-1.08-.93-1.16-1.74-.16-.83.37-1.71.87-2.54.21-.35.42-.69.56-1h1.04c-.16.52-.48,1.03-.77,1.5-.42.68-.84,1.39-.75,1.9.05.46.42.77.84,1.14.31.27.64.54.87.92.03.03.06.07.08.11.07.12.13.24.16.37.02.05.03.1.04.15h-.49"/>
        <path class="cls-1" d="m493.25,234.64c.34,0,.78.16,1.21.45,1.1.74,2.24,2.37,2.24,4.75"/>
      </g>
    </g>
    <text class="cls-3" transform="translate(233.66 154.85) rotate(-69.88)"><tspan x="0" y="0">A</tspan></text>
    <text class="cls-3" transform="translate(240 137.91) rotate(-64.12)"><tspan x="0" y="0">u</tspan></text>
    <text class="cls-3" transform="translate(247.36 123.15) rotate(-59.46)"><tspan x="0" y="0">t</tspan></text>
    <text class="cls-3" transform="translate(253.06 113.43) rotate(-54.89)"><tspan x="0" y="0">o</tspan></text>
    <text class="cls-3" transform="translate(262.48 100.18) rotate(-49.44)"><tspan x="0" y="0">n</tspan></text>
    <text class="cls-3" transform="translate(273.35 87.62) rotate(-44.01)"><tspan x="0" y="0">o</tspan></text>
    <text class="cls-3" transform="translate(284.84 76.34) rotate(-37.39)"><tspan x="0" y="0">m</tspan></text>
    <text class="cls-3" transform="translate(303.97 62.12) rotate(-30.76)"><tspan x="0" y="0">o</tspan></text>
    <text class="cls-3" transform="translate(317.97 53.88) rotate(-25.31)"><tspan x="0" y="0">u</tspan></text>
    <text class="cls-3" transform="translate(332.88 46.96) rotate(-20.11)"><tspan x="0" y="0">s</tspan></text>
    <text class="cls-3" transform="translate(346.82 42.05) rotate(-16.16)"><tspan x="0" y="0"> </tspan></text>
    <text class="cls-3" transform="translate(355.16 39.53) rotate(-11.73)"><tspan x="0" y="0">S</tspan></text>
    <text class="cls-3" transform="translate(372.17 36.16) rotate(-6.56)"><tspan x="0" y="0">y</tspan></text>
    <text class="cls-3" transform="translate(386 34.63) rotate(-1.84)"><tspan x="0" y="0">s</tspan></text>
    <text class="cls-3" transform="translate(400.94 34.3) rotate(2.52)"><tspan x="0" y="0">t</tspan></text>
    <text class="cls-3" transform="translate(412.24 34.77) rotate(7.08)"><tspan x="0" y="0">e</tspan></text>
    <text class="cls-3" transform="translate(428.21 36.61) rotate(13.75)"><tspan x="0" y="0">m</tspan></text>
    <text class="cls-3" transform="translate(451.32 42.63) rotate(20.18)"><tspan x="0" y="0">s</tspan></text>
    <text class="cls-3" transform="translate(465.15 47.9) rotate(24.13)"><tspan x="0" y="0"> </tspan></text>
    <text class="cls-3" transform="translate(473.15 51.43) rotate(28.2)"><tspan x="0" y="0">L</tspan></text>
    <text class="cls-3" transform="translate(486.93 58.9) rotate(33.59)"><tspan x="0" y="0">a</tspan></text>
    <text class="cls-3" transform="translate(500.57 68.07) rotate(39.06)"><tspan x="0" y="0">b</tspan></text>
    <text class="cls-3" transform="translate(513.32 78.53) rotate(44.48)"><tspan x="0" y="0">o</tspan></text>
    <text class="cls-3" transform="translate(524.88 90.13) rotate(49.06)"><tspan x="0" y="0">r</tspan></text>
    <text class="cls-3" transform="translate(532.29 98.62) rotate(53.66)"><tspan x="0" y="0">a</tspan></text>
    <text class="cls-3" transform="translate(541.92 112.02) rotate(58.3)"><tspan x="0" y="0">t</tspan></text>
    <text class="cls-3" transform="translate(547.87 121.59) rotate(62.88)"><tspan x="0" y="0">o</tspan></text>
    <text class="cls-3" transform="translate(555.17 136.25) rotate(67.51)"><tspan x="0" y="0">r</tspan></text>
    <text class="cls-3" transform="translate(559.66 147.22) rotate(71.94)"><tspan x="0" y="0">y</tspan></text>
    <text class="cls-4" transform="translate(287.68 362.36) rotate(33.18)"><tspan x="0" y="0">s</tspan></text>
    <text class="cls-4" transform="translate(307.01 374.29) rotate(27.3)"><tspan x="0" y="0">i</tspan></text>
    <text class="cls-4" transform="translate(321.85 381.68) rotate(21.01)"><tspan x="0" y="0">n</tspan></text>
    <text class="cls-4" transform="translate(345.65 390.17) rotate(13.55)"><tspan x="0" y="0">c</tspan></text>
    <text class="cls-4" transform="translate(369.34 395.31) rotate(6.15)"><tspan x="0" y="0">e</tspan></text>
    <text class="cls-4" transform="translate(393.72 397.21) rotate(.93)"><tspan x="0" y="0"> </tspan></text>
    <text class="cls-4" transform="translate(409.96 397.11) rotate(-6.16)"><tspan x="0" y="0">1</tspan></text>
    <text class="cls-4" transform="translate(436.25 393.65) rotate(-14.14)"><tspan x="0" y="0">9</tspan></text>
    <text class="cls-4" transform="translate(461.8 386.57) rotate(-22.15)"><tspan x="0" y="0">9</tspan></text>
    <text class="cls-4" transform="translate(486.11 376.01) rotate(-30.13)"><tspan x="0" y="0">3</tspan></text>
    <text class="cls-12" transform="translate(1.17 496.69) scale(1.04 1)"><tspan x="0" y="0">Anniversary</tspan></text>
    <g>
      <path d="m520.9,0h36v11.04h-4.3V3.57s-1.98,0-1.98,0h-7.5v35.27h5.12s0,3.05,0,3.05h-18.69v-3.05h5.12s0-1.31,0-1.31V3.57h-9.48s0,7.47,0,7.47h-4.3V0Z"/>
      <path d="m560.97,0h17.68v3.05h-4.76s0,1.31,0,1.31v13.69h18.05V3.05h-4.66V0h17.59v3.05h-4.6v35.79h4.6s0,3.05,0,3.05h-17.59v-3.05h4.66s0-1.31,0-1.31v-15.73h-18.05v17.04s4.76,0,4.76,0v3.05h-17.68v-3.05h4.63s0-1.31,0-1.31V3.05s-4.63,0-4.63,0V0Z"/>
    </g>
  </g>
</svg>