<?xml version="1.0" encoding="UTF-8"?>
<svg id="Layer_2" data-name="Layer 2" xmlns="http://www.w3.org/2000/svg" xmlns:xlink="http://www.w3.org/1999/xlink" viewBox="0 0 609.16 678.84">
  <defs>
    <style>
      .cls-1, .cls-2, .cls-3 {
        fill: none;
      }

      .cls-4 {
        letter-spacing: 0em;
      }

      .cls-5 {
        letter-spacing: 0em;
      }

      .cls-6 {
        letter-spacing: -.02em;
      }

      .cls-7 {
        fill: url(#linear-gradient);
      }

      .cls-8 {
        letter-spacing: -.02em;
      }

      .cls-9 {
        letter-spacing: -.01em;
      }

      .cls-10 {
        letter-spacing: -.01em;
      }

      .cls-11 {
        letter-spacing: -.02em;
      }

      .cls-12, .cls-13, .cls-14, .cls-15, .cls-16 {
        fill: #fff;
      }

      .cls-17 {
        fill: #7d9fec;
      }

      .cls-18 {
        fill: #991b1e;
      }

      .cls-19 {
        fill: #6f9df7;
      }

      .cls-20 {
        letter-spacing: -.02em;
      }

      .cls-21 {
        letter-spacing: -.03em;
      }

      .cls-22 {
        letter-spacing: -.03em;
      }

      .cls-23 {
        letter-spacing: -.01em;
      }

      .cls-24 {
        letter-spacing: 0em;
      }

      .cls-25 {
        letter-spacing: 0em;
      }

      .cls-26 {
        letter-spacing: -.01em;
      }

      .cls-27 {
        letter-spacing: 0em;
      }

      .cls-28 {
        letter-spacing: -.01em;
      }

      .cls-29 {
        letter-spacing: -.01em;
      }

      .cls-30 {
        letter-spacing: 0em;
      }

      .cls-31 {
        letter-spacing: -.02em;
      }

      .cls-32 {
        letter-spacing: -.02em;
      }

      .cls-33 {
        letter-spacing: -.02em;
      }

      .cls-34 {
        letter-spacing: -.01em;
      }

      .cls-35 {
        letter-spacing: -.02em;
      }

      .cls-36 {
        letter-spacing: -.01em;
      }

      .cls-37 {
        letter-spacing: -.02em;
      }

      .cls-38 {
        letter-spacing: 0em;
      }

      .cls-39 {
        letter-spacing: -.01em;
      }

      .cls-40 {
        letter-spacing: -.01em;
      }

      .cls-41 {
        letter-spacing: -.02em;
      }

      .cls-42 {
        opacity: .57;
      }

      .cls-43 {
        letter-spacing: -.02em;
      }

      .cls-44 {
        fill: url(#radial-gradient);
      }

      .cls-45 {
        fill: url(#radial-gradient-2);
        isolation: isolate;
        opacity: .74;
      }

      .cls-13 {
        stroke-width: 2px;
      }

      .cls-13, .cls-14, .cls-16 {
        stroke: #000;
      }

      .cls-13, .cls-15, .cls-16, .cls-2, .cls-3 {
        stroke-linejoin: round;
      }

      .cls-14 {
        stroke-miterlimit: 10;
      }

      .cls-14, .cls-15, .cls-2, .cls-3 {
        stroke-width: 3px;
      }

      .cls-46 {
        letter-spacing: 0em;
      }

      .cls-47 {
        letter-spacing: -.02em;
      }

      .cls-48 {
        letter-spacing: -.02em;
      }

      .cls-15, .cls-2, .cls-3 {
        stroke-linecap: round;
      }

      .cls-15, .cls-3 {
        stroke: #991b1e;
      }

      .cls-49 {
        letter-spacing: 0em;
      }

      .cls-50 {
        letter-spacing: -.02em;
      }

      .cls-51 {
        letter-spacing: -.01em;
      }

      .cls-52 {
        letter-spacing: -.02em;
      }

      .cls-53 {
        font-family: Bilo-Italic, Bilo;
        font-size: 33px;
        font-style: italic;
      }

      .cls-2 {
        stroke: #fff;
      }

      .cls-54 {
        letter-spacing: -.01em;
      }

      .cls-55 {
        letter-spacing: 0em;
      }

      .cls-56 {
        letter-spacing: 0em;
      }

      .cls-57 {
        letter-spacing: -.01em;
      }

      .cls-58 {
        letter-spacing: -.01em;
      }
    </style>
    <radialGradient id="radial-gradient" cx="432.55" cy="3873.54" fx="432.55" fy="3873.54" r="60.65" gradientTransform="translate(4.5 3966.46) rotate(-.13) scale(1 -1)" gradientUnits="userSpaceOnUse">
      <stop offset=".06" stop-color="#c4cffa"/>
      <stop offset=".18" stop-color="#879afb"/>
      <stop offset=".28" stop-color="#8a9dfb"/>
      <stop offset=".36" stop-color="#94a6fb"/>
      <stop offset=".43" stop-color="#a5b4fa"/>
      <stop offset=".51" stop-color="#bdc9fa"/>
      <stop offset=".52" stop-color="#c4cffa"/>
      <stop offset=".76" stop-color="#c4cffa"/>
      <stop offset="1" stop-color="#879afb"/>
    </radialGradient>
    <radialGradient id="radial-gradient-2" cx="453.35" cy="3791.64" fx="453.35" fy="3791.64" r="60.65" gradientTransform="translate(38.14 3890.36) rotate(-.95) scale(1 -1)" xlink:href="#radial-gradient"/>
    <linearGradient id="linear-gradient" x1="348.07" y1="3803.56" x2="567.6" y2="3919.83" gradientTransform="translate(10.17 3955.94) rotate(-.24) scale(1 -1)" gradientUnits="userSpaceOnUse">
      <stop offset=".06" stop-color="#c4cffa"/>
      <stop offset=".08" stop-color="#afbcfa"/>
      <stop offset=".12" stop-color="#99a9fb"/>
      <stop offset=".15" stop-color="#8b9efb"/>
      <stop offset=".18" stop-color="#879afb"/>
      <stop offset=".52" stop-color="#c4cffa"/>
      <stop offset=".76" stop-color="#c4cffa"/>
      <stop offset=".84" stop-color="#b2bffa"/>
      <stop offset="1" stop-color="#879afb"/>
    </linearGradient>
  </defs>
  <g id="Layer_16" data-name="Layer 16">
    <g>
      <path d="m0,532.01v-98.42l55.68.74.44,75.42s28.79,26.7,76.24,26.7c58.24,0,94.12-32.56,94.12-97.59s-53.53-89.04-115.89-68.54l-19.41-26.36,138.24-138.25H65.3l-.18,73.81H11.18v-117.75h271.78v49.79l-118.83,116.58c78.24-12.89,142.95,31.05,142.95,106.62,0,99.59-81.77,144.11-172.36,144.11-51.18,0-100.01-16.4-134.71-46.87Z"/>
      <path d="m309.08,435.5c0-88.87,57.62-143.77,149.52-143.77s149.02,54.9,149.02,143.77-57.13,143.37-149.02,143.37-149.52-54.9-149.52-143.37Zm149.52,116.12c53.65,0,78.49-34.76,78.49-116.12s-24.84-116.91-78.49-116.91-78.98,35.15-78.98,116.91,24.84,116.12,78.98,116.12Zm0,0c53.65,0,78.49-34.76,78.49-116.12s-24.84-116.91-78.49-116.91-78.98,35.15-78.98,116.91,24.84,116.12,78.98,116.12Z"/>
      <ellipse class="cls-1" cx="453.85" cy="433.92" rx="77.02" ry="97.84"/>
      <path class="cls-18" d="m366.69,258.84c-13.9-.4-27.82.05-41.74-.18-.06-32.49-.29-71.55.09-104.02-7.65-1.33-29.91-15.9-33.43-19.26-.04,48.43-.22,105.16.17,153.55,24.99.01,50.05.36,75-.12.21-1.73.15-28.83-.09-29.98Z"/>
      <path class="cls-18" d="m609.11,234.66c-.08-17.47-5.74-37.87-22.74-46.93-3.32-1.77-8.32-3.79-15.3-3.97-2.88-.19-8.84-.05-15.39,2.65-9.63,3.97-12.47,9.63-12.37,9.82.09-14.64.11-29.18.2-43.81h-33.43l.26,136.81h16.73l6.15-13.77c.25-.56,1.07-.99,1.46-.52,2.4,2.89,5.23,8.27,12.6,12.8,8.5,4.53,15.58,3.97,19.83,3.97,4.53,0,14.69-.79,23.9-7.76,3.94-2.98,7.68-7.13,10.67-12.92,8.5-16.43,7.46-33.11,7.44-36.36Zm-50.03,35.04c-16.43,0-15.86-11.9-15.86-30.03,0-12.47-2.78-35.7,15.86-35.7,11.33,0,17,7.93,17,32.86,0,17.99-2.83,32.86-17,32.86Zm0,0c-16.43,0-15.86-11.9-15.86-30.03,0-12.47-2.78-35.7,15.86-35.7,11.33,0,17,7.93,17,32.86,0,17.99-2.83,32.86-17,32.86Z"/>
      <path class="cls-18" d="m455.92,225.21c.44-7.07.47-16.14-7.24-19.28-11.03-4.62-27.4-.54-28.69,13.13-10.07-.52-20.65-1.39-30.68-2.66,4.4-34.84,59.09-37.5,84.52-26.21,14.02,6.49,16.12,19.42,15.69,33.42.84,21.84-1.98,44.12,1.83,65.7-1.1.27-30.57.33-32.27.07-1.5-5.05-1.06-10.26-1.76-15.44-7.14,8.85-16.39,16.08-28.08,17.24-14.14,1.92-31.2-.96-39.54-13.71-7.55-12.25-3.85-29.61,7.37-38.37,16.77-12.43,38.96-11.74,58.85-13.91Zm-.02,15.12c-10.58,1.12-22.26,2.48-30.61,9.63-6.25,5.53-5.48,16.66,1.91,20.86,9.77,5.51,22.45-.71,26.63-10.55,2.89-6.28,2.2-13.23,2.06-19.93Z"/>
      <path d="m608.1,152.42c-10.77.57-23.23,1.13-33.43.57-.29-11.19,0-34.56,0-53.83-.57-23.8-.57-35.13-14.17-35.13-17.56,0-17,22.1-17,42.5v45.89h-33.43c-.57-36.26,0-79.89,0-112.19,10.2-.57,22.1-.57,31.16,0v18.7c8.5-14.73,16.42-21.53,30.6-21.53,12.27,0,20.39,2.66,25.76,7.67,1.76,1.64,6.89,5.42,9.94,18.96,1.13,7.37.57,29.16.57,35.13,0,13.6,0,30.03,0,53.26Z"/>
      <path d="m149.95,153.13h-38.35c-3.12-10.38-6.23-20.73-9.35-31.12h-49.22c-3.14,10.35-6.27,20.65-9.44,31.08-10.46.31-20.89.02-31.37.12C28.25,102.38,44.5,51.63,60.73.86h41.48c15.87,50.77,32.08,101.44,47.74,152.27Zm-88.12-59.43c10.61-.19,21.28.38,31.84-.22-5.39-17.49-10.27-35.08-15.88-52.37-5.67,17.28-11.07,35.05-15.97,52.59Z"/>
      <path d="m160.26,40.23h32.46c.18,25.16-.05,50.32.09,75.49-.12,5.35,2.78,11.29,8.37,12.66,17.29,3.7,21.76-12.79,22.12-27.33.5-20.27-.08-40.54.07-60.81,11.12.13,22.34-.25,33.2.13.27,37.36.16,74.89.02,112.26-38.22-.71-29.48,7.17-30.98-18.22-6.47,16.96-25.53,23.47-42.39,19.94-17.25-2.23-23.1-20.47-22.74-35.65-.58-26.15-.05-52.29-.22-78.46Z"/>
      <path d="m291.47,66.51c.12,23.05.14,46.11.12,69.17.03,7.1,7.29,13.18,11.36,15.03,6.23,2.83,12.47,4.53,22.12,4.52,8.57.25,17.06-.89,25.48-2.41-.26-8.15.41-16.63-.33-24.6-7.39-.1-16.83,2.38-22.9-2.88-2.72-3.71-2.29-8.59-2.57-12.94-.07-15.34-.03-30.64-.03-45.98,8.16-.05,15.94,0,24.08-.02.21-8.69.28-17.42-.03-26.1-8-.27-16.18.53-24.05-.3,0-13.33.06-26.72-.17-40.01h-33.18c.2,13.44.15,26.86.03,40.31-5.88.05-11.7-.1-17.57.06,0,8.59-.61,17.62.2,26.04,5.8.07,11.63-.15,17.44.1Z"/>
      <g id="Layer_9" data-name="Layer 9">
        <g id="Layer_8" data-name="Layer 8">
          <g id="Layer_7" data-name="Layer 7">
            <g id="Layer_14" data-name="Layer 14">
              <g>
                <g id="Shape_6" data-name="Shape 6">
                  <path class="cls-17" d="m471.4,94.36c-1.92-24.96-20.57-43.63-41.57-41.62-21.01,2.01-36.54,23.96-34.63,48.93s20.56,43.63,41.57,41.62,36.54-23.96,34.63-48.92Zm-1.41,9.62c-.14,1.28-.3,2.55-.53,3.79l-32.18-8.5,31.35,12.19c-.32,1.23-.69,2.42-1.11,3.6l-30.48-14.98,29.12,18.44c-.5,1.13-1.04,2.23-1.61,3.31l-27.87-21,26.02,24.12c-.65,1.01-1.34,1.98-2.07,2.93l-24.42-26.39,22.15,29.08c-.79.86-1.61,1.68-2.47,2.46l-20.24-30.99,17.61,33.18c-.91.68-1.83,1.33-2.8,1.92l-15.45-34.66,12.53,36.27c-.99.48-2.01.89-3.04,1.27l-10.17-37.25,7.05,38.19c-1.05.26-2.11.46-3.18.62l-4.58-38.66,1.36,38.97c-1.08.05-2.16.05-3.22-.02l1.14-38.95-4.35,38.6c-1.08-.18-2.14-.39-3.19-.68l6.83-38.08-9.94,37.05c-1.03-.4-2.04-.87-3.04-1.37l12.29-35.99-15.2,34.33c-.96-.6-1.89-1.26-2.8-1.96l17.36-32.8-19.99,30.58c-.86-.79-1.69-1.62-2.48-2.5l21.91-28.64-24.19,25.92c-.73-.95-1.43-1.93-2.09-2.95l25.8-23.64-27.66,20.49c-.58-1.08-1.14-2.19-1.64-3.33l28.93-17.92-30.3,14.46c-.41-1.18-.77-2.39-1.09-3.62l31.15-11.64-31.97,7.95c-.23-1.24-.41-2.5-.56-3.78l32.4-5.02-32.7,1.22c-.05-1.29-.05-2.57,0-3.83l32.7,1.74-32.43-5.54c.14-1.27.33-2.52.56-3.76l31.99,8.45-31.16-12.12c.32-1.22.69-2.41,1.1-3.59l30.31,14.9-28.96-18.33c.5-1.13,1.03-2.24,1.6-3.31l27.72,20.89-25.88-23.99c.65-1.01,1.36-1.97,2.08-2.9l24.27,26.24-22.01-28.89c.79-.86,1.61-1.67,2.46-2.44l20.11,30.79-17.5-32.96c.9-.68,1.82-1.32,2.77-1.91l15.36,34.45-12.47-36.07c.98-.48,1.99-.93,3.02-1.31l10.13,37.08-7.02-38.03c1.04-.27,2.1-.47,3.17-.63l4.57,38.51-1.37-38.83c1.09-.05,2.16-.05,3.22,0l-1.13,38.83,4.33-38.49c1.07.17,2.14.38,3.19.66l-6.81,37.99,9.91-36.96c1.03.39,2.04.85,3.04,1.35l-12.27,35.92,15.18-34.28c.96.6,1.89,1.25,2.8,1.94l-17.35,32.77,19.99-30.56c.86.78,1.69,1.61,2.49,2.48l-21.91,28.64,24.21-25.94c.73.95,1.43,1.92,2.1,2.94l-25.84,23.67,27.71-20.54c.59,1.08,1.15,2.18,1.65,3.33l-29,17.96,30.37-14.48c.42,1.18.78,2.39,1.11,3.62l-31.24,11.67,32.07-7.97c.24,1.24.42,2.5.57,3.79l-32.51,5.04,32.81-1.22c.06,1.29.07,2.57.03,3.84l-32.84-1.75,32.59,5.54Z"/>
                </g>
                <g id="Shape_6_copy" data-name="Shape 6 copy">
                  <path class="cls-19" d="m471.4,94.36c-1.92-24.96-20.57-43.63-41.57-41.62-21.01,2.01-36.54,23.96-34.63,48.93s20.56,43.63,41.57,41.62,36.54-23.96,34.63-48.92Zm-1.41,9.62c-.14,1.28-.3,2.55-.53,3.79l-32.18-8.5,31.35,12.19c-.32,1.23-.69,2.42-1.11,3.6l-30.48-14.98,29.12,18.44c-.5,1.13-1.04,2.23-1.61,3.31l-27.87-21,26.02,24.12c-.65,1.01-1.34,1.98-2.07,2.93l-24.42-26.39,22.15,29.08c-.79.86-1.61,1.68-2.47,2.46l-20.24-30.99,17.61,33.18c-.91.68-1.83,1.33-2.8,1.92l-15.45-34.66,12.53,36.27c-.99.48-2.01.89-3.04,1.27l-10.17-37.25,7.05,38.19c-1.05.26-2.11.46-3.18.62l-4.58-38.66,1.36,38.97c-1.08.05-2.16.05-3.22-.02l1.14-38.95-4.35,38.6c-1.08-.18-2.14-.39-3.19-.68l6.83-38.08-9.94,37.05c-1.03-.4-2.04-.87-3.04-1.37l12.29-35.99-15.2,34.33c-.96-.6-1.89-1.26-2.8-1.96l17.36-32.8-19.99,30.58c-.86-.79-1.69-1.62-2.48-2.5l21.91-28.64-24.19,25.92c-.73-.95-1.43-1.93-2.09-2.95l25.8-23.64-27.66,20.49c-.58-1.08-1.14-2.19-1.64-3.33l28.93-17.92-30.3,14.46c-.41-1.18-.77-2.39-1.09-3.62l31.15-11.64-31.97,7.95c-.23-1.24-.41-2.5-.56-3.78l32.4-5.02-32.7,1.22c-.05-1.29-.05-2.57,0-3.83l32.7,1.74-32.43-5.54c.14-1.27.33-2.52.56-3.76l31.99,8.45-31.16-12.12c.32-1.22.69-2.41,1.1-3.59l30.31,14.9-28.96-18.33c.5-1.13,1.03-2.24,1.6-3.31l27.72,20.89-25.88-23.99c.65-1.01,1.36-1.97,2.08-2.9l24.27,26.24-22.01-28.89c.79-.86,1.61-1.67,2.46-2.44l20.11,30.79-17.5-32.96c.9-.68,1.82-1.32,2.77-1.91l15.36,34.45-12.47-36.07c.98-.48,1.99-.93,3.02-1.31l10.13,37.08-7.02-38.03c1.04-.27,2.1-.47,3.17-.63l4.57,38.51-1.37-38.83c1.09-.05,2.16-.05,3.22,0l-1.13,38.83,4.33-38.49c1.07.17,2.14.38,3.19.66l-6.81,37.99,9.91-36.96c1.03.39,2.04.85,3.04,1.35l-12.27,35.92,15.18-34.28c.96.6,1.89,1.25,2.8,1.94l-17.35,32.77,19.99-30.56c.86.78,1.69,1.61,2.49,2.48l-21.91,28.64,24.21-25.94c.73.95,1.43,1.92,2.1,2.94l-25.84,23.67,27.71-20.54c.59,1.08,1.15,2.18,1.65,3.33l-29,17.96,30.37-14.48c.42,1.18.78,2.39,1.11,3.62l-31.24,11.67,32.07-7.97c.24,1.24.42,2.5.57,3.79l-32.51,5.04,32.81-1.22c.06,1.29.07,2.57.03,3.84l-32.84-1.75,32.59,5.54Z"/>
                </g>
                <path class="cls-44" d="m391.03,138.43c-6.62.38-16.65-3.71-22.1-7.28-6.08-3.98-10.01-10.13-11.18-17.3-2.64-16.17,7.31-31.64,18.28-42.52,16.27-16.14,40.41-28.82,63.72-26.23,49.28,5.46,61.76,58.28,60.81,84.85-2.66-12.76-5.7-25.39-11.71-37.04-3.18-6.15-6.65-12.13-11.83-16.94.84,2.76,2.82,5.4,4.14,8.02,1.87,3.7,3.19,7.36,4.61,11.21,4.14,11.19,6.23,23.04,7.11,34.91-.56-7.51-6.83-27.03-9.5-32.65-3.47-7.3-6.9-13.84-9.83-18.27-.31-.47-.62-.93-.94-1.39-.78-1.12-1.58-2.19-2.41-3.22-20.88-25.94-55.84-22.86-80.6-1.74-14.35,12.25-37.06,36.45-17.46,54.07,6.06,5.45,13.57,8.97,20.92,12.33"/>
              </g>
            </g>
          </g>
          <g id="Layer_16-2" data-name="Layer 16">
            <g id="Shape_6-2" data-name="Shape 6" class="cls-42">
              <path class="cls-17" d="m472.73,94.79c-1.69-24.98-20.17-43.81-41.19-41.99-21.02,1.82-36.76,23.63-35.07,48.61,1.69,24.98,20.17,43.81,41.19,41.99,21.02-1.83,36.75-23.63,35.06-48.61Zm-1.21,5.8l-32.82-2.05,32.53,5.86c-.15,1.28-.32,2.54-.57,3.79l-32.1-8.79,31.24,12.47c-.34,1.22-.72,2.42-1.15,3.59l-30.35-15.26,28.95,18.7c-.51,1.13-1.06,2.23-1.65,3.29l-27.67-21.25,25.8,24.36c-.66,1-1.36,1.97-2.1,2.91l-24.18-26.61,21.89,29.28c-.8.85-1.63,1.67-2.49,2.44l-19.96-31.17,17.32,33.33c-.92.67-1.85,1.31-2.82,1.89l-15.13-34.8,12.2,36.38c-.99.47-2.01.87-3.06,1.24l-9.83-37.34,6.7,38.25c-1.05.26-2.11.44-3.19.59l-4.23-38.7,1.01,38.98c-1.09.03-2.16.02-3.23-.05l1.49-38.94-4.7,38.56c-1.08-.19-2.14-.41-3.18-.71l7.17-38.01-10.28,36.96c-1.03-.41-2.03-.88-3.03-1.4l12.62-35.88-15.51,34.19c-.95-.61-1.88-1.28-2.78-1.99l17.66-32.64-20.27,30.4c-.85-.79-1.67-1.63-2.46-2.52l22.17-28.44-24.42,25.7c-.72-.96-1.41-1.94-2.06-2.97l26.02-23.4-27.85,20.24c-.57-1.08-1.12-2.2-1.61-3.34l29.09-17.66-30.43,14.18c-.41-1.18-.74-2.4-1.06-3.63l31.25-11.36-32.04,7.66c-.22-1.24-.39-2.5-.52-3.79l32.45-4.73-32.71.92c-.04-1.29-.03-2.57.03-3.83l32.68,2.04-32.37-5.83c.16-1.27.35-2.52.59-3.76l31.91,8.74-31.05-12.4c.33-1.21.71-2.41,1.13-3.58l30.17,15.17-28.79-18.59c.51-1.13,1.05-2.23,1.63-3.29l27.52,21.14-25.67-24.22c.66-1,1.38-1.95,2.11-2.89l24.03,26.45-21.75-29.09c.8-.85,1.63-1.65,2.48-2.42l19.84,30.97-17.2-33.12c.91-.67,1.83-1.31,2.79-1.89l15.04,34.58-12.14-36.18c.99-.48,2-.91,3.03-1.28l9.8,37.17-6.68-38.09c1.04-.26,2.1-.45,3.18-.6l4.22,38.55-1.02-38.84c1.09-.04,2.16-.04,3.22.04l-1.48,38.81,4.68-38.45c1.07.18,2.14.4,3.18.69l-7.15,37.92,10.25-36.87c1.03.4,2.03.87,3.03,1.38l-12.59,35.81,15.49-34.14c.95.61,1.88,1.27,2.78,1.97l-17.64,32.61,20.26-30.38c.85.79,1.68,1.63,2.46,2.5l-22.17,28.44,24.44-25.72c.72.95,1.42,1.94,2.07,2.96l-26.05,23.43,27.89-20.29c.58,1.09,1.13,2.19,1.62,3.34l-29.15,17.7,30.5-14.21c.41,1.18.76,2.4,1.08,3.63l-31.34,11.39,32.14-7.68c.23,1.24.4,2.51.54,3.8l-32.55,4.75,32.81-.93c.05,1.3.05,2.58,0,3.86Z"/>
            </g>
            <path class="cls-45" d="m391.66,138.62c-6.62.47-16.7-3.48-22.2-6.96-6.14-3.89-10.16-9.98-11.42-17.14-2.87-16.13,6.86-31.74,17.67-42.78,16.04-16.36,39.99-29.39,63.34-27.15,49.35,4.75,62.59,57.39,62.03,83.97-2.48-11.15-5.68-24.86-11.81-36.04,0,0-2.81-6.13-4.55-8.19.31.79-4.25-6.05-7.96-9.4.88,2.75,2.9,5.36,4.26,7.96,1.93,3.67,3.29,7.31,4.77,11.15,4.3,11.13,6.56,22.95,7.61,34.8-.66-7.5-7.21-26.93-9.97-32.51-3.2-6.48-6.85-13.66-11.05-19.5-20.92-29.08-57.66-26.08-83.07-3.76-14.18,12.46-36.53,36.98-16.68,54.32,6.14,5.36,13.71,8.77,21.1,12.03"/>
            <path class="cls-12" d="m377.82,72.32c13.85-13.32,33.19-24.11,52.79-25.51,3.78-.27,7.58-.19,11.34.29,11.41,1.45,19.74,9.77,24.74,19.52.6,1.18-.95,2.86-4.39.5-4.24-2.9-12.31-7.13-19.75-8.54-11.36-2.16-23.34-.05-33.74,4.83-3.06,1.43-5.99,3.09-8.84,4.89-1.46.91-2.89,1.86-4.32,2.81-.77.52-3.42,3.02-4.28,2.93,0,0-12.81-1.23-12.81-1.23l-.75-.48Z"/>
            <path class="cls-7" d="m392.58,139.05c-6.62.39-16.65-3.68-22.11-7.24-6.09-3.97-10.03-10.11-11.22-17.28-2.67-16.16,7.25-31.65,18.19-42.55,16.24-16.17,40.35-28.9,63.67-26.36,49.3,5.36,61.88,58.16,60.99,84.72.12-3.64-1.66-8.25-2.44-11.82-.81-3.77-1.71-7.53-2.79-11.23-2.67-9.06-7.02-17.82-13.01-25.15-1.67-2.04-3.48-3.95-5.41-5.73.6,1.96,1.87,3.7,2.76,5.58,2.13,4.49,4.31,9,6.03,13.64,4.16,11.18,6.28,23.03,7.18,34.9-1.44-18.99-9.55-36.83-20.37-52.27-1.68-2.4-3.6-4.08-5.48-6.06-21.15-22.23-53.94-18.94-77.53,1.27-14.34,12.28-36.99,36.52-17.35,54.11,6.07,5.43,13.6,8.94,20.94,12.28"/>
          </g>
        </g>
      </g>
    </g>
    <g id="cake">
      <rect class="cls-14" x="379.19" y="417.1" width="161.7" height="76.94"/>
      <path class="cls-14" d="m410.64,397.61h98.78c27.66,0,35.66,19.49,35.66,35.58v7.95c0,4.41-2.99,8.37-7.32,9.33-.48.11-.97.18-1.47.21-1.66.1-3.29-.23-4.75-.92-3.3-1.55-5.31-4.95-5.31-8.58v-8.15c0-.33,0-.67-.05-.99-.61-4.66-4.66-8.23-9.41-8.21-4.73.02-8.73,3.58-9.34,8.21-.04.33-.05.66-.05.99v2.95c0,3.54-1.91,6.88-5.1,8.47-1.44.72-3.05,1.09-4.71,1.02-1.04-.04-2.06-.25-3-.6-3.68-1.38-6.03-4.99-6.03-8.91v-2.99c0-2.05-.62-4.09-1.88-5.7-1.85-2.35-4.73-3.81-7.85-3.75-3.02.06-5.78,1.54-7.54,3.84-1.22,1.6-1.81,3.59-1.81,5.6v23.54c0,1.77-.45,3.52-1.41,5.01-1.72,2.63-4.7,4.34-8,4.35-3.31,0-6.3-1.71-8.02-4.34-.97-1.48-1.42-3.24-1.42-5.01v-24.17c0-.33,0-.67-.05-1-.65-5.14-5.21-8.89-10.14-8.57-4.49.3-8.3,3.92-8.85,8.6-.04.31-.04.62-.04.93v11.06c0,1.72-.43,3.43-1.34,4.89-1.62,2.57-4.38,4.28-7.47,4.44-3.35.17-6.49-1.52-8.32-4.25-1.01-1.51-1.49-3.31-1.49-5.12v-8.71c0-2.06-.62-4.1-1.89-5.72-1.85-2.34-4.73-3.78-7.82-3.69-2.77.08-5.31,1.38-7.04,3.43-1.4,1.66-2.1,3.81-2.1,5.98v3.7c0,2.86-1.23,5.62-3.48,7.39-1.71,1.34-3.86,2.13-6.15,2.1-2.25-.02-4.36-.82-6.03-2.16-2.21-1.77-3.42-4.51-3.42-7.34v-4.13c0-14.46,11.79-36.58,35.66-36.58Z"/>
      <rect class="cls-14" x="374.98" y="488.5" width="170.11" height="15.53" rx="7.08" ry="7.08"/>
      <g>
        <path class="cls-13" d="m452.9,353.89l7.12-11.25,6.98,11.4c2.69,4.07,3.93,11.19-7.01,11.19s-9.4-7.96-7.09-11.33Z"/>
        <path class="cls-13" d="m457.18,368.3h5.63c2.44,0,4.43,1.98,4.43,4.43v23.85c0,.49-.4.89-.89.89h-12.7c-.49,0-.89-.4-.89-.89v-23.85c0-2.44,1.98-4.43,4.43-4.43Z"/>
        <g>
          <line class="cls-16" x1="467.36" y1="375.87" x2="452.63" y2="380.25"/>
          <line class="cls-16" x1="467.62" y1="385.84" x2="452.89" y2="390.22"/>
        </g>
        <path class="cls-13" d="m486.4,361.38l7.12-11.83,6.98,11.96c2.69,3.51,3.93,9.66-7.01,9.66s-9.4-6.88-7.09-9.79Z"/>
        <path class="cls-13" d="m490.67,373.55h5.63c2.44,0,4.43,1.98,4.43,4.43v18.61c0,.49-.4.89-.89.89h-12.7c-.49,0-.89-.4-.89-.89v-18.61c0-2.44,1.98-4.43,4.43-4.43Z"/>
        <path class="cls-13" d="m419.41,361.38c1.28-2.13,7.12-11.83,7.12-11.83l6.98,11.96c2.69,3.51,3.93,9.66-7.01,9.66s-8.37-7.65-7.09-9.79Z"/>
        <path class="cls-13" d="m423.68,373.55h5.63c2.44,0,4.43,1.98,4.43,4.43v18.61c0,.49-.4.89-.89.89h-12.7c-.49,0-.89-.4-.89-.89v-18.61c0-2.44,1.98-4.43,4.43-4.43Z"/>
        <g>
          <line class="cls-16" x1="433.79" y1="379.75" x2="419.06" y2="383.34"/>
          <line class="cls-16" x1="434.05" y1="387.93" x2="419.32" y2="391.52"/>
        </g>
        <g>
          <line class="cls-16" x1="500.5" y1="379.75" x2="485.77" y2="383.34"/>
          <line class="cls-16" x1="500.76" y1="387.93" x2="486.03" y2="391.52"/>
        </g>
      </g>
    </g>
    <g>
      <path class="cls-3" d="m565.69,291.03c.13.23.24.47.33.72,1.47,4.83-5.33,7.11-4.99,11.75"/>
      <path class="cls-15" d="m590.01,236.96c0-27.25-21.19-27.25-24.82-27.25s-24.94.41-24.94,27.25c0,20.15,14.06,30.28,21.06,34.08h0s-3.17,5.36-3.17,5.36h13.75s-2.75-5.36-2.75-5.36h0c7.01-3.75,20.86-13.72,20.86-34.08Z"/>
      <path class="cls-15" d="m571.66,218.41c3.04,0,8.7,4.67,8.7,13.08"/>
      <path class="cls-2" d="m564.88,273.34c1.57,3.59-4.57,8.13-3.84,11.87.27,2.57,3.4,3.66,4.65,5.82"/>
    </g>
    <g>
      <text class="cls-53" transform="translate(43.56 625.58)"><tspan class="cls-8" x="0" y="0">y</tspan><tspan class="cls-49" x="14.42" y="0">e</tspan><tspan class="cls-34" x="29.38" y="0">a</tspan><tspan class="cls-56" x="47.02" y="0">r</tspan><tspan x="60.19" y="0">s </tspan><tspan class="cls-57" x="81.31" y="0">o</tspan><tspan x="98" y="0">f </tspan><tspan class="cls-20" x="114.96" y="0">m</tspan><tspan class="cls-34" x="141.52" y="0">a</tspan><tspan class="cls-54" x="159.16" y="0">k</tspan><tspan class="cls-58" x="174.41" y="0">i</tspan><tspan class="cls-31" x="181.62" y="0">n</tspan><tspan class="cls-5" x="198.61" y="0">g </tspan><tspan class="cls-55" x="223.76" y="0">i</tspan><tspan class="cls-21" x="231.61" y="0">n</tspan><tspan class="cls-47" x="248.3" y="0">t</tspan><tspan class="cls-29" x="259.8" y="0">e</tspan><tspan class="cls-32" x="274.67" y="0">ll</tspan><tspan class="cls-28" x="288.83" y="0">i</tspan><tspan class="cls-51" x="296.11" y="0">g</tspan><tspan class="cls-29" x="313.77" y="0">e</tspan><tspan class="cls-22" x="328.64" y="0">n</tspan><tspan x="345.32" y="0">t </tspan><tspan class="cls-52" x="364.43" y="0">s</tspan><tspan class="cls-23" x="377.93" y="0">y</tspan><tspan class="cls-4" x="392.59" y="0">s</tspan><tspan class="cls-47" x="406.6" y="0">t</tspan><tspan class="cls-29" x="418.1" y="0">e</tspan><tspan class="cls-11" x="432.97" y="0">m</tspan><tspan class="cls-5" x="459.34" y="0">s </tspan><tspan class="cls-25" x="480.46" y="0">t</tspan><tspan class="cls-47" x="492.49" y="0">h</tspan><tspan class="cls-9" x="509.54" y="0">a</tspan><tspan class="cls-5" x="527.29" y="0">t</tspan></text>
      <text class="cls-53" transform="translate(18.37 669.7)"><tspan class="cls-33" x="0" y="0">w</tspan><tspan class="cls-39" x="23.27" y="0">o</tspan><tspan class="cls-30" x="40.03" y="0">r</tspan><tspan class="cls-27" x="52.76" y="0">k</tspan><tspan class="cls-5" x="68.31" y="0">, </tspan><tspan class="cls-34" x="83.68" y="0">a</tspan><tspan class="cls-38" x="101.32" y="0">r</tspan><tspan x="114.33" y="0">e </tspan><tspan class="cls-37" x="136.67" y="0">u</tspan><tspan class="cls-46" x="153.63" y="0">s</tspan><tspan class="cls-35" x="167.36" y="0">e</tspan><tspan class="cls-24" x="182.13" y="0">f</tspan><tspan class="cls-36" x="191.85" y="0">u</tspan><tspan class="cls-50" x="208.87" y="0">l</tspan><tspan x="215.99" y="0">, </tspan><tspan class="cls-34" x="231.37" y="0">a</tspan><tspan class="cls-48" x="249.01" y="0">n</tspan><tspan x="266.05" y="0">d </tspan><tspan class="cls-20" x="291.2" y="0">m</tspan><tspan class="cls-34" x="317.75" y="0">a</tspan><tspan class="cls-43" x="335.39" y="0">k</tspan><tspan x="350.4" y="0">e </tspan><tspan class="cls-29" x="372.74" y="0">e</tspan><tspan class="cls-10" x="387.6" y="0">c</tspan><tspan class="cls-40" x="403.1" y="0">o</tspan><tspan class="cls-48" x="419.87" y="0">n</tspan><tspan class="cls-39" x="436.91" y="0">o</tspan><tspan class="cls-6" x="453.68" y="0">m</tspan><tspan class="cls-20" x="480.07" y="0">i</tspan><tspan x="487.25" y="0">c </tspan><tspan class="cls-46" x="510.15" y="0">s</tspan><tspan class="cls-26" x="523.88" y="0">e</tspan><tspan class="cls-41" x="538.75" y="0">n</tspan><tspan class="cls-46" x="555.61" y="0">s</tspan><tspan x="569.34" y="0">e</tspan></text>
    </g>
  </g>
</svg>